<?xml version="1.0" standalone="no"?>
<!DOCTYPE svg PUBLIC "-//W3C//DTD SVG 20010904//EN"
 "http://www.w3.org/TR/2001/REC-SVG-20010904/DTD/svg10.dtd">
<svg version="1.0" xmlns="http://www.w3.org/2000/svg"
 width="1350.000000pt" height="658.000000pt" viewBox="0 0 1350.000000 658.000000"
 preserveAspectRatio="xMidYMid meet">
<metadata>
Created by potrace 1.16, written by Peter Selinger 2001-2019
</metadata>
<g transform="translate(0.000000,658.000000) scale(0.100000,-0.100000)"
fill="#000000" stroke="none">
<path d="M5631 6245 c-2 -5 -2 -22 -1 -37 1 -26 -1 -28 -39 -28 -38 0 -41 2
-41 26 0 23 3 26 25 22 14 -3 25 -1 25 3 0 5 -25 9 -55 9 -30 0 -55 -4 -55 -9
0 -4 11 -6 25 -3 22 4 25 1 25 -22 0 -22 -4 -26 -30 -26 -16 0 -30 -4 -30 -10
0 -5 14 -10 30 -10 23 0 30 -5 30 -19 0 -11 -6 -22 -12 -24 -7 -3 0 -6 17 -6
22 -1 26 2 17 11 -24 24 -13 38 28 38 41 0 52 -14 28 -38 -9 -9 -7 -12 9 -12
16 0 19 5 15 25 -3 21 0 25 18 25 18 0 21 -4 18 -25 -4 -20 -1 -25 16 -24 11
0 15 3 9 6 -22 8 -15 43 8 43 17 0 20 -5 17 -25 -4 -20 -1 -25 15 -25 16 0 18
3 9 12 -31 31 5 51 49 28 25 -14 25 -34 -1 -27 -11 3 -20 1 -20 -5 0 -5 10 -8
23 -6 16 2 22 9 21 26 -1 20 4 22 44 22 42 0 44 -1 40 -25 -4 -19 -1 -25 12
-25 13 0 16 6 12 25 -3 20 0 25 16 25 32 0 52 -11 52 -27 0 -10 -7 -14 -20
-10 -11 3 -20 1 -20 -5 0 -5 10 -8 23 -6 16 2 22 9 21 26 -1 22 2 23 63 20 52
-2 63 -6 63 -20 0 -9 5 -20 10 -23 6 -4 10 5 10 19 0 17 5 26 16 26 12 0 15
-7 12 -25 -4 -20 -1 -25 15 -25 16 0 18 3 9 12 -20 20 -14 38 13 38 27 0 33
-18 13 -38 -9 -9 -7 -12 9 -12 16 0 19 5 15 25 -4 24 -2 25 42 25 47 0 59 -13
34 -38 -9 -9 -7 -12 9 -12 16 0 19 5 15 25 -3 20 0 25 17 25 23 0 28 -19 9
-38 -9 -9 -7 -12 9 -12 16 0 19 5 15 25 -3 21 0 25 18 25 18 0 21 -4 18 -25
-4 -20 -1 -25 16 -24 11 0 15 3 9 6 -21 8 -15 43 7 43 13 0 20 -7 20 -20 0
-11 6 -23 14 -26 19 -7 56 13 56 31 0 22 14 18 25 -7 14 -31 57 -31 70 0 13
30 56 26 70 -5 6 -14 18 -23 30 -22 11 0 14 3 7 6 -7 2 -17 13 -22 24 -10 18
-7 19 46 19 55 0 56 -1 52 -25 -4 -20 -1 -25 15 -25 16 0 18 3 9 12 -25 25
-14 39 28 36 30 -2 40 -7 40 -20 0 -9 5 -20 10 -23 6 -4 10 5 10 19 0 39 37
35 54 -5 11 -27 14 -28 20 -13 4 11 2 20 -3 22 -22 7 -10 19 19 20 20 0 31 -5
35 -18 10 -33 46 -36 70 -6 25 32 33 33 37 4 2 -12 10 -23 18 -26 12 -4 13 -2
3 9 -19 20 -16 39 7 39 15 0 20 -7 20 -25 0 -14 5 -25 10 -25 6 0 10 11 10 25
0 31 27 34 32 3 2 -12 10 -23 18 -26 12 -4 13 -2 3 9 -24 25 -15 39 27 39 22
0 40 5 40 10 0 6 -19 10 -42 11 -33 0 -38 2 -23 9 17 7 17 9 3 9 -24 1 -34 -2
-30 -11 1 -5 -5 -8 -13 -8 -8 0 -15 5 -15 10 0 6 -7 10 -16 10 -8 0 -12 -4 -9
-10 3 -5 -3 -10 -14 -10 -12 0 -21 5 -21 10 0 6 -5 10 -11 10 -5 0 -7 -5 -3
-12 5 -8 0 -9 -17 -3 -30 9 -58 9 -88 0 -17 -6 -22 -5 -17 3 4 7 2 12 -3 12
-6 0 -11 -4 -11 -10 0 -5 -12 -10 -27 -10 -22 0 -25 2 -13 10 12 8 10 10 -8
10 -13 0 -20 -4 -17 -10 9 -14 -11 -13 -35 2 -16 10 -24 10 -40 0 -35 -21 -49
-15 -53 26 l-4 37 -1 -37 -2 -38 -52 0 c-38 0 -49 3 -38 10 13 8 13 10 -2 10
-9 0 -19 -6 -22 -12 -5 -10 -7 -10 -12 0 -3 6 -15 12 -27 12 -18 0 -19 -2 -7
-10 13 -8 12 -10 -3 -10 -9 0 -26 5 -37 12 -15 10 -24 9 -45 -2 -21 -11 -30
-12 -45 -2 -25 15 -51 16 -30 1 13 -9 13 -10 0 -6 -8 2 -18 19 -21 38 -7 37
-12 30 -9 -13 1 -22 -3 -28 -19 -28 -11 0 -23 5 -26 10 -3 6 -11 10 -16 10 -6
0 -7 -4 -4 -10 3 -5 -1 -10 -9 -10 -9 0 -16 5 -16 10 0 6 -8 5 -20 -2 -17 -11
-22 -10 -29 1 -6 9 -11 10 -15 2 -9 -14 -83 -15 -91 -1 -3 6 -14 10 -23 10
-15 0 -15 -2 -2 -10 13 -8 13 -10 -2 -10 -9 0 -20 5 -24 11 -4 8 -9 7 -15 -2
-6 -11 -12 -11 -34 1 -21 11 -30 12 -45 2 -24 -15 -90 -16 -90 -2 0 14 -26 13
-50 -2 -17 -11 -22 -10 -31 2 -8 11 -12 12 -16 3 -6 -17 -67 -17 -93 -1 -15
10 -22 10 -32 0 -16 -16 -45 -15 -51 1 -4 10 -6 10 -6 0 -1 -15 -37 -17 -46
-3 -3 6 -11 10 -16 10 -6 0 -7 -4 -4 -10 3 -5 -1 -10 -9 -10 -10 0 -16 13 -19
38 -2 20 -5 33 -6 27z"/>
<path d="M4954 6227 c-3 -8 -4 -36 -2 -63 l3 -49 60 0 60 0 0 60 0 60 -58 3
c-42 2 -59 -1 -63 -11z"/>
<path d="M5641 5605 c-2 -5 -2 -22 -1 -37 2 -28 1 -28 -65 -28 l-67 0 14 22
c9 13 26 26 39 29 21 6 21 7 4 8 -25 1 -65 -25 -65 -44 0 -7 -5 -15 -12 -17
-22 -8 43 -68 71 -67 21 1 22 2 6 6 -24 6 -45 22 -45 34 0 5 27 9 60 9 61 0
75 -11 48 -38 -9 -9 -7 -12 9 -12 16 0 19 5 15 25 -3 21 0 25 18 25 18 0 21
-4 18 -25 -4 -20 -1 -25 16 -24 11 0 15 3 9 6 -18 6 -16 43 1 43 7 0 16 -9 19
-20 6 -22 35 -37 45 -24 4 5 6 8 3 7 -7 -4 -41 18 -41 27 0 6 18 10 40 10 27
0 40 -4 40 -14 0 -21 28 -39 47 -31 16 7 15 9 -6 14 -43 11 -37 31 9 31 40 0
42 -2 38 -25 -4 -19 -1 -25 12 -25 14 0 17 6 13 23 l-5 22 20 -22 c11 -13 28
-23 37 -23 12 0 9 6 -12 25 l-28 24 52 1 c42 0 53 -3 58 -19 12 -37 68 -38 80
0 9 28 28 23 23 -6 -4 -19 -1 -25 12 -25 13 0 16 6 12 25 -3 20 0 25 17 25 23
0 28 -19 9 -38 -9 -9 -7 -12 9 -12 16 0 19 5 15 25 -3 18 0 25 12 25 9 0 16
-8 16 -19 0 -24 37 -38 54 -21 8 9 7 11 -4 10 -29 -4 -40 0 -40 15 0 12 14 15
70 15 62 0 70 -2 70 -19 0 -11 -6 -22 -12 -24 -7 -3 -3 -6 8 -6 17 -1 20 4 16
24 -3 20 0 25 17 25 16 0 21 -6 21 -25 0 -14 4 -25 9 -25 4 0 6 11 3 25 -3 20
0 25 17 25 14 0 21 -6 21 -19 0 -24 37 -38 54 -21 8 9 7 11 -4 10 -29 -4 -40
0 -40 15 0 11 11 15 41 15 39 0 41 -2 37 -25 -4 -19 -1 -25 12 -25 13 0 16 6
12 25 -3 20 0 25 17 25 23 0 30 -35 9 -43 -7 -3 1 -5 17 -5 17 0 24 2 18 5
-22 8 -15 43 8 43 17 0 20 -5 17 -25 -4 -18 -1 -25 11 -25 11 0 16 9 16 33 0
34 -15 57 -37 57 -10 0 -9 -3 2 -10 12 -8 11 -10 -7 -10 -12 0 -25 5 -28 10
-3 6 -11 10 -16 10 -6 0 -7 -4 -4 -10 3 -5 0 -10 -9 -10 -8 0 -17 6 -19 13 -4
9 -8 8 -16 -3 -9 -12 -14 -13 -31 -2 -11 6 -25 12 -32 12 -10 0 -10 -3 1 -9 9
-6 -2 -9 -30 -9 -24 -1 -38 2 -32 6 7 5 7 11 -3 20 -14 13 -19 5 -15 -20 2
-13 -37 -9 -42 5 -4 10 -6 10 -6 0 -1 -16 -87 -18 -96 -3 -3 6 -14 10 -23 10
-14 0 -14 -2 -3 -9 10 -6 2 -9 -23 -9 -20 0 -39 4 -42 9 -3 5 -13 9 -22 9 -15
0 -15 -2 -2 -10 13 -8 13 -10 -2 -10 -9 0 -19 6 -21 13 -4 9 -8 9 -15 -2 -9
-12 -15 -12 -42 -1 -23 10 -34 10 -43 1 -6 -6 -34 -11 -61 -11 -37 0 -47 3
-36 10 13 8 12 10 -2 10 -10 0 -18 -4 -18 -10 0 -5 -7 -10 -15 -10 -10 0 -15
11 -15 35 0 19 -4 35 -10 35 -5 0 -10 -16 -10 -35 0 -39 -2 -40 -32 -24 -15 8
-27 8 -45 -2 -20 -11 -28 -11 -45 0 -17 11 -25 11 -45 0 -19 -10 -28 -10 -43
-1 -24 15 -33 15 -25 2 3 -5 -1 -10 -9 -10 -10 0 -16 13 -19 38 -2 20 -5 33
-6 27z"/>
<path d="M4954 5587 c-3 -8 -4 -36 -2 -63 l3 -49 60 0 60 0 0 60 0 60 -58 3
c-42 2 -59 -1 -63 -11z"/>
<path d="M3372 3 c1858 -2 4898 -2 6755 0 1858 1 338 2 -3377 2 -3715 0 -5235
-1 -3378 -2z"/>
</g>
</svg>
