<?xml version="1.0" standalone="no"?>
<!DOCTYPE svg PUBLIC "-//W3C//DTD SVG 20010904//EN"
 "http://www.w3.org/TR/2001/REC-SVG-20010904/DTD/svg10.dtd">
<svg version="1.0" xmlns="http://www.w3.org/2000/svg"
 width="1364.000000pt" height="656.000000pt" viewBox="0 0 1364.000000 656.000000"
 preserveAspectRatio="xMidYMid meet">
<metadata>
Created by potrace 1.16, written by Peter Selinger 2001-2019
</metadata>
<g transform="translate(0.000000,656.000000) scale(0.100000,-0.100000)"
fill="#000000" stroke="none">
<path d="M0 6550 c0 -6 209 -11 553 -14 303 -2 561 -4 572 -5 11 0 56 2 100 4
71 4 78 3 61 -10 -10 -8 -22 -12 -26 -10 -4 2 -12 -14 -19 -35 -6 -22 -16 -40
-21 -40 -16 0 -11 -27 5 -34 8 -3 15 -1 15 4 0 6 15 9 34 7 20 -1 32 -7 29
-13 -7 -18 51 -54 86 -54 17 0 31 4 31 8 0 34 167 -45 211 -99 20 -25 40 -39
64 -43 19 -4 35 -11 35 -16 0 -10 62 -50 79 -50 6 0 11 9 11 21 0 12 5 19 13
16 6 -2 11 -12 11 -21 -1 -9 2 -16 6 -16 4 0 10 -16 13 -35 3 -19 17 -45 30
-59 18 -18 23 -31 19 -55 -2 -16 -9 -29 -16 -28 -6 1 -10 -8 -9 -20 2 -19 -9
-30 -20 -20 -2 1 -16 -6 -31 -16 -21 -14 -37 -17 -65 -11 -56 11 -239 13 -306
3 -65 -10 -111 -25 -135 -44 -37 -30 -133 -21 -183 16 -57 42 -147 56 -147 23
0 -8 -9 -14 -20 -14 -23 0 -23 0 -10 -35 7 -20 7 -27 -4 -31 -8 -3 -13 -14
-11 -25 2 -11 0 -17 -4 -14 -5 3 -12 -2 -15 -11 -9 -23 -8 -27 9 -20 8 3 15 1
15 -5 0 -6 5 -7 11 -4 6 4 13 -2 16 -13 3 -13 17 -22 39 -27 20 -3 43 -15 52
-26 9 -10 24 -19 34 -19 9 0 20 -5 23 -10 4 -6 30 -9 61 -6 62 4 129 -23 146
-59 11 -24 61 -58 71 -48 4 3 14 0 22 -7 13 -11 13 -15 3 -22 -10 -6 -10 -10
2 -18 20 -13 30 -13 30 1 0 5 -5 7 -12 3 -7 -4 -8 -3 -4 4 4 6 13 9 21 6 8 -4
18 1 21 10 3 9 10 14 15 11 4 -3 6 -12 2 -20 -6 -18 -7 -18 34 -6 23 7 33 6
36 -2 3 -9 9 -9 24 0 12 6 25 8 33 3 8 -5 18 -6 22 -3 5 2 6 -17 3 -44 -8 -65
8 -85 69 -85 25 0 46 -4 46 -8 0 -5 16 -12 35 -16 35 -6 75 -44 75 -71 0 -7
12 -18 26 -23 16 -6 24 -16 22 -27 -1 -10 1 -24 5 -31 6 -8 4 -12 -5 -10 -9 2
-13 -11 -13 -49 0 -28 3 -49 7 -47 4 3 10 -2 15 -9 4 -8 18 -19 31 -26 22 -12
31 -41 12 -41 -5 0 -10 -6 -10 -14 0 -15 -35 -32 -58 -27 -7 1 -28 16 -46 34
-48 45 -57 51 -93 67 -18 8 -33 18 -33 23 0 4 -13 21 -30 37 -18 18 -27 35
-24 45 3 8 2 15 -3 15 -14 0 -54 36 -47 42 2 3 -8 10 -23 16 -24 9 -111 13
-275 11 -27 0 -38 5 -38 15 0 22 -31 28 -46 9 -7 -10 -14 -21 -14 -26 0 -4
-18 -5 -40 -2 -25 3 -40 1 -40 -6 0 -13 -23 9 -38 37 -8 15 -8 24 0 32 8 8 1
9 -26 1 -28 -8 -41 -7 -54 3 -13 11 -14 11 -8 0 7 -11 4 -11 -13 0 -12 7 -21
17 -21 21 0 5 -7 7 -15 3 -8 -3 -15 -2 -15 3 0 14 -69 19 -74 5 -2 -6 -17 -11
-32 -11 -16 0 -30 -5 -31 -10 -2 -5 -17 -7 -33 -5 -17 2 -30 0 -30 -6 0 -6 -9
-9 -20 -7 -11 2 -22 0 -25 -5 -3 -5 -15 -6 -28 -1 -14 5 -40 2 -74 -9 -29 -9
-56 -13 -60 -9 -4 4 -20 10 -36 13 -48 8 -67 17 -67 31 0 22 -35 23 -79 3 -23
-11 -57 -20 -75 -21 -22 -2 -44 -13 -65 -35 -18 -17 -28 -32 -23 -32 5 0 13
-12 16 -26 4 -14 29 -48 55 -74 27 -27 63 -77 80 -111 17 -34 31 -59 31 -54 0
4 8 -2 18 -14 9 -12 31 -24 47 -26 57 -10 74 -15 89 -31 9 -8 16 -11 16 -5 0
16 14 13 37 -8 20 -19 21 -19 41 -1 11 11 33 22 48 26 26 7 27 5 20 -22 -5
-21 -4 -25 4 -14 13 20 13 4 -1 -21 -5 -11 -14 -17 -19 -14 -4 3 -14 -8 -21
-24 -9 -19 -19 -28 -31 -26 -11 2 -18 -2 -18 -11 0 -8 -4 -12 -10 -9 -7 4 -7
-2 -1 -19 8 -18 6 -26 -4 -30 -8 -3 -12 -12 -9 -20 3 -8 2 -21 -2 -28 -13 -20
-15 -46 -4 -53 6 -4 7 -11 4 -17 -4 -6 -3 -8 2 -5 6 3 16 2 24 -3 7 -5 25 -4
39 2 14 5 37 11 51 12 46 5 51 7 95 44 11 10 20 10 36 1 15 -8 19 -8 15 0 -4
6 -1 11 6 11 8 1 6 6 -6 15 -11 9 -14 15 -7 15 7 0 19 7 28 16 9 8 22 13 29
10 8 -3 13 0 11 6 -1 7 6 12 16 13 9 0 17 -3 17 -7 0 -5 -2 -7 -4 -5 -2 1 -13
-7 -25 -17 -16 -15 -18 -21 -9 -28 9 -5 7 -8 -7 -9 -16 -1 -15 -2 5 -8 30 -8
72 9 65 27 -5 15 0 15 27 1 17 -9 23 -8 30 5 8 14 13 15 24 5 10 -8 11 -15 4
-24 -7 -9 -1 -21 20 -44 17 -17 35 -31 40 -31 6 0 10 -4 10 -10 0 -5 20 -9 45
-8 27 0 53 -5 63 -14 32 -28 65 -29 95 -3 24 21 26 27 15 45 -15 23 -13 22
-52 24 -17 1 -35 10 -43 23 -13 19 -12 22 6 28 12 3 21 11 21 17 0 11 114 3
133 -9 6 -3 7 -1 3 5 -5 9 17 23 34 21 3 0 17 4 32 10 15 5 28 6 30 1 2 -5 21
-10 43 -12 22 -2 46 -9 54 -16 8 -8 22 -11 35 -7 38 13 70 7 88 -15 10 -12 18
-18 18 -12 0 14 34 21 54 10 9 -5 16 -16 16 -24 0 -9 -5 -12 -12 -8 -7 4 -8 3
-4 -4 4 -7 14 -12 22 -12 8 0 14 -4 14 -8 0 -15 -36 -42 -45 -35 -4 5 -5 0 -2
-9 3 -10 1 -20 -5 -24 -6 -4 -8 -3 -4 4 3 6 -2 12 -11 14 -32 6 -73 -4 -73
-18 0 -9 6 -11 17 -7 12 5 8 -3 -10 -20 -31 -32 -31 -31 -15 -57 10 -15 9 -26
-6 -57 -10 -21 -21 -32 -23 -26 -9 25 -39 -4 -41 -41 -2 -27 2 -38 18 -46 12
-6 19 -17 17 -23 -4 -12 -10 -14 -54 -16 -14 -1 -23 -7 -23 -17 0 -11 -8 -14
-27 -12 -25 2 -57 -10 -153 -56 -14 -7 -46 -11 -70 -10 -30 2 -51 -3 -62 -13
-10 -9 -29 -17 -43 -18 -14 -2 -46 -15 -71 -30 -39 -23 -61 -28 -135 -31 -49
-2 -88 -1 -87 4 3 14 -14 62 -23 62 -4 0 -13 -8 -18 -18 -7 -14 -19 -18 -43
-15 -59 7 -79 13 -73 23 3 6 1 10 -6 10 -7 0 -9 3 -6 7 10 10 -23 43 -43 43
-24 0 -40 -22 -34 -46 4 -15 0 -20 -18 -20 -13 0 -26 5 -30 10 -5 6 -8 2 -8
-10 0 -24 -23 -34 -77 -34 -20 0 -33 5 -33 13 0 8 -3 9 -8 1 -4 -6 -18 -10
-32 -8 -31 3 -120 -26 -120 -40 0 -5 -3 -6 -6 -3 -4 3 -16 0 -26 -8 -11 -7
-27 -11 -34 -8 -8 3 -14 0 -14 -7 0 -9 -4 -9 -12 -3 -7 6 -29 11 -48 12 -19 1
-42 3 -50 3 -8 1 -20 8 -27 17 -7 9 -13 12 -13 8 0 -4 -9 -3 -19 3 -14 7 -22
7 -26 0 -4 -6 -10 -8 -14 -6 -4 3 -17 -2 -27 -12 -10 -9 -25 -17 -31 -18 -7
-1 -17 -2 -23 -2 -5 -1 -10 -22 -10 -46 0 -39 2 -44 20 -39 13 3 22 -1 26 -11
8 -22 -3 -33 -18 -18 -7 7 -16 12 -20 12 -9 0 -10 -640 -1 -677 3 -14 13 -23
24 -23 18 0 19 -11 19 -205 l0 -206 22 21 c26 24 41 25 58 4 16 -18 84 -16 86
4 1 6 3 15 4 20 1 4 2 15 1 25 -2 19 20 23 47 6 11 -7 34 -8 67 -2 40 7 51 13
53 30 3 22 27 33 75 33 15 0 27 4 27 10 0 16 185 -4 196 -21 3 -5 13 -9 23 -9
10 0 24 -7 32 -16 10 -13 25 -14 80 -9 53 5 72 3 91 -9 13 -9 48 -17 77 -18
29 -1 55 -6 57 -10 10 -16 74 -39 86 -32 11 7 28 11 82 18 23 3 38 29 34 58
-4 30 24 35 59 10 75 -53 146 -81 158 -61 4 6 12 8 19 6 20 -8 55 11 55 30 -1
32 7 57 19 61 7 2 12 9 12 15 1 29 54 52 117 51 51 -1 61 2 52 12 -18 21 36
42 63 25 20 -13 21 -12 15 33 -4 26 -29 95 -57 155 -41 89 -50 117 -50 164 0
45 5 61 26 86 27 33 70 41 92 19 20 -20 13 -30 -17 -23 -25 5 -33 2 -47 -19
-28 -43 -15 -116 41 -236 28 -60 50 -123 53 -150 4 -40 7 -47 22 -43 10 3 43
0 72 -6 40 -9 68 -9 103 -1 33 7 51 8 59 0 5 -5 22 -10 37 -10 17 0 35 -9 46
-23 29 -38 63 -52 118 -48 28 2 54 6 60 9 5 3 24 5 42 3 28 -2 33 1 33 18 0
12 5 21 10 21 6 0 10 -7 10 -15 0 -10 11 -16 33 -17 17 0 52 -2 77 -4 28 -2
49 2 55 9 6 7 18 16 28 20 15 6 17 24 17 182 0 110 4 175 10 175 6 0 10 9 10
20 0 13 6 20 18 19 10 0 12 -3 5 -6 -15 -6 -17 -33 -3 -33 6 0 10 -42 10 -105
0 -79 3 -105 13 -105 7 0 17 4 23 10 6 6 10 4 11 -8 3 -82 6 -90 29 -82 12 5
25 6 28 3 3 -4 6 2 6 13 0 14 2 16 9 5 7 -11 9 -11 14 0 4 9 6 7 7 -6 1 -19 2
-19 9 -1 7 19 8 19 29 -2 12 -12 28 -22 35 -22 9 0 9 -2 -1 -9 -11 -7 -11 -9
2 -14 8 -3 16 -1 19 6 4 14 37 -15 37 -32 0 -6 6 -8 14 -5 8 3 17 0 21 -5 3
-6 10 -9 14 -6 5 2 22 0 39 -4 20 -6 34 -5 42 2 10 9 11 9 7 1 -13 -22 18 -21
52 3 19 12 29 23 23 23 -6 0 -9 6 -6 13 3 10 22 14 62 13 58 -2 86 -11 77 -26
-3 -4 1 -10 8 -13 16 -6 115 11 140 25 13 7 22 7 29 0 6 -6 17 -8 24 -5 17 6
84 -24 84 -37 0 -6 9 -10 20 -10 10 0 34 -16 53 -35 19 -19 38 -35 43 -35 5 0
1 5 -9 11 -16 9 -18 22 -15 87 1 43 2 168 0 279 l-2 202 -52 3 c-99 6 -50 23
73 26 95 2 120 0 117 -10 -3 -8 -25 -14 -51 -16 l-47 -3 0 -203 c0 -112 3
-238 6 -280 l7 -77 22 21 c27 25 33 25 55 0 18 -20 19 -19 38 67 18 80 29 133
78 387 9 44 20 88 25 98 10 19 34 24 43 10 9 -15 35 -288 42 -444 7 -147 7
-148 -15 -148 -19 0 -21 5 -21 60 0 66 -2 69 -65 73 l-39 2 -14 -65 c-8 -36
-20 -68 -26 -72 -8 -6 -8 -8 0 -8 6 0 19 9 29 20 24 27 81 27 95 0 13 -24 56
-27 88 -4 20 14 24 14 52 -6 31 -22 80 -22 80 0 0 13 55 4 97 -15 21 -10 39
-12 55 -6 16 6 30 4 45 -7 13 -8 32 -12 43 -9 25 7 30 -10 26 -105 -2 -43 -1
-76 3 -74 6 4 4 -37 -5 -104 -2 -19 -6 -53 -9 -75 -2 -22 -7 -56 -10 -75 -4
-19 -8 -75 -11 -123 -4 -108 -9 -128 -31 -120 -12 5 -15 2 -11 -9 5 -11 0 -14
-15 -12 -60 9 -217 10 -220 1 -1 -5 -54 -6 -136 -2 -80 5 -127 11 -119 16 8 5
-22 8 -72 8 -50 0 -77 -4 -65 -8 16 -7 14 -9 -14 -14 -19 -4 -54 -7 -80 -6
-38 1 -42 2 -21 9 15 5 19 9 10 11 -8 1 -19 3 -25 4 -5 2 -21 3 -35 4 -20 1
-22 3 -10 11 12 8 11 10 -7 10 -13 0 -23 -4 -23 -10 0 -5 -17 -10 -37 -11 -31
0 -34 -2 -18 -9 15 -7 9 -9 -26 -8 -25 1 -50 -1 -56 -5 -6 -4 -16 0 -23 8 -9
11 -5 14 27 18 27 3 22 4 -17 4 -30 0 -68 5 -83 11 -36 15 -99 16 -77 2 8 -5
10 -10 4 -10 -6 0 -14 3 -18 7 -4 4 -60 7 -124 7 -81 -1 -99 0 -60 5 83 9 86
25 3 18 -52 -4 -64 -3 -45 4 25 10 46 9 265 -10 60 -5 114 -6 120 -3 5 4 -33
10 -85 13 -59 3 -8 5 135 6 127 0 208 -3 180 -6 -46 -6 -42 -7 45 -13 52 -4
96 -12 98 -18 2 -5 33 -10 70 -10 45 0 62 3 52 10 -25 16 8 21 121 18 l104 -3
-65 -12 -65 -12 62 3 c34 1 60 0 58 -3 -1 -3 33 -7 77 -9 62 -3 78 -1 73 9 -6
9 11 11 77 6 l86 -7 4 41 c2 22 0 43 -4 45 -5 3 -3 14 2 25 6 10 9 19 8 19
-41 6 -310 7 -418 2 l-145 -7 155 -11 155 -11 -100 -1 c-55 -1 -136 2 -180 7
-105 13 -391 22 -315 11 30 -4 103 -8 163 -9 64 -1 107 -5 107 -11 0 -6 -37
-9 -97 -7 -54 2 -147 -1 -208 -5 -123 -9 -518 1 -470 13 29 6 29 7 -8 8 -21 0
-36 -3 -32 -8 10 -17 -34 -22 -159 -19 -69 1 -128 -1 -133 -6 -4 -5 92 -7 227
-3 129 2 262 1 295 -3 45 -5 18 -7 -108 -9 -100 0 -177 -5 -189 -12 -16 -9
-19 -8 -13 3 6 10 5 11 -6 0 -7 -6 -31 -12 -53 -13 -23 0 -35 -3 -28 -6 6 -2
10 -9 6 -14 -3 -5 20 -9 52 -9 86 0 62 -6 -51 -13 -66 -4 -95 -3 -85 3 11 7 6
10 -20 9 -29 0 -31 -2 -15 -9 17 -7 17 -9 3 -9 -21 -1 -24 -17 -5 -24 7 -3 5
-6 -5 -6 -11 -1 -15 -6 -12 -15 3 -8 13 -12 26 -8 14 3 19 1 14 -6 -4 -7 14
-13 51 -18 47 -6 53 -9 33 -15 -23 -6 -22 -7 8 -8 19 -1 31 3 27 9 -6 9 11 15
75 24 19 3 51 8 70 11 23 3 29 2 16 -3 -18 -8 -18 -9 -2 -15 10 -4 51 -7 92
-7 43 0 73 -4 70 -9 -4 -5 37 -12 91 -16 54 -3 106 -10 115 -15 10 -6 48 -10
85 -9 l68 0 -32 16 c-18 9 -33 20 -33 24 0 11 213 -1 225 -12 5 -5 24 -9 41
-9 18 0 36 -5 39 -10 8 -12 -46 -13 -96 -1 -20 5 -54 5 -75 1 l-39 -8 48 -1
c26 0 47 -4 47 -8 0 -11 203 -7 315 5 50 6 103 8 119 5 19 -4 27 -2 22 5 -12
20 15 24 129 17 112 -7 113 -8 111 -31 -3 -25 -16 -46 -16 -26 0 15 -72 16
-87 1 -8 -8 -72 -12 -187 -13 -97 0 -176 -4 -176 -8 0 -14 65 -14 296 -4 152
7 161 7 159 -11 -3 -41 -21 -55 -69 -57 -27 0 -50 -7 -55 -15 -6 -9 -11 -10
-15 -2 -4 6 -12 11 -17 11 -6 0 -8 -4 -5 -9 3 -5 -2 -12 -11 -15 -18 -7 -8
-22 19 -28 14 -2 13 -5 -7 -15 -14 -6 -23 -7 -19 -2 3 5 -50 9 -125 9 -71 0
-136 3 -145 6 -10 4 -16 1 -16 -9 0 -14 18 -16 138 -12 144 4 118 -5 -51 -20
-48 -4 -87 -11 -87 -16 0 -6 3 -8 8 -6 4 3 74 8 156 12 82 3 152 6 155 7 3 0
24 -1 46 -2 40 -2 40 -2 10 -11 -20 -5 -2 -7 50 -3 44 3 112 7 150 9 97 6
-189 -30 -358 -46 -75 -6 -135 -14 -132 -17 2 -3 64 0 137 7 73 6 192 16 263
21 72 6 162 13 200 17 39 3 67 2 63 -2 -7 -7 -191 -26 -453 -45 -76 -6 -142
-13 -145 -16 -3 -4 40 -3 95 0 55 4 136 9 180 12 44 2 96 7 115 9 70 9 304 16
297 9 -4 -4 -67 -11 -139 -15 -131 -8 -359 -24 -490 -34 -44 -4 -68 -2 -68 5
0 5 -5 10 -11 10 -5 0 -7 -4 -4 -10 3 -5 1 -10 -4 -10 -6 0 -11 4 -11 10 0 9
-23 7 -87 -6 -13 -2 -23 -10 -23 -17 0 -9 37 -12 144 -12 79 0 148 -4 153 -8
4 -5 -1 -15 -12 -23 -15 -11 -33 -13 -75 -7 -70 10 -119 8 -162 -6 -30 -10
-34 -16 -34 -44 1 -24 -4 -33 -19 -36 -17 -3 -18 -2 -5 15 14 16 13 17 -25 11
-22 -4 -51 -7 -65 -8 -23 0 -23 -1 -5 -9 11 -5 16 -9 10 -9 -5 -1 -3 -6 5 -12
11 -8 2 -9 -35 -5 -30 3 -42 2 -30 -3 14 -5 -2 -10 -55 -15 -41 -5 -93 -10
-115 -13 -22 -3 -69 -5 -104 -5 -40 0 -58 -3 -50 -9 10 -6 7 -9 -11 -10 -37
-2 -114 -1 -213 2 -56 2 -91 -1 -99 -9 -17 -17 -23 -119 -8 -137 7 -9 29 -15
51 -15 l39 0 0 -307 c0 -170 2 -354 6 -409 l5 -101 -33 -8 c-32 -7 -33 -7 -8
-15 22 -7 21 -8 -11 -9 -36 -1 -37 -2 -42 -44 -2 -23 0 -58 6 -77 l11 -36 125
-2 c137 -2 369 -28 275 -31 -28 0 -54 -4 -57 -8 -4 -4 -33 -6 -65 -6 -49 1
-52 0 -22 -7 30 -6 32 -8 10 -10 -14 -2 16 -6 65 -10 93 -7 153 0 105 13 -13
3 -22 8 -20 10 3 1 84 0 180 -4 128 -4 183 -10 205 -22 17 -8 68 -18 115 -22
47 -4 110 -13 141 -21 31 -8 71 -14 88 -14 17 0 31 -4 31 -10 0 -6 -58 -9
-157 -8 -87 1 -134 3 -105 5 82 6 51 23 -43 23 l-83 0 -11 -31 c-14 -39 -14
-52 -1 -44 5 3 104 3 220 -1 155 -5 210 -10 210 -19 0 -7 7 -18 15 -25 11 -9
13 -16 5 -24 -12 -12 -14 -99 -1 -92 5 3 14 -1 21 -9 7 -8 23 -15 36 -15 23 0
23 0 8 34 -19 39 -9 110 16 112 33 2 33 7 0 15 -32 7 -30 8 13 5 26 -2 51 -6
54 -9 3 -3 -6 -36 -20 -72 -14 -36 -22 -63 -17 -60 4 3 10 -2 14 -10 5 -13 59
-15 402 -15 l396 0 -6 31 c-5 28 -4 30 22 29 15 -1 47 -1 72 -1 l45 2 -29 22
c-17 12 -44 24 -60 27 -21 3 -32 11 -34 25 -2 18 3 20 63 21 l65 2 2 -47 c0
-25 0 -58 -1 -73 -1 -14 2 -29 7 -32 12 -7 36 110 26 126 -4 6 -3 8 4 5 6 -5
13 8 17 31 7 44 25 78 25 50 0 -10 5 -18 10 -18 6 0 10 -15 10 -32 0 -24 -3
-29 -10 -18 -5 8 -11 12 -14 9 -9 -8 -35 -143 -30 -151 8 -13 59 -9 73 5 11
10 13 9 7 -1 -6 -9 4 -12 38 -10 25 0 46 5 46 10 0 4 9 3 20 -4 16 -10 22 -10
28 -1 5 8 13 9 22 3 23 -15 110 -12 110 3 0 7 3 8 8 2 4 -6 32 -11 62 -13 42
-1 51 1 37 9 -9 5 -21 8 -26 5 -5 -3 -11 1 -15 9 -3 10 3 17 19 21 14 3 25 10
25 15 0 5 9 4 19 -3 15 -9 22 -8 35 5 16 15 15 19 -10 57 -20 30 -25 45 -18
60 8 17 11 17 29 4 16 -12 17 -18 8 -33 -9 -14 -7 -24 9 -49 11 -18 24 -32 30
-32 5 0 6 -5 3 -10 -4 -6 -11 -7 -17 -4 -7 5 -8 2 -3 -7 7 -12 6 -12 -7 -1
-11 9 -18 10 -23 2 -10 -16 4 -30 30 -30 18 0 23 4 18 16 -4 12 -2 15 8 12 8
-3 14 -13 14 -24 0 -16 8 -19 48 -20 40 -2 47 1 47 18 0 10 4 16 10 13 6 -4 7
1 3 12 -6 16 -5 16 10 4 9 -7 14 -17 11 -22 -3 -5 1 -9 8 -10 7 -1 2 -5 -12
-9 -21 -7 -19 -8 15 -7 22 0 43 6 47 11 5 7 8 6 8 -2 0 -10 29 -13 129 -11 72
2 128 6 126 10 -3 4 1 12 8 17 10 8 17 6 27 -8 11 -15 26 -20 59 -20 42 0 43
1 25 15 -10 8 -14 15 -9 15 6 1 1 5 -10 10 -17 7 -17 9 -2 9 21 1 22 26 3 63
-10 19 -11 25 -2 22 13 -5 40 -93 31 -102 -7 -8 27 -31 47 -32 9 0 19 6 21 13
4 9 6 9 6 0 1 -10 59 -13 256 -13 253 0 292 5 228 32 -24 9 -25 12 -9 16 10 2
21 0 25 -6 6 -9 45 -32 55 -32 3 0 6 6 6 14 0 8 5 18 11 22 8 5 10 -1 7 -19
l-5 -26 109 0 c68 0 107 3 103 9 -3 6 -1 10 4 10 6 0 11 -4 11 -10 0 -15 97
-13 103 3 3 9 9 9 26 0 28 -18 51 -16 51 3 0 8 -4 13 -8 10 -4 -2 -8 4 -8 15
0 19 1 19 13 3 7 -10 13 -24 13 -31 0 -7 10 -13 23 -12 21 0 21 1 2 9 -19 8
-19 9 3 9 12 1 22 -3 22 -9 0 -5 16 -10 35 -10 28 0 38 5 45 23 5 12 9 16 9 9
1 -7 6 -10 11 -7 6 3 10 2 10 -4 0 -5 -6 -12 -12 -14 -7 -3 69 -5 170 -4 171
0 182 2 177 19 -17 61 -17 61 -26 47 -6 -9 -7 -2 -3 19 5 22 3 32 -6 32 -10 0
-10 3 0 14 6 8 11 30 10 48 -4 70 -2 76 26 70 24 -4 25 -7 23 -61 -6 -110 0
-171 16 -171 9 0 12 6 9 17 -5 17 -5 17 6 1 8 -13 24 -18 55 -18 40 0 45 3 46
23 l0 22 16 -23 c8 -12 26 -22 39 -22 12 0 26 -5 29 -10 10 -16 2176 -13 2195
3 26 21 42 67 29 83 -6 8 -9 23 -6 34 3 11 1 23 -4 26 -5 3 -6 11 -2 17 4 6 7
23 7 37 1 14 4 30 8 36 5 7 2 14 -5 17 -17 6 -15 40 2 61 18 22 -9 32 -41 15
-21 -11 -22 -11 -10 4 8 9 11 21 7 27 -3 5 2 13 12 17 22 8 48 33 35 33 -6 0
-9 14 -8 30 2 21 -2 29 -10 26 -20 -8 -22 18 -3 35 20 17 14 34 -16 42 -17 4
-17 5 4 6 19 1 21 4 11 15 -9 12 -7 17 9 28 25 15 27 28 4 28 -9 0 -13 3 -10
7 4 3 2 12 -5 20 -8 10 -7 17 7 27 16 11 14 14 -19 30 l-37 18 25 22 c21 17
24 24 14 34 -10 10 -10 15 2 22 13 8 11 11 -6 16 -21 6 -21 6 5 32 l26 27 -27
3 c-35 4 -36 19 -3 34 21 10 24 16 19 47 -11 64 -10 96 5 112 7 9 15 33 16 53
2 29 -2 36 -17 36 -21 0 -24 15 -4 23 17 7 10 47 -8 47 -6 0 -4 6 5 13 33 26
27 66 -11 79 -10 3 -5 10 19 22 25 13 30 20 21 26 -8 5 -15 18 -17 30 -4 28
34 110 51 110 7 0 19 6 25 14 9 11 6 15 -17 19 -36 7 -38 40 -5 84 27 37 28
43 8 43 -31 0 -14 27 32 53 46 25 56 22 78 -31 12 -30 21 -41 23 -29 3 17 23
23 35 11 3 -4 -1 -17 -10 -31 -10 -15 -19 -20 -23 -13 -4 7 -17 -2 -34 -24
-26 -34 -24 -41 10 -37 13 1 -9 -93 -27 -115 -9 -11 -7 -14 11 -14 18 0 20 -3
11 -14 -9 -11 -7 -15 9 -19 12 -3 20 0 20 8 0 13 29 29 38 20 3 -2 -1 -11 -8
-20 -10 -12 -9 -15 5 -15 10 0 15 -3 11 -7 -5 -5 -28 -8 -52 -8 -44 0 -62 -17
-24 -23 26 -4 26 -32 0 -39 -11 -3 -20 -9 -20 -13 0 -12 48 -21 76 -14 20 5
25 3 22 -7 -4 -10 -19 -13 -50 -11 -42 2 -46 1 -46 -20 0 -21 4 -23 48 -20
l48 4 0 -127 c-1 -103 -4 -125 -15 -121 -8 3 -11 1 -8 -4 3 -6 -1 -10 -9 -10
-9 0 -16 8 -17 18 0 13 -2 12 -9 -5 -5 -13 -17 -23 -25 -23 -9 0 -13 -5 -10
-11 4 -6 0 -16 -9 -22 -14 -11 -13 -14 14 -32 35 -24 37 -31 9 -38 -17 -5 -19
-9 -10 -25 6 -11 8 -22 4 -25 -3 -4 2 -10 12 -14 18 -6 18 -7 0 -13 -17 -6
-17 -7 3 -12 17 -5 22 -2 22 14 0 10 5 28 10 39 7 13 7 19 0 19 -5 0 -10 9
-10 20 0 13 7 20 20 20 21 0 28 16 9 22 -8 3 -7 7 2 15 12 9 15 -1 17 -58 3
-62 1 -68 -15 -62 -15 5 -15 3 2 -10 17 -14 18 -19 7 -36 -7 -13 -8 -21 -2
-21 5 0 10 -9 10 -21 0 -11 -5 -17 -10 -14 -6 3 -10 2 -10 -4 0 -5 5 -11 12
-13 9 -3 9 -6 0 -12 -7 -4 -12 -2 -12 3 0 6 -7 11 -15 11 -14 0 -19 11 -16 37
1 6 -3 14 -9 18 -6 4 -7 -1 -4 -12 5 -17 5 -17 -9 0 -10 12 -22 16 -40 12 -23
-6 -24 -9 -14 -35 6 -16 15 -26 20 -23 5 3 20 -7 34 -23 14 -16 26 -27 28 -24
6 8 45 -28 45 -41 0 -6 -15 0 -32 13 -51 39 -71 42 -97 14 l-22 -24 26 -28
c15 -16 22 -30 16 -32 -14 -5 -14 -49 0 -57 6 -5 3 -12 -10 -21 -16 -12 -18
-20 -11 -44 5 -17 18 -42 29 -56 11 -15 18 -30 15 -35 -3 -5 0 -17 5 -28 8
-14 8 -21 -2 -24 -21 -7 13 -57 39 -57 28 0 44 -27 44 -70 0 -26 -3 -31 -16
-26 -15 6 -15 4 0 -18 9 -14 16 -46 16 -71 l0 -45 1355 0 1355 0 0 1860 c0
1642 -2 1860 -15 1867 -10 6 -15 27 -16 66 -2 52 -4 58 -30 71 -16 8 -27 10
-24 5 4 -5 1 -9 -5 -9 -7 0 -9 7 -6 16 4 9 2 22 -4 29 -7 8 -4 11 13 10 34 -3
57 13 57 40 0 25 -10 32 -24 18 -4 -4 -19 -9 -34 -11 -14 -2 -32 -7 -38 -13
-6 -5 -14 -6 -18 -2 -4 4 -4 0 -1 -8 3 -9 -2 -22 -11 -30 -12 -9 -15 -10 -10
-1 5 8 -1 12 -18 13 -14 1 -30 3 -36 4 -5 1 -15 3 -20 4 -6 0 -3 12 6 26 9 14
20 23 24 20 4 -2 30 6 57 19 27 13 63 26 80 29 71 11 91 49 58 107 -9 16 -14
55 -15 108 0 53 -4 82 -11 82 -6 0 -9 -7 -6 -14 4 -10 1 -13 -8 -10 -8 3 -11
12 -7 22 5 15 4 15 -20 0 -17 -11 -29 -14 -33 -8 -3 6 1 10 9 10 8 0 18 4 21
10 3 6 -1 7 -9 4 -19 -7 -76 17 -76 32 0 6 -7 11 -15 11 -8 0 -15 -5 -15 -10
0 -5 -9 -7 -20 -4 -11 3 -20 1 -20 -4 0 -11 -23 -7 -33 6 -4 6 -10 0 -13 -12
-4 -13 -10 -23 -16 -23 -5 0 -4 9 2 20 7 14 7 20 0 20 -21 0 -25 -4 -22 -21 2
-9 -1 -19 -5 -22 -4 -3 -8 8 -9 25 -1 16 -6 33 -13 39 -6 5 -9 6 -6 3 3 -4 0
-13 -6 -20 -8 -9 -6 -23 6 -48 22 -46 32 -54 84 -60 25 -3 48 -9 53 -14 13
-13 18 -52 7 -52 -6 0 -8 -4 -5 -8 3 -5 -1 -9 -9 -9 -8 0 -15 4 -15 9 0 5 -5
6 -10 3 -6 -4 -8 -11 -5 -16 10 -15 -12 -10 -25 6 -16 19 -47 19 -47 1 0 -11
5 -13 19 -5 14 7 19 6 23 -6 3 -8 7 -21 9 -29 3 -10 -1 -13 -14 -11 -18 4 -37
-26 -32 -50 1 -5 -5 -1 -14 10 -16 20 -16 20 -9 -4 5 -18 4 -22 -6 -16 -9 6
-11 3 -6 -9 6 -16 3 -17 -19 -12 -18 5 -24 3 -18 -5 5 -8 3 -9 -7 -3 -8 5 -22
7 -31 6 -10 -2 -18 2 -18 8 0 6 5 8 12 4 7 -4 8 -3 4 4 -4 6 -22 10 -41 8 -20
-1 -35 2 -35 8 0 7 -3 8 -8 1 -9 -13 -32 -17 -32 -6 0 15 -50 -13 -56 -31 -3
-10 -11 -18 -19 -18 -7 0 -16 -7 -19 -16 -4 -10 -2 -13 6 -8 7 4 8 3 4 -4 -4
-7 -14 -12 -22 -12 -8 0 -14 -5 -14 -12 0 -6 -3 -9 -6 -5 -3 3 -15 -2 -26 -12
-11 -11 -27 -17 -37 -14 -10 3 -21 -2 -24 -10 -7 -18 -59 -16 -65 2 -2 6 -13
11 -23 11 -13 0 -18 4 -13 12 4 7 3 8 -5 4 -6 -4 -9 -12 -6 -17 11 -16 -7 -10
-20 8 -9 13 -14 13 -20 3 -6 -9 -4 -11 5 -5 8 5 11 4 6 -3 -4 -6 -13 -9 -21
-5 -18 6 -20 -18 -3 -35 9 -9 9 -12 -1 -12 -7 0 -9 -5 -5 -12 5 -9 2 -9 -9 1
-9 7 -17 10 -17 5 0 -5 -5 -2 -10 6 -8 13 -10 12 -10 -4 0 -13 5 -16 18 -11
13 5 14 3 5 -6 -7 -7 -17 -8 -25 -3 -17 11 -81 14 -88 3 -3 -4 -14 0 -25 8
-16 13 -17 15 -2 10 9 -4 17 -3 17 1 0 4 9 8 20 9 13 1 18 -2 14 -9 -4 -7 -2
-8 5 -4 19 12 3 25 -27 22 -15 -2 -35 -4 -44 -5 -10 0 -18 -7 -18 -15 0 -9 -7
-12 -22 -9 -17 3 -19 2 -9 -5 16 -12 -3 -27 -21 -16 -6 4 -8 3 -5 -3 8 -12
-32 -26 -77 -27 -25 -1 -29 -5 -32 -35 -4 -29 8 -38 12 -10 1 5 2 13 3 17 0 4
12 9 27 10 17 1 23 -2 18 -11 -4 -6 2 -4 13 6 20 17 21 17 26 -3 3 -11 1 -18
-4 -14 -5 3 -9 0 -9 -5 0 -6 4 -11 9 -11 5 0 12 -7 15 -16 5 -14 4 -15 -9 -4
-17 14 -19 7 -5 -20 8 -16 8 -18 -5 -14 -11 5 -15 -1 -15 -21 0 -15 -4 -24
-10 -20 -6 4 -8 11 -5 16 3 5 -1 6 -9 3 -9 -3 -16 -13 -16 -21 0 -8 5 -11 10
-8 6 3 10 2 10 -4 0 -5 -8 -15 -17 -20 -12 -7 -14 -10 -4 -11 11 0 11 -3 0
-17 -10 -11 -10 -14 -1 -9 7 4 12 2 12 -4 0 -6 4 -9 8 -6 5 3 9 -1 9 -8 0 -7
-6 -13 -13 -13 -7 0 -11 4 -8 9 3 5 -7 8 -23 6 -20 -2 -27 1 -25 11 3 12 0 12
-12 1 -19 -15 -21 -24 -4 -14 7 4 8 3 4 -4 -11 -18 -26 -14 -26 6 -1 16 -1 16
-11 -1 -8 -14 -14 -16 -25 -6 -8 6 -14 17 -14 23 0 6 5 3 11 -7 10 -18 11 -18
24 0 12 15 11 19 -3 25 -9 3 -27 4 -39 1 -13 -3 -23 -1 -23 5 0 6 -9 8 -20 5
-11 -3 -20 0 -20 6 0 6 5 11 11 11 6 0 9 10 7 21 -3 19 -10 22 -56 23 -28 0
-52 -2 -52 -6 0 -5 5 -8 11 -8 5 0 7 -5 4 -11 -5 -7 -13 -4 -25 8 -13 14 -15
21 -6 33 6 8 -1 5 -15 -5 -15 -11 -24 -24 -21 -29 3 -5 -1 -5 -9 0 -21 13 -40
14 -33 1 5 -8 2 -7 -7 1 -16 15 -39 16 -39 1 0 -5 6 -7 13 -3 6 4 9 3 4 -1 -9
-10 -67 -14 -67 -5 0 3 -25 14 -55 24 -30 11 -52 22 -50 27 3 4 -4 5 -14 2
-13 -3 -21 1 -24 14 -4 15 -5 15 -6 1 0 -9 -11 -20 -23 -24 l-22 -7 21 -17
c21 -17 63 -78 63 -92 0 -12 -28 -9 -32 3 -3 8 -10 6 -21 -5 -9 -10 -14 -22
-11 -28 4 -6 1 -9 -6 -6 -8 2 -16 10 -18 18 -3 8 0 10 9 5 11 -6 12 -5 2 5
-11 12 -15 11 -28 -6 -17 -22 -19 -40 -6 -48 5 -4 7 4 4 15 -4 16 -2 20 8 17
8 -3 13 -16 11 -29 -2 -22 -2 -23 11 -5 12 17 14 17 20 3 3 -9 3 -16 -1 -16
-4 1 -9 0 -12 -1 -3 -1 -20 -3 -37 -5 -22 -2 -31 1 -26 9 4 6 0 5 -9 -2 -12
-10 -18 -10 -23 -1 -6 8 -10 7 -16 -2 -7 -11 -9 -10 -9 4 0 12 -8 17 -27 18
-17 1 -21 3 -11 6 15 4 16 7 4 18 -7 8 -22 11 -33 9 -15 -4 -22 0 -26 15 -3
11 -2 20 2 19 20 -2 26 5 28 32 1 17 -2 30 -7 30 -20 0 -40 -13 -40 -27 0 -8
-4 -12 -9 -9 -5 3 -11 -1 -15 -9 -7 -20 -26 -19 -26 0 0 9 -7 18 -15 21 -8 4
-15 15 -15 27 0 11 -3 17 -6 14 -4 -3 -15 4 -25 17 -19 24 -56 29 -51 7 1 -6
-5 -11 -13 -11 -9 0 -15 9 -15 24 0 14 -7 32 -16 40 -16 17 -39 22 -30 7 3 -4
-6 -6 -19 -3 -14 2 -25 10 -25 18 0 7 6 11 14 8 15 -6 22 8 31 66 4 25 3 31
-5 20 -5 -8 -10 -11 -10 -7 0 4 -9 3 -20 -3 -11 -6 -20 -7 -20 -2 0 4 -8 8
-17 8 -10 0 -29 4 -42 8 -18 6 -22 5 -16 -5 5 -8 4 -11 -1 -6 -5 5 -9 12 -9
15 -1 15 -27 53 -32 48 -11 -11 -32 28 -22 40 7 8 0 20 -21 38 -34 28 -45 32
-55 16 -3 -6 -17 -10 -31 -10 l-24 0 0 305 c0 168 3 305 8 305 4 0 15 -9 25
-20 9 -11 23 -20 30 -20 18 0 67 42 67 57 0 6 8 14 18 18 23 10 132 14 132 5
0 -4 12 -8 28 -9 15 -1 45 -2 68 -4 22 -1 47 -7 55 -13 8 -6 36 -12 62 -12 40
0 46 2 36 14 -7 9 -8 14 -1 14 6 0 14 -5 17 -10 4 -6 11 -8 16 -5 5 3 6 -1 3
-9 -3 -9 -1 -16 5 -16 6 0 11 5 11 10 0 11 30 13 54 4 9 -3 16 -12 16 -19 0
-7 6 -24 13 -37 10 -20 17 -23 42 -18 17 4 40 12 52 18 36 20 62 15 69 -14 5
-17 11 -23 22 -19 8 3 19 0 24 -7 6 -10 8 -10 8 2 0 12 2 13 9 1 7 -11 14 -11
41 3 18 9 42 16 53 16 12 0 39 9 62 20 40 19 45 20 101 5 32 -8 66 -15 76 -15
10 0 18 -4 18 -10 0 -6 27 -7 68 -5 108 8 115 8 165 1 27 -4 54 -3 60 2 7 5
32 10 57 11 25 2 60 4 78 6 17 1 32 -2 32 -7 0 -5 7 -2 16 6 8 9 31 16 49 16
18 0 41 7 49 16 10 10 30 15 54 13 28 -2 47 3 67 19 15 12 37 22 49 23 131 6
167 5 171 -1 3 -5 21 -7 40 -6 23 2 40 -3 51 -15 29 -32 90 -25 151 16 29 19
57 35 64 35 6 0 24 9 39 20 l28 20 -5 -20 c-4 -15 0 -20 15 -20 11 0 22 8 25
19 2 11 17 22 35 25 16 4 40 18 52 32 28 29 40 31 40 4 0 -11 5 -20 10 -20 7
0 10 223 10 650 0 571 -2 650 -15 650 -12 0 -15 16 -15 81 0 73 2 81 18 75 16
-6 16 -5 -1 8 -14 10 -15 15 -5 19 10 4 10 6 1 6 -7 1 -13 8 -13 17 0 14 2 15
17 3 15 -13 15 -12 5 8 -8 14 -9 24 -2 28 15 9 12 25 -5 25 -12 0 -15 16 -15
80 l0 80 -1315 0 -1315 0 0 -147 c0 -82 -1 -211 -1 -288 l-1 -141 -25 -2 c-23
-2 -24 0 -12 15 10 11 10 14 2 9 -10 -6 -13 57 -13 298 l0 306 1355 0 c897 0
1355 3 1355 10 0 7 -2280 10 -6820 10 -4350 0 -6820 -3 -6820 -10z m8200
-1311 l0 -1301 -23 -24 c-12 -13 -30 -24 -39 -24 -10 0 -20 -10 -24 -25 -4
-15 -11 -22 -18 -18 -6 4 -5 -1 3 -10 20 -24 5 -34 -19 -12 -10 9 -26 15 -34
12 -8 -3 -16 -2 -18 3 -2 5 -16 12 -33 15 l-30 7 32 -23 c18 -13 33 -31 33
-39 -1 -9 -8 -5 -21 13 -11 15 -25 27 -31 27 -14 0 44 -68 58 -69 7 -1 15 -8
18 -17 5 -14 4 -15 -9 -4 -12 10 -15 10 -15 0 0 -9 -7 -8 -25 4 -30 20 -36 20
-28 1 3 -9 7 -14 10 -11 2 2 16 -2 30 -9 16 -9 33 -11 42 -6 10 6 21 2 34 -13
10 -11 16 -15 12 -8 -7 14 -4 15 19 6 9 -3 16 -13 16 -21 0 -8 -4 -11 -10 -8
-5 3 -10 2 -10 -4 0 -5 5 -13 10 -16 17 -10 11 -22 -9 -21 -11 0 -36 18 -56
39 -21 21 -43 36 -51 33 -8 -3 -13 -2 -13 2 3 19 -2 25 -11 12 -7 -11 -10 -11
-10 -2 0 8 -5 10 -12 6 -7 -4 -10 -4 -6 1 9 10 -11 37 -22 30 -5 -3 -6 5 -2
17 4 16 2 19 -8 13 -9 -5 -11 -4 -6 3 4 7 1 12 -9 12 -9 0 -13 5 -10 10 4 6
11 7 17 4 7 -4 8 -2 4 5 -4 6 -18 9 -32 7 -14 -3 -22 -1 -19 5 4 5 11 7 16 4
5 -4 9 -1 9 4 0 10 -20 15 -46 12 -7 -1 -14 6 -18 14 -3 9 -11 13 -16 10 -8
-5 -7 -11 1 -21 16 -19 5 -29 -12 -11 -18 18 -39 10 -32 -11 3 -10 -2 -7 -12
6 -9 13 -15 32 -12 43 4 14 2 18 -6 11 -22 -17 -47 -22 -44 -9 1 7 -8 12 -20
11 -18 0 -20 3 -12 18 5 10 14 18 19 18 6 0 10 5 10 11 0 6 -10 9 -22 7 -13
-2 -22 -9 -20 -16 1 -9 -8 -8 -35 4 -21 9 -43 18 -50 21 -6 2 -20 0 -30 -6
-16 -9 -14 -10 11 -11 16 0 27 -3 23 -6 -3 -3 -22 -6 -41 -6 -20 0 -36 -5 -36
-11 0 -7 -5 -4 -11 6 -6 9 -15 15 -20 11 -5 -3 -8 0 -7 8 2 7 -3 12 -11 10 -8
-2 -18 3 -22 10 -7 11 -12 11 -29 0 -17 -10 -21 -10 -25 1 -7 16 -54 20 -75 7
-11 -7 -12 -12 -3 -18 14 -9 11 -44 -3 -40 -5 2 -8 8 -8 14 1 6 -5 11 -12 11
-7 0 -11 -4 -8 -9 3 -4 -3 -8 -12 -8 -10 0 -25 -7 -34 -15 -16 -14 -18 -14
-23 0 -5 10 0 15 13 15 11 0 20 5 20 10 0 13 -6 13 -40 -5 -17 -9 -33 -16 -37
-18 -4 -1 -6 -11 -5 -22 2 -16 -6 -24 -33 -35 -46 -18 -62 -37 -47 -52 8 -8 9
-15 1 -25 -8 -9 -8 -13 0 -13 6 0 11 -4 11 -8 0 -12 -50 -33 -61 -26 -12 7 11
-46 29 -68 8 -9 11 -22 7 -27 -10 -17 12 -13 29 5 21 20 21 6 1 -16 -14 -15
-14 -18 -1 -23 10 -4 18 4 25 24 5 16 12 29 15 29 3 0 2 -10 -3 -22 -11 -32
-3 -52 15 -38 10 10 12 8 9 -9 -2 -14 1 -21 11 -21 8 0 13 -4 9 -9 -3 -5 -1
-12 5 -16 5 -3 10 -2 10 4 0 7 8 7 26 1 18 -7 30 -7 39 0 8 6 17 6 29 -3 17
-12 17 -14 0 -28 -10 -7 -15 -9 -11 -2 4 6 2 15 -4 19 -8 4 -9 3 -5 -4 4 -7 3
-12 -3 -12 -6 0 -7 -7 -4 -17 5 -12 3 -14 -7 -8 -9 5 -11 4 -6 -4 4 -6 12 -9
17 -6 5 4 9 0 9 -7 0 -7 13 -26 29 -41 27 -25 31 -26 40 -10 5 10 11 16 13 13
2 -3 13 -19 24 -36 17 -23 19 -35 12 -48 -7 -12 -7 -21 1 -29 10 -10 16 1 12
26 0 4 4 7 9 7 6 0 10 -5 10 -12 0 -6 10 -3 22 8 20 16 21 17 9 1 -10 -13 -11
-21 -3 -29 8 -8 7 -19 -4 -39 -8 -16 -11 -29 -7 -29 5 0 2 -4 -6 -9 -9 -6 -6
-8 12 -8 19 -1 24 3 19 16 -5 14 -4 14 11 2 9 -7 17 -10 17 -6 0 5 3 5 7 2 3
-4 -2 -16 -12 -27 -16 -18 -16 -20 -1 -26 9 -3 13 -11 9 -18 -3 -6 0 -5 8 2
10 9 11 15 2 20 -8 5 -8 12 3 26 14 20 16 19 18 -29 2 -41 -43 -56 -78 -26
-12 10 -17 11 -11 2 6 -10 2 -11 -16 -6 -13 4 -28 13 -32 19 -6 7 -7 5 -4 -5
3 -9 -1 -26 -9 -37 -12 -17 -12 -22 1 -32 8 -7 12 -17 8 -23 -3 -6 -1 -7 6 -3
9 6 9 11 -1 24 -11 13 -10 15 10 10 12 -4 22 -2 22 3 0 14 47 -23 57 -45 8
-17 10 -17 26 7 15 23 15 27 1 41 -8 9 -11 16 -5 16 5 0 13 -5 17 -11 11 -18
14 -79 3 -79 -6 0 -7 5 -4 10 3 5 1 10 -4 10 -13 0 -14 -20 -3 -35 10 -15 30
-16 29 -2 -1 35 4 57 14 57 5 0 8 -4 5 -9 -3 -5 0 -11 8 -14 9 -4 12 -14 9
-25 -4 -16 0 -19 24 -15 15 2 34 5 41 5 6 1 12 5 12 10 0 5 -12 6 -26 4 -15
-3 -24 -2 -20 1 3 3 -3 13 -15 21 -15 10 -17 17 -9 27 8 9 4 11 -17 7 -21 -4
-25 -2 -20 12 4 9 2 16 -4 16 -6 0 -8 4 -5 9 4 5 2 11 -4 13 -6 2 -1 9 10 16
16 10 20 10 18 0 -2 -7 5 -13 14 -13 9 0 20 -3 23 -7 4 -3 -5 -5 -19 -4 -34 4
-33 0 4 -19 18 -9 28 -21 24 -27 -5 -7 -3 -8 5 -4 7 5 10 15 7 25 -5 12 -2 11
9 -3 8 -11 15 -26 15 -33 0 -7 4 -13 8 -13 5 0 14 -12 20 -26 10 -20 10 -24 0
-19 -7 4 -5 0 5 -8 10 -9 18 -19 18 -24 -2 -23 12 -44 25 -39 9 3 12 1 9 -4
-3 -6 -1 -10 5 -10 6 0 9 -3 6 -8 -8 -13 18 -37 43 -40 14 -1 26 -3 27 -5 1
-1 -1 -21 -5 -44 -5 -24 -4 -40 0 -37 5 3 9 16 9 30 0 13 4 24 9 24 5 0 8 -7
7 -15 -3 -20 63 -90 92 -97 12 -4 22 -2 22 4 0 5 5 6 10 3 8 -5 7 -11 -1 -21
-10 -12 -9 -13 6 -7 14 5 17 3 12 -10 -6 -16 3 -22 26 -18 5 1 6 -3 3 -8 -8
-12 18 -33 29 -23 5 4 5 1 1 -5 -4 -8 -2 -13 5 -13 7 0 10 -3 6 -6 -11 -11
-111 -12 -132 -2 -11 5 -7 -1 10 -15 16 -14 33 -23 37 -20 16 9 7 -19 -12 -39
-16 -17 -22 -19 -35 -8 -12 10 -15 10 -15 -1 0 -10 -3 -10 -12 -1 -7 7 -21 12
-32 12 -16 0 -18 2 -7 9 9 6 10 10 2 16 -9 5 -9 10 -1 20 8 9 4 17 -15 29 -14
9 -30 14 -35 11 -6 -3 -10 -1 -10 4 0 6 -8 11 -19 11 -10 0 -21 9 -24 20 -3
11 -1 20 4 20 6 0 4 6 -3 13 -15 16 -41 18 -35 3 17 -44 17 -54 3 -52 -20 3
-33 16 -16 16 10 0 11 3 3 11 -10 10 -5 35 13 67 4 8 34 -12 34 -24 0 -8 5
-14 11 -14 6 0 9 -6 6 -13 -8 -21 7 -37 38 -43 29 -5 29 -5 11 15 -10 11 -23
18 -27 15 -5 -3 -9 1 -9 9 0 8 -12 27 -27 43 -15 16 -26 33 -25 38 2 5 -4 4
-12 -4 -13 -10 -19 -10 -31 0 -14 11 -19 7 -16 -12 0 -5 -6 -8 -14 -8 -8 0
-15 -4 -15 -9 0 -5 -8 -12 -17 -14 -13 -3 -11 -5 6 -6 20 -1 21 -3 11 -16 -10
-12 -9 -20 4 -40 9 -14 20 -25 24 -25 12 0 33 -56 26 -74 -9 -24 -26 -8 -22
22 3 24 0 27 -22 24 -24 -4 -25 -3 -5 12 13 10 15 15 5 14 -8 -2 -15 2 -15 7
-5 35 -35 75 -57 75 -10 0 -10 2 -1 8 7 4 10 17 7 29 l-6 22 -22 -25 c-15 -18
-25 -21 -36 -14 -13 8 -12 10 3 10 22 0 22 9 0 26 -11 7 -22 9 -29 3 -7 -5
-11 -4 -11 6 0 8 4 12 8 10 11 -7 20 25 14 46 -5 14 -13 18 -31 15 -14 -3 -22
-1 -19 5 4 5 -8 9 -25 9 -22 0 -29 -4 -24 -12 4 -7 -2 -5 -14 6 -12 10 -19 23
-15 29 3 6 1 7 -6 3 -9 -6 -9 -11 0 -22 9 -11 8 -14 -5 -14 -11 0 -14 -5 -10
-12 4 -6 8 -21 10 -34 2 -19 -1 -21 -19 -14 -12 4 -21 13 -20 19 2 6 -4 8 -12
5 -19 -8 -19 -14 1 -29 14 -10 10 -12 -22 -12 -33 -1 -35 0 -14 7 21 7 11 15
-13 11 -5 -1 -6 3 -2 9 3 6 12 7 18 3 7 -4 7 0 -1 10 -12 14 -11 16 8 12 26
-5 40 24 17 37 -10 5 -14 15 -10 26 6 15 5 15 -11 3 -15 -12 -19 -12 -34 3
-16 16 -16 18 2 31 10 8 23 12 27 9 5 -3 17 0 28 5 14 8 22 7 31 -4 10 -13 9
-15 -10 -15 -44 0 -14 -9 50 -15 36 -4 71 -8 79 -11 11 -4 12 -2 1 11 -17 21
-5 19 16 -2 17 -17 17 -17 12 3 -5 18 -3 20 16 11 12 -6 27 -21 33 -34 10 -20
8 -23 -8 -23 -11 0 -19 -7 -19 -17 0 -9 3 -13 7 -10 3 4 11 -1 18 -10 9 -13
14 -13 20 -3 6 9 4 11 -6 5 -8 -5 -11 -4 -6 1 5 5 14 9 20 9 7 0 11 8 9 18 -2
11 2 15 13 11 8 -3 13 -9 10 -13 -2 -4 10 -8 28 -8 18 0 26 2 20 4 -9 3 -10
10 -3 24 8 15 7 17 -5 13 -8 -3 -12 -10 -9 -15 6 -10 1 -11 -20 -3 -8 3 -13
11 -10 18 3 7 -2 19 -11 26 -8 7 -15 9 -15 5 0 -5 -9 0 -20 10 -11 10 -18 21
-15 24 2 4 -13 6 -33 4 -20 -1 -29 0 -19 3 25 8 22 51 -4 59 -15 5 -18 10 -9
15 8 5 7 9 -5 14 -9 3 -22 3 -28 -1 -7 -4 -6 1 2 11 12 15 12 17 0 14 -8 -2
-21 -11 -30 -20 -14 -15 -16 -15 -27 3 -7 11 -17 17 -22 14 -20 -13 -30 6 -15
29 17 25 9 42 -11 25 -8 -7 -14 -7 -19 1 -4 6 -3 9 2 8 4 -2 9 2 10 7 1 6 -4
9 -11 7 -15 -3 -41 52 -39 81 1 12 -3 17 -13 13 -8 -3 -14 0 -14 6 0 6 -3 9
-6 5 -3 -3 -17 6 -31 21 -13 15 -22 21 -18 15 11 -22 -4 -14 -15 7 -8 16 -7
24 4 36 11 10 13 21 7 37 -5 12 -8 24 -8 27 0 3 -4 14 -11 25 -10 17 -11 18
-12 3 0 -10 6 -18 13 -19 9 0 9 -2 -1 -6 -10 -4 -10 -8 0 -21 10 -12 7 -12
-14 2 -31 20 -33 27 -15 45 10 10 9 11 -6 5 -9 -3 -24 -1 -32 6 -8 6 -18 9
-22 7 -5 -3 -9 3 -9 14 0 12 5 18 14 14 8 -3 19 -2 25 2 12 8 18 9 38 12 5 0
8 5 4 11 -4 6 -15 6 -31 0 -17 -7 -23 -7 -19 0 4 6 1 18 -7 27 -9 12 -9 15 0
9 28 -17 9 3 -32 32 -24 17 -47 28 -51 24 -5 -4 -5 -1 -1 6 6 10 11 10 22 1 8
-6 17 -9 21 -5 3 3 1 6 -5 6 -7 0 -12 7 -12 15 0 8 5 15 11 15 5 0 7 5 4 11
-5 6 -12 4 -20 -7 -11 -16 -15 -15 -43 14 -17 18 -37 32 -43 32 -6 0 -9 9 -6
20 7 27 -7 25 -26 -2 -16 -23 -16 -23 -12 -1 4 23 -25 56 -46 51 -7 -2 -13 2
-14 7 -1 18 -14 32 -35 38 -13 3 -18 1 -14 -6 3 -7 -2 -3 -10 7 -9 11 -16 23
-16 28 0 4 -4 8 -9 8 -6 0 -6 -12 1 -31 6 -16 8 -33 4 -36 -3 -4 -6 -1 -6 5 0
6 -5 23 -12 39 -6 15 -11 31 -10 36 1 4 -2 7 -8 7 -5 0 -7 8 -3 18 5 14 3 13
-10 -3 -11 -13 -16 -15 -17 -6 0 7 -6 11 -14 8 -10 -4 -13 -1 -9 9 4 11 9 12
19 3 8 -6 14 -8 14 -4 0 10 -53 51 -62 48 -4 -2 -5 4 -2 12 4 8 1 15 -5 15 -6
0 -11 -5 -11 -12 0 -6 -3 -8 -7 -4 -4 4 -8 15 -8 24 0 13 -9 17 -37 17 -21 0
-38 -3 -38 -7 0 -5 -21 -8 -47 -8 -132 3 -179 -3 -168 -21 6 -9 -16 -4 -52 13
-12 6 -20 15 -16 21 3 5 -5 4 -17 -3 -13 -7 -20 -8 -16 -2 8 13 -22 23 -51 17
-13 -2 -28 2 -35 9 -7 7 -36 13 -64 15 -42 1 -57 -3 -79 -22 -25 -21 -26 -26
-15 -46 10 -19 10 -25 -1 -32 -7 -4 -17 -5 -21 -3 -5 3 -11 -1 -14 -9 -3 -8
-23 -17 -45 -21 -21 -3 -47 -15 -57 -26 -9 -11 -28 -31 -41 -45 -15 -17 -22
-35 -19 -50 3 -14 0 -23 -6 -22 -5 1 -10 -2 -11 -8 0 -5 -12 -32 -25 -60 -22
-43 -26 -64 -21 -97 1 -4 14 -3 29 3 39 13 82 -3 82 -31 0 -17 -3 -19 -17 -12
-11 7 -23 6 -35 -2 -15 -9 -25 -7 -49 7 -26 14 -30 15 -26 2 6 -15 -29 -42
-47 -37 -5 2 -17 -5 -27 -14 -11 -9 -19 -14 -19 -10 0 4 -6 1 -14 -6 -10 -9
-11 -15 -2 -20 7 -5 3 -13 -13 -24 -18 -13 -20 -18 -10 -25 11 -6 10 -9 -4
-15 -9 -3 -14 -11 -10 -17 3 -6 1 -7 -5 -3 -6 4 -8 14 -5 23 4 11 2 14 -8 11
-8 -3 -13 -11 -11 -18 2 -8 -3 -10 -14 -6 -14 5 -15 4 -4 -9 7 -9 10 -18 6
-22 -3 -3 -6 -1 -6 6 0 7 -7 11 -15 8 -11 -5 -15 8 -17 70 -3 85 5 76 -88 86
-76 8 -77 10 -85 100 -4 45 -8 250 -8 455 l-1 373 27 26 26 27 54 -17 c30 -9
59 -17 65 -17 9 0 12 253 12 1025 l0 1025 1370 0 1370 0 0 -1301z m1017 565
c-1 10 3 20 8 22 20 7 189 -155 215 -206 19 -35 79 -90 100 -90 6 0 20 -15 31
-34 11 -19 26 -37 34 -40 8 -3 15 -12 15 -20 0 -8 11 -23 24 -33 21 -17 52
-83 84 -183 6 -19 14 -84 17 -145 7 -145 13 -172 36 -178 25 -7 31 5 24 45 -3
18 -7 68 -8 110 -3 73 -2 76 16 66 11 -5 33 -26 50 -45 23 -26 32 -31 39 -21
6 10 10 10 18 -2 11 -15 8 -57 -6 -99 -7 -23 -8 -24 -15 -5 -7 17 -8 17 -8 -4
-1 -12 -8 -25 -16 -29 -9 -3 -15 -13 -14 -22 3 -29 -1 -34 -15 -22 -12 10 -13
8 -9 -11 4 -13 15 -35 26 -50 24 -32 53 -47 43 -22 -5 13 0 12 30 -5 19 -12
32 -16 29 -11 -3 6 -3 20 1 32 6 21 7 21 22 2 14 -18 14 -18 9 3 -4 19 -2 21
12 13 12 -6 18 -5 18 3 1 19 43 93 43 77 1 -11 6 -8 19 7 10 12 21 19 25 16 3
-4 6 -2 6 4 0 6 -7 14 -16 17 -10 4 -14 14 -11 25 2 10 1 24 -3 31 -5 7 -3 19
3 25 8 9 14 9 19 2 7 -12 30 8 41 37 10 25 -1 56 -17 50 -7 -3 -20 1 -27 9 -8
7 -19 12 -26 10 -6 -2 -17 9 -24 25 -7 17 -18 28 -25 25 -7 -2 -14 11 -19 34
-4 24 -3 39 4 41 6 2 11 16 11 30 0 27 1 27 17 -6 18 -38 24 -36 28 10 2 25 8
34 23 36 21 3 99 -40 118 -66 6 -8 16 -12 22 -8 5 3 13 0 15 -6 3 -7 6 0 6 15
1 15 10 55 22 89 24 73 69 288 69 334 0 44 15 51 33 14 14 -27 14 -30 -1 -30
-11 0 -13 -3 -5 -8 6 -4 14 -25 18 -46 5 -26 4 -37 -3 -32 -6 4 -8 -2 -5 -14
3 -12 0 -20 -7 -20 -9 0 -10 -11 -5 -36 4 -24 3 -34 -4 -29 -14 8 -14 2 1 -30
6 -14 15 -25 20 -25 5 0 5 -8 0 -17 -10 -20 -5 -46 7 -38 5 2 7 -6 6 -18 -4
-36 -4 -37 -16 -37 -8 0 -7 5 1 15 7 9 10 18 6 22 -3 3 -6 1 -6 -6 0 -8 -6
-11 -16 -7 -15 6 -15 4 0 -19 9 -14 13 -25 8 -25 -5 0 -9 -13 -8 -30 1 -22 6
-30 20 -30 14 0 16 -3 7 -14 -6 -7 -9 -21 -5 -30 4 -12 2 -15 -9 -11 -16 7
-31 -20 -20 -38 4 -6 0 -8 -10 -4 -12 4 -14 2 -10 -10 4 -9 2 -14 -3 -10 -5 3
-16 -8 -23 -25 -10 -22 -18 -28 -33 -25 -16 5 -17 3 -7 -9 10 -12 7 -20 -16
-44 -15 -15 -24 -33 -21 -39 4 -6 2 -11 -4 -11 -6 0 -9 -3 -6 -8 2 -4 -4 -25
-14 -47 -10 -22 -16 -43 -14 -46 2 -4 7 -31 10 -61 3 -29 8 -57 12 -62 3 -5 0
-6 -7 -2 -8 6 -11 -3 -8 -29 3 -28 1 -35 -9 -31 -20 8 -44 -4 -44 -21 0 -10
-6 -12 -20 -8 -11 3 -20 3 -20 -2 0 -5 -19 -8 -42 -6 -24 1 -56 -3 -71 -9 -23
-9 -31 -8 -39 3 -7 10 -8 8 -5 -9 5 -20 3 -21 -10 -11 -11 10 -16 10 -22 1 -5
-9 -12 -7 -25 7 -11 12 -14 21 -7 26 8 4 7 15 -2 33 -8 15 -19 47 -27 72 -13
46 -41 80 -66 80 -8 0 -14 -8 -14 -17 0 -9 -3 -13 -7 -10 -4 4 -19 -5 -35 -20
-15 -15 -28 -23 -28 -20 0 4 -10 2 -22 -5 -13 -7 -25 -13 -28 -14 -40 -11 -68
-30 -78 -53 -11 -25 -17 -28 -56 -26 -23 1 -48 5 -54 9 -6 3 -13 -3 -17 -14
-8 -24 -18 -25 -35 -5 -6 8 -20 17 -30 20 -10 3 -35 21 -55 39 -26 24 -32 35
-22 39 8 3 20 1 28 -4 8 -5 23 -9 34 -9 17 0 17 2 5 10 -11 7 -12 10 -2 10 9
0 11 7 7 21 -6 19 -4 21 19 15 29 -7 34 5 11 24 -8 7 -15 23 -15 36 0 22 17
30 52 25 4 0 19 6 33 13 31 16 20 27 -32 33 -41 4 -99 38 -84 48 7 3 33 5 59
3 37 -2 47 0 47 12 0 10 -8 14 -23 12 -21 -2 -22 -1 -8 14 19 19 20 25 4 23
-7 -1 -28 -1 -45 0 -27 1 -33 5 -33 23 0 17 3 19 12 10 7 -7 19 -12 28 -11 10
0 11 2 3 6 -32 13 -6 43 38 43 10 0 19 5 19 11 0 6 -15 10 -32 9 -69 -4 -94
20 -44 40 18 8 19 9 2 9 -15 1 -17 6 -12 33 3 18 11 35 17 39 8 5 8 9 -1 14
-6 4 -9 13 -6 21 3 7 1 16 -4 19 -6 4 -10 15 -10 25 0 10 -7 31 -15 47 -17 34
-67 143 -89 197 -9 21 -16 46 -16 56 0 9 -9 29 -20 43 -11 14 -20 30 -20 37 0
6 -12 27 -26 45 -18 25 -24 40 -19 56 7 22 8 22 21 -7 8 -17 12 -21 11 -10z
m-6457 -154 c0 -20 3 -40 6 -43 4 -4 8 -19 9 -35 3 -40 33 -82 58 -82 12 0 40
21 68 51 34 37 53 50 66 46 59 -19 124 -45 135 -54 19 -15 210 -99 303 -134
97 -37 125 -50 145 -65 8 -6 76 -39 150 -72 103 -47 136 -66 138 -81 2 -12 8
-21 13 -21 5 0 9 -13 9 -30 0 -16 4 -30 10 -30 5 0 13 -12 16 -27 11 -47 16
-47 59 3 l42 48 114 -48 c63 -27 155 -68 204 -91 50 -23 104 -47 121 -54 l31
-12 6 -132 c22 -451 47 -1190 41 -1196 -3 -3 -22 -4 -43 -2 -24 1 -44 -3 -54
-13 -9 -9 -22 -16 -31 -16 -15 0 -43 -52 -89 -165 l-25 -60 19 -50 c24 -63 99
-313 99 -331 0 -8 -8 -14 -17 -14 -15 0 -28 34 -67 176 -49 174 -50 175 -68
152 -15 -20 -18 -45 -18 -175 0 -127 -3 -153 -14 -153 -8 0 -18 5 -21 10 -4 6
-3 143 1 305 7 286 7 295 27 295 19 0 20 -4 14 -121 -3 -67 -4 -119 -1 -117 2
3 26 60 53 126 39 100 45 122 31 122 -9 0 -22 6 -29 13 -12 12 -16 14 -51 16
-12 1 -17 6 -14 15 4 9 -5 15 -27 18 -41 6 -69 -1 -69 -17 0 -8 -10 -11 -27
-8 -16 3 -37 5 -48 6 -11 1 -26 6 -32 10 -9 6 -13 2 -13 -13 0 -14 -4 -19 -12
-13 -13 8 -43 13 -90 16 -16 1 -28 8 -28 15 0 7 -5 10 -11 7 -6 -4 -17 1 -24
11 -14 18 -14 18 -15 -3 0 -12 -5 -23 -12 -25 -19 -7 -95 16 -116 35 -10 9
-29 17 -42 17 -32 0 -103 22 -118 37 -18 17 -52 17 -52 -1 0 -7 -10 -16 -22
-19 -30 -8 -68 2 -68 17 0 15 -30 17 -48 3 -9 -7 -22 -4 -44 13 -24 18 -35 20
-48 12 -12 -7 -32 -7 -64 0 -40 8 -49 7 -59 -6 -11 -16 -15 -16 -51 -1 -29 13
-45 14 -62 6 -18 -8 -24 -6 -28 6 -6 14 -8 14 -25 -1 -15 -13 -20 -14 -24 -4
-4 8 -6 7 -6 -4 -1 -19 -4 -20 -48 -22 -16 0 -33 -5 -40 -11 -7 -5 -19 -16
-28 -23 -8 -7 -15 -10 -15 -7 0 3 -9 1 -20 -5 -11 -6 -18 -15 -15 -21 4 -5 -1
-9 -9 -9 -14 0 -16 105 -16 1046 0 929 2 1045 15 1034 8 -7 15 -29 15 -50z
m6301 -1863 c-5 -43 -4 -61 7 -69 10 -9 16 -8 24 3 8 11 9 11 4 -3 -3 -10 -8
-24 -11 -31 -4 -10 3 -13 26 -12 25 2 29 0 17 -9 -40 -31 -64 -54 -76 -74 -12
-22 -12 -22 8 -12 15 8 20 8 21 -2 0 -10 2 -10 6 0 2 6 9 12 14 12 4 0 6 -7 3
-15 -4 -10 -13 -13 -25 -10 -14 5 -20 0 -25 -22 -3 -15 -7 -34 -10 -41 -3 -10
1 -10 19 -1 20 11 21 11 8 -4 -14 -18 -37 -23 -43 -9 -1 4 -14 -3 -27 -15
l-24 -22 31 2 c16 1 28 5 25 10 -2 4 -2 7 1 7 3 0 10 -10 17 -21 9 -17 8 -23
-2 -30 -19 -12 -32 -11 -24 1 3 5 0 7 -9 4 -13 -5 -25 -23 -32 -49 -1 -5 -5
-18 -9 -27 -11 -27 1 -22 39 17 38 38 53 43 53 20 0 -8 -4 -12 -9 -9 -4 3 -8
-2 -8 -10 0 -10 -9 -16 -25 -16 -16 0 -25 -6 -25 -15 0 -18 -5 -19 -89 -19
-60 -1 -64 -3 -68 -25 -2 -13 -11 -30 -21 -37 -9 -7 -12 -14 -7 -14 6 0 3 -5
-5 -10 -20 -13 -60 -13 -60 0 0 6 8 10 17 10 9 0 14 3 10 6 -3 3 -14 3 -26 -1
-14 -4 -18 -12 -15 -31 3 -16 1 -23 -6 -19 -5 3 -14 -5 -20 -19 -5 -14 -14
-26 -19 -26 -11 0 -83 -71 -77 -77 7 -7 36 9 31 17 -3 5 -1 11 5 15 5 3 10 -3
10 -14 0 -23 31 -36 66 -27 29 8 34 -17 7 -33 -10 -6 -15 -11 -11 -11 4 0 23
10 43 21 35 21 36 21 51 3 9 -11 13 -13 9 -6 -4 8 4 14 24 18 17 4 36 13 42
20 9 11 15 11 25 3 8 -6 11 -15 9 -20 -3 -4 5 -6 17 -4 23 4 23 4 3 -11 -17
-12 -17 -16 -6 -24 11 -6 7 -12 -19 -22 -28 -12 -31 -15 -17 -21 11 -4 16 -3
12 3 -3 6 3 10 14 10 16 0 20 -6 19 -23 -2 -19 -7 -23 -28 -20 -14 2 -18 0
-10 -3 18 -9 -62 -34 -107 -34 -17 0 -34 -4 -37 -8 -4 -8 55 -7 134 1 16 2 34
-6 48 -20 16 -16 18 -23 8 -23 -9 0 -12 -7 -9 -20 5 -19 22 -23 104 -24 8 0
21 -6 28 -13 9 -10 8 -13 -7 -13 -10 0 -27 -6 -37 -14 -17 -12 -12 -14 43 -11
63 3 74 -3 47 -25 -12 -10 -28 -10 -75 -1 -69 14 -138 12 -144 -4 -3 -8 15
-10 56 -7 36 3 58 1 55 -5 -3 -5 4 -10 16 -10 18 -2 19 0 7 8 -13 9 -12 10 2
6 9 -3 33 -9 52 -13 20 -3 36 -10 36 -15 0 -5 8 -9 18 -9 14 0 15 2 2 10 -26
16 -3 22 39 9 46 -14 52 -26 18 -34 -28 -7 -110 10 -115 24 -2 6 -11 11 -20
11 -15 0 -15 -2 -2 -11 13 -10 13 -10 0 -6 -8 2 -26 0 -40 -6 -14 -5 -36 -9
-49 -8 -28 3 -20 -15 13 -30 19 -9 19 -9 -4 -3 -77 18 -73 18 -61 -4 6 -12 26
-25 43 -30 18 -4 27 -11 21 -15 -6 -4 -27 5 -48 19 -43 29 -103 45 -90 24 5
-9 4 -11 -3 -6 -16 10 -54 -12 -45 -26 3 -7 -8 -2 -25 11 -30 21 -37 20 -32
-4 1 -5 -7 -2 -17 7 -10 8 -29 19 -43 22 l-25 7 25 -20 c18 -15 21 -21 9 -21
-9 0 -19 3 -23 7 -4 4 -28 8 -54 9 -59 2 -57 1 -42 19 16 19 4 35 -26 35 -13
0 -24 6 -25 13 0 10 -2 10 -6 0 -6 -16 -35 -17 -51 -1 -13 13 -15 5 -6 -29 3
-12 13 -24 21 -27 11 -5 13 -2 9 10 -5 13 0 15 32 10 20 -3 37 -5 37 -6 1 0 1
-8 2 -18 2 -19 -32 -28 -42 -12 -3 6 -15 6 -29 0 -25 -9 -48 4 -40 24 7 18
-34 56 -60 56 -12 0 -26 3 -30 8 -4 4 -12 7 -18 7 -6 0 -16 8 -22 18 -9 15 -6
23 19 44 17 14 25 22 18 19 -12 -7 -4 15 22 54 5 8 10 22 10 30 0 8 5 14 10
13 6 -1 11 10 12 24 0 14 6 29 13 33 8 5 2 12 -18 21 -21 9 -27 16 -19 21 8 5
3 8 -11 8 -13 0 -20 4 -17 10 3 6 1 10 -5 10 -6 0 -8 5 -5 11 4 6 1 10 -6 8
-8 -1 -23 -1 -34 0 -20 2 -20 2 -1 16 16 12 22 12 28 2 6 -9 8 -9 8 1 0 6 7
12 15 12 8 0 15 5 15 10 0 6 -7 10 -15 10 -8 0 -15 5 -15 11 0 6 -6 9 -12 6
-7 -2 -28 0 -46 5 -20 6 -38 6 -45 0 -7 -5 -25 -8 -42 -8 -25 1 -30 5 -30 26
0 20 -5 25 -27 26 -26 1 -91 35 -89 48 4 24 -2 32 -21 32 -14 -1 -23 5 -23 14
-1 25 -19 48 -40 52 -26 4 -55 29 -48 41 3 4 -3 17 -13 27 -34 34 -44 49 -44
65 0 10 -5 13 -12 9 -8 -5 -9 -2 -4 11 5 15 4 16 -9 5 -14 -12 -13 -15 5 -32
11 -10 20 -25 20 -33 0 -8 12 -22 26 -32 23 -15 24 -18 10 -29 -15 -10 -14
-12 7 -18 16 -4 23 -12 23 -28 -1 -13 5 -23 12 -24 6 -1 17 -2 22 -3 6 0 10
-6 10 -12 0 -6 -9 -8 -22 -4 -13 4 -25 8 -28 9 -3 0 -6 -3 -7 -9 -1 -5 4 -9
11 -7 7 1 20 -5 27 -15 8 -9 9 -14 2 -10 -6 4 -14 3 -18 -3 -3 -5 -2 -10 3
-10 6 0 15 -13 21 -30 5 -16 15 -30 21 -30 6 0 9 -4 5 -9 -3 -5 0 -13 6 -17 8
-4 3 -11 -12 -20 -21 -11 -22 -13 -6 -19 9 -4 17 -12 17 -18 0 -8 -3 -8 -11 0
-19 19 -39 4 -29 -21 6 -17 4 -25 -10 -34 -17 -10 -18 -8 -13 22 4 27 1 36
-17 49 -20 14 -20 44 0 32 5 -3 12 0 15 6 4 5 14 8 24 5 14 -5 13 -4 -1 8 -19
14 -25 32 -8 21 6 -3 7 1 4 9 -3 9 -9 15 -12 14 -26 -3 -34 3 -23 16 9 11 9
16 0 22 -8 4 -9 3 -5 -4 4 -7 3 -12 -3 -12 -6 0 -15 10 -22 22 -10 18 -9 20 5
15 20 -8 21 6 1 23 -12 10 -15 10 -15 0 0 -8 -3 -10 -6 -7 -10 9 17 39 30 34
7 -3 12 4 12 14 0 12 -5 18 -13 15 -7 -3 -14 0 -14 7 -1 7 -2 17 -4 22 -1 6
-3 16 -3 22 -1 7 -7 12 -13 10 -6 -1 -19 13 -28 30 -9 18 -20 33 -24 33 -5 0
-5 -4 -2 -10 3 -5 1 -10 -4 -10 -6 0 -11 5 -11 10 0 6 -7 10 -15 10 -8 0 -15
3 -15 8 0 4 -16 25 -35 46 -20 21 -43 52 -52 67 -10 16 -21 29 -26 29 -4 0 -5
-5 -1 -12 5 -8 1 -9 -12 -5 -18 7 -18 7 0 -7 10 -8 16 -19 13 -23 -3 -5 -1
-15 5 -23 8 -12 9 -12 4 3 -3 9 -1 17 4 17 6 0 10 -9 10 -19 0 -11 16 -32 35
-47 19 -14 35 -33 35 -41 0 -8 4 -12 9 -9 5 4 11 1 13 -4 2 -6 12 -12 23 -14
13 -2 20 -10 19 -25 -1 -11 3 -21 8 -21 5 0 6 -4 3 -10 -3 -5 1 -20 9 -32 12
-17 16 -19 16 -6 0 9 -6 19 -12 21 -8 4 -7 6 3 6 22 1 43 -25 35 -44 -3 -8
-12 -12 -20 -9 -8 3 -17 1 -21 -5 -3 -6 -1 -11 5 -11 6 0 10 -8 8 -17 -2 -12
2 -17 12 -15 8 2 12 0 8 -4 -4 -4 -2 -14 4 -23 8 -10 4 -9 -10 3 -17 14 -22
16 -22 5 0 -8 9 -20 20 -27 12 -7 18 -18 14 -23 -4 -6 0 -15 7 -20 9 -6 10 -9
2 -9 -6 0 -18 7 -26 15 -8 8 -18 11 -22 7 -5 -4 -5 -1 -1 6 5 9 1 15 -14 19
-12 3 -19 11 -16 18 7 19 -26 46 -43 35 -24 -14 -42 -1 -29 20 7 10 16 16 22
13 5 -3 6 -1 2 5 -13 22 13 12 28 -10 9 -12 16 -18 16 -13 0 6 5 2 11 -7 5
-10 14 -18 20 -18 6 0 5 7 -1 18 -15 26 -34 75 -34 91 -1 8 -8 16 -16 18 -12
4 -12 3 -1 -5 10 -7 10 -11 1 -17 -7 -4 -13 1 -17 14 -3 11 -9 18 -14 16 -4
-3 -17 3 -28 14 -11 11 -23 16 -27 13 -4 -4 -5 0 -1 10 6 18 -17 51 -81 116
-23 24 -39 49 -36 54 4 7 2 8 -5 4 -6 -4 -8 -13 -4 -19 3 -7 -2 -5 -13 4 -10
9 -26 14 -34 11 -11 -4 -10 0 3 13 20 19 18 36 -4 44 -12 4 -12 2 0 -13 13
-16 12 -16 -14 -4 -22 10 -24 14 -12 16 10 2 15 8 11 13 -3 5 -11 6 -17 3 -9
-5 -9 -4 -1 5 9 10 17 10 36 -3 14 -9 28 -13 31 -9 4 3 7 2 7 -4 0 -5 11 -15
25 -21 30 -14 34 2 5 18 -11 6 -18 15 -15 21 4 5 1 9 -5 9 -6 0 -9 4 -6 9 4 5
3 11 -1 14 -5 2 -3 3 4 1 6 -1 14 0 17 3 7 7 -16 30 -36 34 -10 3 -4 15 25 44
22 22 37 35 33 28 -4 -7 5 -19 21 -30 35 -22 83 -73 83 -89 0 -6 7 -17 15 -24
8 -7 12 -17 8 -24 -3 -6 -3 -8 2 -4 10 9 61 -17 68 -35 3 -8 -1 -14 -9 -14 -9
0 -13 6 -9 15 3 10 0 12 -10 8 -8 -3 -15 -1 -15 5 0 6 -6 9 -14 6 -17 -7 -39
16 -28 28 4 5 1 5 -6 0 -10 -5 -11 -10 -3 -18 18 -18 13 -31 -6 -16 -15 13
-15 12 -4 -8 6 -13 20 -27 31 -33 11 -6 17 -16 14 -23 -3 -8 4 -13 17 -14 22
-2 41 -21 33 -34 -5 -8 27 -22 34 -14 3 3 -2 21 -11 40 -9 19 -13 36 -8 39 4
3 14 -10 21 -29 8 -19 17 -35 21 -35 4 0 16 -14 27 -31 15 -24 20 -27 25 -15
4 9 2 16 -3 16 -6 0 -10 5 -10 10 0 6 8 5 20 -2 11 -7 15 -15 9 -17 -6 -2 -1
-10 10 -18 12 -8 25 -12 30 -8 5 3 12 2 15 -3 2 -4 -6 -9 -19 -10 -13 -1 -27
3 -30 8 -4 6 -11 8 -16 4 -6 -3 15 -30 45 -59 31 -29 56 -58 56 -64 0 -6 7
-14 15 -17 8 -4 15 -12 15 -20 0 -7 6 -11 14 -8 12 5 30 -27 27 -48 0 -4 6 -5
14 -2 8 4 15 1 15 -5 0 -6 7 -8 15 -5 8 4 15 1 15 -5 0 -6 6 -11 14 -11 8 0
21 -9 29 -21 15 -20 15 -20 35 5 11 14 23 26 27 26 3 0 21 11 39 25 18 14 36
25 39 25 4 0 55 35 113 78 114 83 157 114 304 213 156 106 176 122 206 166 16
24 34 43 41 43 6 0 16 12 22 28 10 23 54 92 57 88 1 0 -2 -27 -5 -59z m1908
-17 c4 0 9 -34 10 -76 2 -58 -1 -74 -10 -68 -9 5 -10 2 -4 -12 14 -30 19 -204
6 -204 -6 0 -8 -6 -5 -14 4 -10 -1 -14 -14 -13 -18 1 -19 10 -22 147 -1 80 -3
175 -4 212 -1 64 0 66 17 47 10 -10 21 -19 26 -19z m1531 -477 c0 -313 -4
-353 -31 -353 -13 0 -21 12 -29 43 -7 23 -29 105 -51 182 -21 77 -45 167 -53
200 -14 58 -14 51 -15 -177 -1 -205 -3 -238 -16 -238 -16 0 -16 6 -19 450 l-1
145 24 0 c22 0 26 -7 48 -105 13 -58 40 -170 62 -250 l38 -145 7 117 c4 64 7
179 6 255 -2 167 -3 153 15 153 13 0 15 -37 15 -277z m-11586 60 c4 -115 9
-245 12 -290 l6 -83 34 0 c24 0 34 -5 34 -15 0 -11 -13 -15 -54 -15 l-54 0 -6
153 c-17 452 -17 457 3 457 17 0 19 -15 25 -207z m8676 90 c0 -115 9 -284 16
-292 4 -5 35 26 34 35 0 4 10 8 22 9 13 1 33 5 45 9 17 5 20 3 17 -11 -3 -11
3 -23 17 -31 l21 -14 -3 203 c-4 188 -3 204 14 207 15 3 17 -8 17 -131 0 -74
3 -182 7 -242 5 -87 8 -105 18 -91 15 19 75 34 75 17 0 -6 5 -11 11 -11 8 0 8
4 0 14 -9 11 -9 15 1 20 7 3 3 3 -10 0 -13 -3 -28 1 -38 10 -8 9 -13 16 -11
16 3 0 13 3 23 7 12 5 15 3 9 -6 -6 -10 -3 -11 13 -2 15 8 24 6 41 -8 11 -10
17 -22 13 -26 -4 -5 -2 -5 4 -2 6 4 19 -2 29 -13 10 -11 24 -20 32 -20 7 0 13
-5 13 -10 0 -6 -15 -4 -36 5 -51 21 -66 18 -24 -5 19 -11 31 -19 26 -20 -4 0
2 -9 15 -20 13 -10 20 -19 15 -20 -5 0 -1 -10 10 -22 l19 -21 -33 19 c-19 10
-38 27 -43 37 -5 9 -15 17 -21 17 -7 0 7 -18 31 -39 45 -41 37 -50 -15 -17
-23 15 -20 9 15 -27 l44 -46 -39 5 c-21 2 -52 8 -69 13 -16 5 -77 11 -135 14
-66 3 -92 2 -70 -3 19 -5 49 -16 65 -24 28 -15 22 -16 -125 -17 -85 0 -173 -3
-195 -7 -26 -5 0 -8 78 -7 93 0 120 -3 127 -15 5 -8 8 -15 7 -16 -1 -1 -82 -5
-180 -8 -169 -7 -179 -6 -175 11 2 14 15 19 53 23 l50 5 -50 6 c-27 4 -63 12
-80 19 l-30 13 27 7 c15 5 50 8 79 8 28 1 54 3 57 6 3 3 -20 6 -51 6 -44 0
-57 3 -57 15 0 9 9 15 23 16 l22 0 -22 11 c-31 15 -29 28 5 29 15 1 20 3 10 6
-22 6 -12 33 12 33 10 0 20 -7 24 -15 7 -19 26 -20 26 -1 0 19 -6 22 -57 31
l-42 7 -11 -60 c-14 -70 -23 -87 -43 -79 -12 5 -11 19 9 104 13 54 35 162 49
241 15 79 28 149 30 155 2 7 9 31 15 55 8 30 16 42 29 42 24 0 27 -13 47 -265
9 -115 20 -219 24 -230 6 -12 7 2 3 35 -5 52 -3 57 21 70 14 7 26 16 26 20 0
4 12 5 26 2 l26 -5 -2 174 c-2 219 -3 209 15 209 12 0 15 -20 15 -117z m-8422
95 c-3 -7 -17 -14 -31 -16 l-27 -3 0 -120 0 -119 31 0 c38 0 35 -24 -4 -28
l-27 -3 0 -135 0 -134 45 0 c34 0 45 -4 45 -15 0 -13 -11 -15 -62 -13 l-63 3
-3 285 c-1 157 0 290 3 297 6 18 98 18 93 1z m295 -3 c1 -5 -19 -11 -45 -13
l-48 -3 0 -285 c0 -267 -1 -285 -17 -282 -17 3 -18 26 -21 285 l-2 282 -52 3
c-31 2 -53 8 -56 16 -3 10 22 12 117 10 70 -2 122 -7 124 -13z m3064 -3 c-1
-14 -7 -17 -29 -14 l-28 4 -1 -68 c-1 -38 -3 -93 -5 -121 -4 -53 -4 -53 26
-53 20 0 30 -5 30 -15 0 -10 -10 -15 -31 -15 l-32 0 7 -46 c3 -26 6 -86 6
-135 l0 -88 42 -3 c23 -2 43 -9 46 -15 3 -10 -14 -13 -62 -13 l-66 0 0 300 0
300 49 0 c42 0 50 -3 48 -18z m2221 6 c-3 -7 -14 -14 -26 -16 -20 -3 -21 -8
-16 -42 4 -22 7 -62 8 -90 0 -27 6 -50 11 -50 6 1 9 9 7 20 -2 10 2 22 9 26 7
4 10 2 7 -7 -3 -8 -1 -24 3 -36 5 -13 4 -33 -1 -45 -9 -23 -9 -23 -9 3 -1 17
-7 26 -17 26 -15 0 -16 -11 -10 -90 3 -50 6 -127 6 -172 0 -80 1 -83 25 -87
13 -3 26 0 29 6 2 6 5 -8 5 -31 1 -24 5 -43 10 -43 5 0 12 -8 15 -17 3 -10 3
0 0 22 -3 30 -2 36 6 25 6 -9 8 -38 4 -72 l-6 -57 46 -21 c36 -18 51 -20 73
-12 27 10 26 10 -15 11 -58 1 -52 26 5 26 23 0 39 3 37 6 -2 4 4 10 13 13 14
6 15 9 3 16 -10 6 -11 12 -3 22 6 7 9 23 7 35 -2 12 1 25 6 28 6 4 10 -6 10
-22 0 -15 4 -44 10 -63 10 -33 4 -107 -8 -96 -3 3 -12 1 -19 -6 -8 -6 -40 -22
-70 -34 -68 -28 -104 -23 -138 18 -21 25 -25 38 -21 76 2 26 5 52 6 57 1 6 2
12 0 15 -8 22 -8 50 0 50 6 0 10 5 10 10 0 6 -25 10 -55 10 -42 0 -61 5 -80
22 -14 12 -25 26 -25 32 0 6 5 3 11 -6 5 -10 17 -18 25 -18 8 0 13 4 9 9 -3 5
0 13 6 17 7 4 9 3 6 -3 -4 -6 0 -14 9 -17 24 -9 26 -8 19 14 -5 16 -15 269
-14 370 0 14 1 39 1 55 0 91 -1 98 -22 92 -24 -6 -38 12 -19 24 23 14 121 11
117 -3z m299 -6 c-10 -10 -14 -23 -10 -28 4 -5 1 -3 -7 4 -8 6 -27 12 -42 12
-27 0 -28 -2 -28 -53 0 -30 7 -68 15 -85 21 -41 31 -127 16 -136 -6 -4 -9 -2
-5 7 3 8 -2 17 -10 20 -13 5 -16 -2 -16 -34 0 -42 16 -83 28 -75 5 3 14 0 22
-5 12 -7 11 -8 -5 -6 -11 1 -26 6 -32 10 -10 6 -13 -16 -13 -102 0 -104 -1
-111 -20 -111 -19 0 -20 7 -20 209 l0 209 -25 6 c-14 4 -30 4 -35 1 -6 -4 -10
6 -10 22 0 22 2 25 10 13 7 -11 10 -12 10 -2 0 14 24 42 35 42 4 0 5 -9 2 -19
-2 -10 -1 -25 4 -32 4 -8 8 15 8 53 l0 67 -51 3 c-30 2 -53 8 -56 16 -3 9 26
12 124 12 123 0 127 -1 111 -18z m5143 3 c0 -9 -9 -15 -25 -15 l-25 0 5 -107
c3 -60 8 -133 10 -163 2 -30 4 -103 5 -162 0 -102 1 -107 22 -110 12 -2 23 -9
26 -15 3 -10 -14 -13 -63 -13 -49 0 -66 3 -63 13 3 6 15 14 28 15 22 4 22 5
16 100 -3 54 -8 174 -12 269 -6 159 -8 172 -26 176 -37 10 -7 27 48 27 41 0
54 -4 54 -15z m-3927 -179 c7 -7 22 -12 35 -11 12 1 22 -3 22 -8 0 -5 8 -16
18 -24 9 -7 13 -13 7 -12 -29 4 -36 -1 -25 -20 13 -26 13 -31 -3 -31 -7 0 -19
-6 -25 -12 -7 -7 -20 -13 -30 -13 -11 0 -16 -7 -14 -17 2 -13 -4 -18 -23 -18
l-25 0 0 120 c0 66 0 123 1 127 0 3 -6 10 -15 15 -9 5 -16 14 -16 21 0 7 4 6
10 -3 8 -13 11 -13 27 3 11 11 13 17 5 17 -7 0 -11 4 -7 10 3 5 12 7 20 3 8
-3 16 1 17 8 1 8 4 -21 5 -65 2 -44 9 -84 16 -90z m2152 -129 c11 -1 34 -16
52 -34 18 -17 40 -36 50 -42 15 -9 16 -12 4 -20 -11 -7 -7 -14 20 -31 19 -11
48 -24 64 -27 27 -6 24 -8 -30 -18 -53 -9 -65 -8 -105 10 -25 11 -56 28 -69
37 -21 15 -22 18 -7 24 12 4 14 10 6 19 -5 6 -8 15 -5 18 3 4 2 5 -2 2 -4 -3
-12 8 -19 25 -7 16 -18 30 -24 30 -6 0 -8 -6 -4 -12 5 -9 2 -9 -9 1 -27 21
-20 30 21 25 20 -3 46 -6 57 -7z m-5096 -321 c2 22 30 23 54 3 32 -24 37 -24
37 2 0 15 4 19 16 15 9 -3 25 -6 37 -7 12 0 16 -3 10 -6 -7 -2 -13 -14 -13
-24 0 -11 4 -18 8 -15 5 3 9 -1 9 -9 0 -8 -4 -12 -9 -9 -4 3 -8 -90 -8 -205 0
-162 -3 -211 -12 -212 -10 0 -10 -2 0 -6 21 -8 13 -30 -13 -35 -24 -5 -29 1
-26 29 1 9 -12 11 -47 6 l-49 -5 -6 122 c-9 161 -7 439 3 385 4 -22 8 -35 9
-29z m2141 -331 c0 -8 -4 -17 -10 -20 -14 -9 -12 -17 11 -45 13 -15 19 -18 15
-8 -3 10 2 19 12 22 9 2 6 4 -8 3 -16 -1 -25 3 -25 13 0 8 7 15 15 15 8 0 20
11 27 25 l12 25 7 -32 c4 -18 10 -33 14 -33 3 0 6 -10 6 -21 -1 -17 6 -23 28
-26 17 -2 33 1 37 9 7 10 9 8 9 -5 0 -26 23 -47 42 -36 10 6 15 4 15 -6 0 -8
-9 -15 -19 -15 -10 0 -18 -7 -18 -15 0 -9 9 -15 23 -14 21 0 21 1 2 10 -18 8
-17 8 5 6 14 -1 24 -8 23 -15 -4 -16 9 -15 27 1 8 6 6 2 -5 -11 -14 -17 -21
-19 -28 -10 -7 10 -10 10 -14 0 -2 -6 -9 -10 -13 -7 -5 3 -11 2 -14 -3 -2 -4
4 -14 16 -21 11 -7 17 -8 13 -2 -3 6 -2 11 4 11 5 0 13 -5 16 -10 4 -6 10 -8
15 -5 5 3 12 0 16 -6 4 -8 3 -9 -4 -5 -7 4 -12 3 -12 -2 0 -6 7 -12 15 -16 15
-5 19 5 15 34 -1 10 5 7 18 -8 11 -13 22 -18 24 -12 1 5 9 1 16 -11 8 -12 9
-18 3 -15 -5 4 -12 2 -16 -4 -3 -5 -1 -10 5 -10 6 0 27 -17 45 -37 19 -21 35
-34 35 -29 0 5 7 3 15 -4 12 -10 15 -10 15 3 0 18 -27 47 -43 47 -7 0 -3 -8 8
-16 l20 -16 -20 4 c-12 2 -20 12 -21 25 -1 14 3 20 13 16 8 -3 13 -2 12 3 -5
27 2 43 16 38 14 -6 13 -8 -2 -19 -17 -13 -17 -14 -1 -20 10 -4 16 -11 13 -15
-6 -10 44 -72 54 -66 4 3 13 -5 20 -17 10 -17 10 -19 1 -10 -11 10 -16 9 -26
-5 -12 -15 -13 -15 -8 4 3 12 1 25 -5 28 -6 4 -11 2 -11 -5 0 -8 -7 -6 -23 4
-38 24 -53 5 -21 -26 15 -15 32 -27 38 -27 6 0 4 -5 -4 -10 -12 -8 -13 -13 -3
-29 9 -15 9 -23 -1 -36 -8 -11 -15 -14 -19 -8 -4 6 -1 13 7 16 12 5 12 11 -2
41 -9 19 -19 33 -23 30 -4 -2 -10 0 -14 6 -4 6 -12 7 -18 3 -7 -4 -5 2 3 12
11 14 12 19 3 22 -7 3 -13 9 -13 14 0 6 5 7 12 3 7 -4 8 -3 4 5 -4 6 -13 11
-19 10 -23 -3 -37 1 -37 11 0 5 6 7 13 4 8 -3 14 2 14 11 0 9 -6 14 -13 11 -8
-3 -16 -1 -19 4 -4 6 -12 10 -18 10 -7 0 -6 -4 3 -11 13 -9 13 -10 0 -6 -8 2
-16 9 -16 15 -3 25 -4 25 -18 6 -12 -15 -17 -17 -27 -6 -19 18 -32 15 -26 -8
3 -11 2 -22 -3 -25 -4 -2 -7 12 -7 33 1 24 6 39 16 43 9 4 -3 6 -26 5 -41 -1
-53 -8 -34 -20 5 -4 12 -1 14 4 3 6 4 5 3 -2 -2 -7 -9 -12 -15 -11 -16 4 -14
-4 9 -27 24 -24 26 -37 5 -37 -10 0 -13 6 -9 19 4 13 0 18 -14 18 -16 0 -19 5
-15 23 4 21 4 22 -11 3 -20 -25 -20 -35 -1 -42 8 -4 15 -12 15 -19 0 -8 14
-23 30 -35 17 -12 30 -27 30 -33 0 -7 -5 -6 -11 3 -9 13 -10 13 -6 -1 3 -9 2
-20 -1 -25 -4 -5 -3 -6 2 -2 5 3 18 -2 29 -13 12 -11 28 -17 36 -14 12 5 12 3
0 -12 -12 -15 -12 -16 4 -10 12 4 17 1 17 -9 0 -11 6 -15 20 -11 11 3 20 1 20
-5 0 -6 -11 -8 -25 -5 -17 3 -24 0 -22 -7 2 -6 11 -10 20 -10 9 1 14 -2 11 -7
-3 -5 2 -12 10 -15 12 -5 13 -10 5 -25 -8 -15 -6 -19 7 -19 10 0 14 -5 10 -16
-3 -8 -2 -12 3 -9 5 3 12 1 16 -5 3 -5 12 -10 18 -10 9 0 9 2 1 8 -15 9 0 52
18 52 10 0 10 -2 -1 -9 -18 -12 -4 -54 15 -47 9 3 12 1 9 -5 -4 -6 1 -13 12
-15 11 -3 20 -15 21 -31 1 -14 7 -32 12 -39 8 -9 7 -14 -1 -20 -7 -4 -9 -3 -6
3 4 6 -1 17 -10 24 -15 12 -16 12 -8 -1 6 -8 10 -19 10 -25 1 -5 7 -8 15 -6 8
2 20 4 25 5 6 1 15 4 20 8 6 3 10 -4 10 -17 0 -16 -7 -25 -22 -28 -12 -2 -20
0 -17 4 3 5 -5 9 -18 8 -13 0 -18 -3 -11 -5 8 -4 7 -11 -5 -23 -16 -17 -18
-17 -33 2 -12 15 -18 17 -24 7 -5 -9 -4 -11 3 -6 7 4 12 3 12 -3 0 -14 -39 -9
-44 6 -3 7 1 16 10 21 12 7 11 11 -5 29 -14 15 -19 31 -16 53 3 26 1 29 -11
19 -8 -6 -15 -8 -15 -3 -1 5 -2 14 -3 20 0 6 -16 23 -34 38 -17 15 -29 33 -25
38 3 7 1 8 -5 4 -15 -9 -16 6 -2 20 8 8 5 15 -7 25 -16 13 -17 12 -5 -3 21
-27 -7 -32 -44 -9 -13 9 -19 21 -16 33 2 10 -1 18 -8 18 -7 0 -10 8 -7 19 3
13 0 18 -8 15 -15 -6 -29 26 -17 38 5 5 7 20 5 32 -4 17 -10 22 -23 19 -10 -3
-21 0 -24 6 -10 16 -23 13 -30 -5 -5 -14 -4 -15 9 -4 8 7 15 11 16 9 6 -31 6
-39 -2 -39 -5 0 -9 4 -9 8 0 5 -6 9 -14 9 -22 0 -15 -31 13 -52 13 -10 21 -13
17 -7 -3 6 -2 13 3 16 12 8 22 -23 17 -51 -3 -16 -1 -20 10 -16 8 3 15 -1 16
-8 3 -30 4 -35 17 -57 9 -17 16 -20 25 -13 9 7 17 5 29 -9 9 -11 17 -25 17
-30 0 -6 11 -10 23 -10 13 0 24 -6 24 -12 1 -7 4 -28 9 -47 6 -29 5 -33 -8
-28 -11 4 -18 -2 -22 -20 -5 -19 -10 -22 -20 -14 -18 15 -30 -11 -13 -28 6 -6
9 -11 6 -11 -3 0 -14 10 -25 22 -10 12 -13 18 -6 14 17 -10 15 5 -3 18 -21 15
-38 77 -20 70 8 -3 11 -12 8 -21 -3 -8 0 -19 8 -24 21 -13 35 -11 21 3 -15 15
-16 32 -1 23 5 -4 15 -18 20 -32 5 -14 12 -23 16 -19 10 10 -17 53 -43 66 -13
7 -21 17 -18 22 3 4 1 8 -5 8 -6 0 -8 7 -5 15 10 24 -6 17 -17 -7 -9 -21 -9
-21 -6 5 3 15 -1 30 -7 34 -6 3 -8 3 -4 -1 4 -5 2 -19 -3 -33 -7 -19 -6 -32 6
-49 29 -44 15 -36 -25 15 -23 29 -45 49 -50 46 -5 -3 -12 4 -15 16 -5 16 -9
18 -15 8 -7 -10 -12 -10 -23 -1 -7 7 -17 9 -20 5 -4 -3 -7 6 -7 21 0 16 4 25
10 21 6 -4 8 -10 5 -15 -3 -4 2 -10 10 -14 8 -3 17 -1 20 5 4 5 10 7 14 5 4
-3 7 8 7 24 0 16 -3 27 -8 24 -4 -3 -8 -11 -8 -19 0 -8 -7 -11 -20 -8 -11 3
-20 13 -20 22 0 14 -2 14 -10 1 -9 -15 -8 -17 -25 36 -3 8 -9 12 -15 9 -5 -3
-10 -1 -10 4 0 16 16 13 30 -4 7 -9 15 -13 18 -10 3 3 -3 15 -14 27 -10 12
-13 18 -5 13 11 -6 13 -4 8 9 -4 9 0 30 8 45 8 16 12 31 9 34 -3 3 0 8 7 13 9
5 11 1 7 -14 -4 -13 1 -27 13 -38 18 -16 19 -16 19 0 0 9 -4 15 -9 11 -12 -7
-5 55 8 68 6 6 9 4 7 -6 -1 -9 -5 -20 -9 -23 -12 -12 -8 -26 5 -18 7 4 8 3 4
-4 -4 -7 -3 -12 2 -12 12 0 22 59 12 65 -4 3 -6 25 -4 50 3 30 1 44 -6 40 -6
-4 -10 5 -10 19 0 15 -6 26 -14 26 -9 0 -12 10 -10 30 2 16 -1 32 -6 35 -6 3
-10 1 -10 -4 0 -6 -5 -11 -10 -11 -7 0 -7 7 1 21 8 15 8 24 0 32 -6 6 -11 20
-11 32 0 16 -2 17 -10 5 -5 -8 -10 -11 -10 -6 0 5 -7 3 -15 -4 -8 -7 -12 -17
-9 -22 3 -5 -3 -4 -15 4 -17 10 -18 15 -8 26 7 7 24 15 38 17 13 3 25 9 27 14
5 14 32 1 32 -14z m510 -5 c0 -5 7 -6 17 -3 11 4 14 3 9 -5 -4 -7 -2 -12 4
-12 7 0 5 -7 -4 -16 -9 -8 -16 -22 -16 -29 0 -9 -6 -12 -17 -9 -15 5 -16 4 -3
-5 8 -6 26 -11 39 -11 20 0 22 2 11 15 -7 9 -10 18 -6 22 3 3 6 1 6 -5 0 -7 7
-12 16 -12 8 0 12 5 9 10 -3 6 -2 10 4 10 5 0 11 -6 14 -12 3 -9 9 -7 19 6 11
13 17 16 22 7 5 -7 -6 -17 -28 -26 -33 -14 -49 -35 -26 -35 6 0 10 4 10 9 0 5
11 11 24 13 18 4 31 -3 52 -29 15 -18 36 -33 46 -33 10 0 18 -5 18 -11 0 -5
-5 -7 -12 -3 -7 4 -8 3 -4 -4 4 -7 1 -12 -9 -12 -9 0 -13 -5 -9 -11 4 -8 9 -8
17 0 19 19 24 12 26 -39 1 -49 1 -50 -19 -33 -13 11 -16 19 -9 24 7 4 8 12 4
19 -5 8 -10 9 -18 1 -17 -17 -26 -13 -20 8 3 11 -2 21 -11 24 -9 4 -16 2 -16
-3 0 -6 4 -10 10 -10 5 0 7 -7 4 -15 -4 -8 -10 -12 -15 -9 -5 3 -7 9 -4 14 3
5 -3 16 -12 26 -13 13 -18 14 -22 3 -2 -7 1 -15 8 -17 6 -2 9 -7 6 -12 -3 -5
1 -15 10 -23 12 -13 12 -17 1 -26 -10 -8 -16 -9 -21 -1 -3 5 0 10 7 11 10 0
10 2 0 6 -6 2 -10 9 -7 13 3 5 1 11 -5 15 -9 5 -12 -8 -9 -31 0 -4 -5 -10 -12
-15 -9 -5 -23 0 -38 14 -13 12 -21 16 -16 8 5 -9 4 -12 -3 -7 -7 4 -12 13 -12
21 0 7 -7 15 -15 19 -8 3 -15 0 -15 -7 0 -8 -4 -7 -9 3 -11 16 -4 33 9 25 13
-8 20 9 9 25 -8 13 -10 13 -19 0 -7 -11 -10 -11 -10 -2 0 7 7 15 15 18 8 4 13
10 10 14 -3 5 -1 11 5 15 5 3 11 -1 11 -9 3 -29 4 -34 11 -42 4 -4 3 -13 -4
-21 -8 -11 -7 -12 6 -7 9 3 22 2 29 -3 43 -33 62 22 23 68 -17 20 -26 25 -26
15 0 -9 5 -16 10 -16 16 0 12 -17 -6 -24 -8 -3 -12 -2 -9 4 3 6 -1 13 -9 16
-8 3 -18 14 -21 25 -4 10 -15 19 -25 19 -22 0 -33 23 -17 39 15 15 0 26 -17
12 -8 -7 -13 -18 -10 -26 3 -7 1 -16 -5 -20 -6 -3 -11 -11 -11 -16 0 -6 5 -7
10 -4 6 3 10 1 10 -5 0 -7 -7 -10 -15 -7 -16 7 -30 -9 -15 -16 6 -3 5 -4 -2
-3 -15 3 -18 26 -6 43 6 7 4 14 -3 19 -8 4 -9 3 -5 -4 5 -8 1 -10 -10 -5 -13
5 -8 11 22 29 39 24 41 34 3 14 -13 -7 -19 -7 -19 0 0 5 -1 13 -2 16 -2 3 17
7 42 9 48 2 74 -10 63 -29 -4 -6 1 -4 11 4 17 14 17 15 -3 24 -22 9 -29 26
-11 26 6 0 10 -4 10 -10z m-775 -169 c-3 -5 0 -13 7 -18 16 -9 88 -11 82 -1
-2 4 0 9 6 13 5 3 10 -1 10 -9 0 -9 6 -16 14 -16 16 0 66 -45 66 -60 0 -5 -5
-10 -11 -10 -5 0 -7 5 -3 12 5 7 3 8 -6 3 -10 -6 -10 -11 4 -20 15 -11 14 -13
-6 -20 -13 -4 -27 -8 -32 -9 -5 0 -11 -8 -13 -16 -4 -12 -3 -13 5 -1 8 11 11
9 17 -8 4 -13 4 -25 1 -28 -3 -4 -6 2 -6 13 0 14 -2 16 -9 6 -7 -11 -9 -11
-14 2 -9 22 -36 20 -32 -1 2 -10 4 -22 4 -26 1 -5 5 -5 11 -2 6 3 7 -1 4 -9
-5 -12 -11 -8 -29 17 -12 17 -27 31 -33 30 -8 -2 -12 12 -12 36 0 38 -19 68
-35 53 -5 -4 -5 -2 -1 5 4 7 14 9 23 6 14 -5 13 -1 -5 24 -25 35 -27 43 -11
43 5 0 8 -4 4 -9z m880 -112 c-4 -5 -1 -9 4 -9 6 0 11 4 11 9 0 5 7 11 15 15
8 3 14 2 14 -2 -4 -21 2 -42 12 -42 5 0 8 4 4 9 -3 5 0 13 6 17 7 4 9 3 6 -2
-3 -6 -2 -16 4 -24 6 -11 9 -11 9 -2 0 10 5 10 21 2 11 -6 19 -19 18 -28 -1
-9 -1 -41 0 -69 1 -50 3 -53 26 -53 14 0 25 -3 25 -7 0 -23 174 -71 295 -82
120 -11 180 -37 191 -83 3 -16 13 -32 22 -36 27 -10 73 -65 67 -80 -3 -8 -5
-17 -5 -21 0 -21 -201 -88 -223 -74 -6 4 -64 7 -129 7 -90 1 -121 4 -127 15
-12 19 -80 30 -109 17 -12 -5 -25 -7 -28 -3 -3 3 -7 45 -8 92 -1 86 -11 110
-42 98 -6 -2 -15 0 -19 6 -4 7 0 8 11 4 12 -4 15 -3 10 5 -4 7 -2 12 4 12 7 0
10 7 7 14 -4 9 2 17 14 21 14 5 19 15 19 46 0 21 -4 39 -9 39 -5 0 -8 8 -6 18
1 9 0 11 -2 4 -3 -7 -9 -10 -14 -7 -16 11 -9 -7 8 -20 15 -11 15 -15 4 -29
-11 -13 -17 -14 -28 -5 -7 7 -11 14 -8 17 3 3 -1 12 -8 20 -9 12 -9 14 0 9 16
-10 28 33 18 63 -5 17 -10 19 -21 9 -8 -6 -14 -8 -14 -5 0 4 -6 4 -12 -1 -20
-12 -46 -14 -53 -4 -3 5 0 13 6 17 8 4 9 3 5 -4 -4 -7 -2 -12 3 -12 6 0 11 4
11 10 0 5 6 7 13 4 9 -3 13 8 14 37 2 43 -4 48 -12 9 -2 -12 -6 -25 -9 -27 -8
-9 -27 9 -37 34 -5 13 -13 21 -19 18 -5 -3 -10 -1 -10 5 0 6 8 10 18 8 11 -2
18 4 20 20 2 12 8 20 13 16 5 -3 7 -10 4 -15z m-4265 -91 c0 -5 7 -8 15 -8 8
0 15 5 15 11 0 11 10 11 140 -9 52 -8 -238 -18 -417 -14 -66 1 -113 -2 -113
-7 0 -6 17 -12 38 -14 20 -2 -21 -4 -93 -4 -78 0 -118 2 -100 7 22 6 9 8 -50
9 -66 2 -76 4 -55 13 15 6 64 8 123 4 61 -3 95 -2 92 4 -4 6 18 8 57 5 44 -4
57 -2 43 4 -13 6 34 9 142 8 90 -1 163 -5 163 -9z m1598 -70 l52 1 0 -94 0
-95 -65 0 c-53 0 -66 3 -75 19 -15 28 -12 41 8 42 16 1 16 2 0 6 -13 3 -18 15
-18 39 l0 35 60 -7 c38 -4 60 -3 60 3 0 6 -28 14 -62 18 -47 5 -58 9 -43 15
17 7 17 9 3 9 -10 1 -18 6 -18 12 0 7 8 9 23 3 12 -4 46 -7 75 -6z m4952 -57
c14 -4 37 -4 52 0 15 4 30 4 32 0 3 -3 30 -8 61 -9 40 -2 62 -8 77 -22 12 -11
30 -20 40 -20 13 0 18 -8 18 -25 0 -14 4 -25 8 -25 5 0 19 -9 31 -20 26 -22
35 -89 14 -97 -13 -5 -18 -33 -7 -33 4 0 12 7 19 17 9 13 14 13 20 3 5 -9 4
-11 -3 -6 -7 4 -12 2 -12 -3 0 -6 9 -11 21 -11 12 0 19 -5 17 -12 -6 -16 -68
-23 -68 -9 0 7 -14 9 -39 5 -21 -3 -47 -2 -56 3 -15 9 -14 11 9 17 37 9 32 26
-8 26 -47 0 -85 16 -113 46 -14 15 -30 23 -38 20 -8 -3 -15 -2 -15 3 0 13 -61
40 -82 36 -10 -2 -31 9 -47 26 -27 27 -29 32 -18 57 19 43 33 48 87 33z m-149
-221 c6 0 7 5 4 10 -3 6 -1 10 4 10 6 0 11 -3 11 -7 0 -5 51 -8 114 -7 l114 0
-9 -25 c-6 -13 -8 -30 -5 -37 11 -27 -74 -78 -148 -88 -27 -3 -57 -13 -66 -21
-15 -14 -21 -14 -53 0 -20 8 -45 15 -56 15 -12 0 -20 9 -23 24 -3 17 -1 23 8
19 12 -4 68 49 70 68 1 5 3 12 4 17 1 4 3 12 5 17 1 6 3 15 4 20 2 6 5 4 8 -2
2 -7 9 -13 14 -13z m-3771 -9 c0 -5 15 -7 33 -6 17 2 32 4 32 5 0 1 12 3 28 4
15 2 27 -1 27 -6 0 -5 -6 -8 -12 -6 -7 3 -24 -1 -38 -9 -15 -8 -26 -9 -28 -3
-6 16 -22 11 -22 -6 0 -13 7 -15 33 -11 17 3 26 3 19 0 -10 -4 -10 -8 -1 -19
9 -11 5 -13 -25 -9 -19 3 -38 0 -41 -5 -4 -6 -10 -8 -15 -5 -5 3 -11 1 -15 -5
-3 -5 1 -10 9 -10 8 0 18 5 21 10 8 13 25 13 25 1 0 -5 -9 -13 -20 -16 -11 -4
-17 -11 -14 -17 4 -7 9 -6 14 2 5 9 9 9 14 1 4 -6 18 -11 32 -11 16 0 23 -4
18 -11 -4 -7 3 -10 18 -7 14 1 32 -3 41 -10 12 -10 17 -10 23 -1 4 7 3 9 -4 5
-6 -3 -14 -1 -17 5 -9 13 83 2 102 -13 9 -7 11 -28 3 -48 -1 -3 -2 -8 -1 -12
0 -5 -4 -8 -10 -8 -6 0 -2 -8 10 -17 12 -10 23 -29 26 -42 2 -13 2 -21 -1 -19
-3 3 -21 2 -40 -2 -28 -6 -33 -5 -24 5 6 7 8 21 5 31 -4 12 -2 11 6 -3 7 -13
16 -23 21 -23 14 0 -21 45 -35 45 -6 0 -11 9 -9 19 2 12 -1 15 -8 11 -9 -6 -9
-2 0 15 6 12 9 24 6 28 -3 3 -6 -1 -6 -8 0 -11 -3 -11 -12 -2 -16 16 -28 15
-28 -2 0 -8 -4 -17 -9 -21 -6 -3 -8 4 -6 15 2 13 -1 20 -11 20 -9 0 -12 5 -8
11 3 6 -4 5 -17 -3 -21 -13 -39 -16 -54 -8 -3 1 -9 3 -15 4 -5 0 -9 6 -7 11 1
6 6 9 10 7 5 -1 7 3 5 10 -3 7 -20 12 -39 12 -21 0 -37 6 -41 16 -6 13 -7 12
-7 -2 -1 -29 -36 -40 -75 -24 -32 13 -35 13 -39 -2 -3 -11 -5 -8 -6 8 -1 20
-3 22 -11 10 -7 -11 -10 -11 -10 -2 0 7 -4 10 -10 7 -5 -3 -7 0 -4 9 4 10 -5
22 -26 34 -19 12 -27 23 -21 26 6 4 15 5 19 2 5 -3 25 -6 44 -8 27 -1 34 -6
31 -19 -5 -18 23 -34 32 -19 7 12 26 13 24 3 -3 -20 2 -33 12 -33 8 0 7 6 -2
17 -12 15 -12 16 6 11 20 -5 49 14 38 25 -3 3 3 6 13 6 11 0 28 2 39 5 11 2
21 5 23 5 2 1 -6 15 -18 31 -12 17 -17 30 -11 30 6 0 11 -4 11 -9z m3304 -36
c11 -1 23 -11 27 -23 5 -12 15 -22 23 -22 16 0 46 -37 46 -58 0 -16 -74 -47
-118 -50 -18 -1 -36 -3 -40 -3 -32 -5 -52 3 -52 20 0 14 -5 18 -20 14 -15 -4
-20 0 -20 15 0 11 -4 22 -10 24 -6 2 -4 14 4 30 8 15 12 29 8 32 -3 3 0 6 6 6
7 0 15 0 20 1 4 0 10 -10 14 -23 6 -22 6 -22 7 3 1 30 35 51 66 42 11 -4 29
-7 39 -8z m-3855 -117 c24 -30 24 -31 2 -19 -12 7 -25 19 -28 27 -3 8 -18 14
-34 14 -17 0 -32 6 -35 15 -4 8 -17 15 -30 15 -46 0 -99 -108 -60 -123 18 -7
32 19 35 66 l2 22 9 -22 c13 -32 16 -29 14 15 l-3 37 8 -35 c8 -41 4 -53 -16
-46 -8 3 -11 1 -8 -4 7 -11 33 -9 54 4 10 7 12 5 6 -4 -5 -8 -3 -11 6 -8 8 3
13 11 12 17 -2 6 2 11 8 11 6 0 9 7 5 15 -10 26 12 16 35 -17 13 -17 18 -28
11 -24 -7 4 -12 2 -12 -3 0 -6 5 -11 11 -11 5 0 8 -4 5 -9 -3 -5 1 -12 10 -15
8 -3 12 -12 9 -18 -4 -7 1 -4 9 6 16 19 16 19 16 -2 0 -12 -5 -21 -11 -19 -6
1 -13 -7 -14 -18 -1 -11 -4 -24 -6 -30 -5 -16 12 -75 22 -75 5 0 9 -4 9 -10 0
-5 -5 -10 -11 -10 -7 0 -18 -8 -26 -17 -10 -13 -13 -14 -10 -3 6 22 -12 52
-28 46 -10 -3 -12 3 -10 24 2 16 0 32 -6 35 -5 4 -8 1 -7 -7 2 -8 -9 -14 -29
-16 -27 -3 -33 0 -33 17 0 11 -5 23 -12 27 -6 4 -8 3 -5 -4 4 -5 3 -20 -1 -32
-8 -21 -9 -21 -23 -4 -7 10 -9 15 -2 11 7 -5 11 4 10 28 -1 19 -4 30 -8 24 -4
-7 -11 -9 -17 -5 -6 3 -13 0 -15 -6 -5 -12 -8 1 -11 42 -1 15 -51 38 -61 28
-10 -9 7 -38 18 -31 6 3 7 1 3 -5 -4 -6 0 -22 9 -35 13 -20 13 -24 0 -24 -8 0
-12 4 -9 8 5 9 -34 71 -48 77 -12 5 -9 32 3 32 5 0 8 4 5 9 -3 5 3 11 14 14
22 6 24 14 10 37 -11 18 -28 4 -35 -28 -2 -12 -7 -27 -10 -32 -8 -12 -45 -13
-45 -1 0 5 10 7 22 3 18 -4 20 -2 15 17 -3 12 1 34 9 49 13 25 13 28 -13 49
-24 19 -25 23 -10 29 10 3 21 4 24 0 4 -3 -2 -6 -12 -6 -14 0 -13 -4 9 -21 14
-11 23 -25 20 -31 -5 -7 -2 -8 5 -4 7 5 18 0 26 -10 7 -11 17 -16 21 -12 4 4
13 3 21 -4 10 -8 17 -7 27 7 7 10 11 26 9 35 -5 20 22 46 32 30 10 -17 28 -11
21 8 -4 12 -1 11 13 -5 27 -33 45 -29 25 5 -18 28 40 -32 85 -90z m5538 -23
c21 -9 40 -20 43 -26 4 -6 17 -4 36 6 32 17 54 19 54 7 0 -9 44 -32 60 -32 6
0 9 6 8 13 -2 6 4 12 12 12 8 0 14 -5 13 -12 -3 -13 52 -57 94 -75 15 -7 34
-18 41 -25 7 -7 19 -13 25 -13 18 0 81 -62 95 -93 6 -15 18 -30 26 -33 8 -3
13 -12 10 -20 -14 -47 -12 -46 -36 -31 -13 7 -35 13 -50 12 -15 0 -25 1 -23 3
2 3 -7 14 -21 24 -17 14 -32 18 -51 13 -21 -5 -31 -1 -49 20 -13 15 -28 24
-34 20 -6 -3 -8 -9 -6 -13 2 -4 -6 -7 -19 -7 -13 0 -21 3 -18 8 7 12 -12 8
-26 -5 -11 -11 -12 -10 -6 0 6 12 3 12 -16 1 -13 -7 -25 -12 -26 -11 -2 1 -13
2 -25 2 -17 0 -19 -3 -10 -9 11 -6 10 -10 -4 -15 -26 -10 -36 15 -14 36 10 9
17 25 15 35 -2 10 -4 18 -5 18 -1 0 -3 13 -4 28 -1 15 6 36 16 47 24 26 23 28
-17 28 -19 0 -35 -4 -35 -9 0 -5 -5 -9 -11 -9 -5 0 -7 5 -4 10 9 15 -1 12 -18
-5 -13 -13 -17 -12 -29 2 -11 14 -11 16 2 8 8 -4 12 -4 7 0 -9 10 -26 15 -79
22 -21 3 -38 7 -38 10 0 12 27 29 40 26 13 -4 13 -3 1 5 -19 14 -6 42 19 42
11 0 37 -7 57 -15z m-5148 -17 c-8 -7 -21 -21 -28 -31 -12 -15 -12 -17 2 -12
8 4 18 1 22 -5 5 -8 -1 -11 -16 -10 -45 4 -51 1 -40 -17 7 -14 3 -27 -16 -53
l-25 -35 32 34 c25 26 34 31 41 20 8 -13 10 -11 13 21 0 8 12 17 26 21 14 4
20 7 13 8 -7 1 -17 9 -22 19 -8 15 -5 18 15 20 14 1 23 -2 19 -7 -3 -5 -1 -12
5 -16 5 -3 10 -16 11 -28 l0 -22 9 23 c12 28 20 29 13 1 -6 -20 -3 -21 22 -15
25 6 26 6 11 -9 -8 -9 -21 -15 -28 -14 -33 4 -39 0 -26 -21 7 -11 16 -20 21
-20 4 0 5 5 1 12 -5 7 -3 8 5 3 10 -5 10 -10 1 -19 -8 -8 -15 -6 -26 8 -10 15
-14 16 -15 5 0 -10 -2 -10 -6 -1 -2 6 -9 12 -14 12 -4 0 -6 -6 -3 -14 3 -8 1
-23 -5 -33 -10 -17 -10 -17 -11 0 0 9 1 20 3 23 3 9 -43 25 -54 19 -5 -4 -7
-16 -5 -28 3 -12 5 -26 5 -30 1 -5 5 -6 10 -2 5 3 7 18 5 33 -7 34 11 18 20
-19 4 -21 2 -26 -11 -25 -19 1 -38 -53 -23 -68 7 -7 10 -1 10 16 0 26 24 45
35 28 4 -6 -1 -10 -11 -10 -12 0 -15 -6 -12 -25 3 -14 1 -25 -3 -25 -5 0 -9
-10 -9 -22 0 -12 -8 -31 -17 -42 -10 -12 -4 -9 13 7 16 15 34 27 40 27 5 0 3
-4 -5 -9 -11 -7 -9 -12 10 -22 13 -7 35 -15 48 -16 29 -3 47 -18 32 -27 -6 -4
-11 -2 -11 5 0 8 -5 7 -17 -2 -11 -10 -14 -10 -9 -1 4 7 2 12 -4 12 -7 0 -25
9 -40 20 l-28 20 -11 -32 c-15 -43 -13 -57 4 -34 14 18 15 18 15 2 0 -9 4 -15
9 -11 5 3 13 0 17 -6 5 -9 -1 -10 -22 -5 -22 6 -26 5 -18 -4 6 -6 20 -13 30
-14 10 -2 20 -9 22 -16 3 -8 0 -10 -8 -5 -9 5 -11 4 -6 -3 4 -7 17 -12 29 -12
18 0 20 -2 7 -11 -12 -9 -11 -10 7 -6 15 3 23 -1 26 -14 3 -11 1 -17 -4 -13
-14 8 -29 -5 -22 -21 3 -8 11 -15 19 -15 8 0 14 -9 14 -19 0 -11 12 -28 28
-40 24 -18 25 -19 5 -14 -13 3 -23 9 -23 15 0 5 -9 4 -21 -2 -22 -12 -32 -8
-35 15 -3 21 14 19 18 -2 3 -12 6 -9 10 10 5 24 3 28 -16 25 -13 -2 -20 -10
-20 -21 1 -9 -2 -17 -7 -17 -5 0 -9 9 -9 20 0 11 4 20 8 20 4 0 9 11 10 25 1
18 -2 23 -13 19 -8 -4 -12 -11 -8 -17 3 -6 1 -7 -6 -3 -9 6 -9 11 -1 21 13 15
-7 25 -51 25 -17 0 -45 11 -64 26 -32 24 -34 25 -44 6 -7 -13 -7 -23 2 -32 7
-7 1 -5 -13 5 -15 11 -26 29 -27 44 -1 26 -1 26 11 -3 l13 -29 11 32 c6 18 18
31 28 31 10 0 14 5 11 14 -3 8 -1 17 6 19 7 3 2 9 -11 14 -21 8 -21 10 -7 28
15 20 15 20 9 0 -5 -16 -4 -17 5 -5 6 8 11 23 11 33 0 10 7 20 15 23 8 4 12
10 9 15 -3 5 -9 7 -14 4 -5 -3 -11 -1 -14 4 -3 5 1 11 9 15 8 3 15 0 15 -6 0
-7 5 -6 15 2 8 7 15 19 15 27 0 12 -3 13 -13 5 -8 -7 -18 -8 -27 -1 -12 8 -11
9 5 7 13 -2 19 2 17 11 -2 9 3 11 13 7 9 -3 13 -2 10 4 -3 6 -13 10 -20 10
-21 0 -35 33 -30 69 4 35 -11 43 -18 9 -4 -16 -5 -13 -4 7 2 27 5 30 31 27 16
-2 26 0 22 6 -3 5 6 19 19 32 13 13 22 27 18 33 -3 6 -1 7 5 3 7 -4 12 -2 12
3 0 6 8 11 17 11 15 0 15 -2 2 -12z m5096 -217 c19 -8 19 -8 -2 -15 -13 -4
-24 -13 -24 -19 -1 -7 -2 -16 -4 -22 -1 -5 -3 -15 -3 -21 -1 -7 -11 -14 -23
-17 -14 -4 -18 -10 -13 -18 5 -8 2 -11 -8 -6 -10 3 -15 0 -14 -11 1 -18 -22
-23 -41 -9 -8 6 -13 6 -13 -1 0 -14 -33 -8 -38 8 -4 10 -6 9 -13 -1 -8 -12
-11 -11 -19 1 -7 10 -6 18 3 25 8 6 22 22 31 38 10 15 24 27 30 27 7 0 17 5
24 12 13 13 69 35 92 36 8 0 24 -3 35 -7z m-4040 -60 c6 -1 3 -5 -5 -11 -20
-12 -8 -21 29 -22 18 -1 34 -5 37 -10 3 -5 -6 -7 -20 -4 -37 7 -32 -1 10 -19
44 -18 47 -18 37 -2 -19 31 -9 37 19 10 25 -25 28 -34 19 -49 -6 -11 -11 -13
-11 -6 0 7 -5 10 -12 6 -7 -4 -8 -3 -4 5 4 6 12 9 17 6 5 -4 9 -2 9 3 0 5 -17
9 -39 9 -37 0 -38 0 -20 -18 11 -11 19 -23 19 -29 0 -5 7 -7 15 -4 9 4 15 0
15 -10 0 -9 4 -16 9 -16 6 0 6 -12 1 -31 -7 -23 -6 -28 3 -21 9 8 12 -1 12
-36 1 -27 6 -47 13 -50 7 -2 9 -9 5 -15 -4 -7 1 -6 10 2 14 11 17 11 17 0 0
-22 17 3 24 36 5 22 4 26 -4 15 -8 -12 -10 -9 -10 14 0 23 3 26 14 17 11 -10
16 -8 21 9 4 12 2 27 -4 33 -8 8 -11 7 -11 -4 -1 -12 -2 -12 -9 1 -12 21 -7
111 7 135 12 21 14 18 16 -32 0 -17 -2 -29 -6 -26 -5 2 -7 -7 -6 -21 2 -18 6
-22 14 -15 8 7 12 6 11 -3 -1 -34 5 -45 31 -55 15 -7 20 -12 12 -11 -38 1 -43
-1 -30 -17 10 -12 10 -15 -1 -16 -10 0 -11 -2 -1 -6 6 -2 10 -9 7 -13 -3 -5 6
-7 19 -4 18 3 28 -2 36 -16 6 -11 8 -25 5 -30 -3 -6 4 -10 17 -11 13 0 18 -3
11 -5 -9 -4 -9 -11 -1 -30 6 -13 15 -24 20 -24 4 0 8 -4 8 -10 0 -17 33 -49
43 -43 6 3 7 1 3 -5 -4 -7 -2 -12 3 -12 6 0 11 -5 11 -10 0 -19 -34 -6 -58 22
-13 15 -29 25 -36 22 -7 -3 -21 2 -30 11 -9 9 -16 12 -16 8 0 -5 14 -22 30
-38 36 -35 38 -44 6 -41 -17 2 -23 -1 -19 -10 3 -8 9 -14 13 -14 4 0 10 -11
13 -25 3 -17 0 -24 -7 -20 -6 3 -19 8 -29 11 -9 4 -16 12 -15 20 2 7 -6 20
-17 28 -19 15 -19 15 5 9 14 -3 22 -2 17 2 -4 5 -17 10 -29 12 -12 2 -25 8
-29 14 -3 6 -10 11 -15 12 -5 1 -7 8 -6 16 2 9 -2 12 -11 8 -9 -3 -18 1 -21
10 -4 10 -2 13 8 10 8 -3 17 1 20 9 3 8 1 14 -5 14 -6 0 -9 6 -6 14 4 10 0 12
-16 8 -12 -2 -28 -9 -34 -15 -15 -11 -6 -30 9 -21 7 5 9 1 5 -9 -3 -10 -2 -17
3 -17 6 0 10 -7 10 -16 0 -12 -3 -14 -13 -6 -10 8 -13 6 -14 -10 -2 -25 33
-61 74 -76 18 -7 22 -11 10 -11 -14 -1 -16 -5 -8 -18 5 -10 15 -18 23 -19 7 0
21 -2 30 -2 20 -2 61 -57 55 -75 -2 -7 -10 0 -18 16 -8 19 -19 27 -30 24 -10
-3 -16 1 -15 11 0 8 -5 17 -11 19 -26 9 -12 -33 25 -71 20 -21 30 -35 22 -31
-8 5 -21 17 -28 27 -15 21 -66 50 -76 43 -3 -3 -2 1 4 7 16 19 12 27 -22 48
-27 16 -29 20 -13 20 17 1 16 3 -6 15 -15 8 -29 21 -33 30 -6 18 -32 20 -42 3
-5 -8 -2 -9 9 -5 10 3 17 2 17 -3 0 -14 -27 -12 -36 2 -5 7 -9 26 -10 43 -1
27 2 31 25 30 22 0 26 5 32 40 l7 39 -19 -23 c-17 -21 -24 -20 -20 2 1 5 -3 6
-8 3 -14 -9 -18 13 -15 77 2 43 0 57 -11 57 -20 0 -30 -21 -14 -31 10 -6 11
-9 2 -9 -8 0 -13 -12 -12 -27 0 -25 1 -26 10 -8 8 18 8 17 7 -6 -2 -14 5 -38
15 -52 17 -27 17 -27 -6 -36 -30 -12 -56 -9 -66 8 -6 9 -11 8 -22 -5 -8 -10
-9 -15 -2 -11 7 4 15 -5 22 -24 6 -16 16 -29 23 -28 28 3 36 -2 41 -27 3 -19
1 -24 -10 -20 -8 3 -19 6 -24 6 -5 0 -9 7 -9 15 0 8 -4 15 -10 15 -5 0 -12 11
-16 25 -3 14 -12 25 -20 25 -8 0 -14 7 -14 15 0 13 -3 13 -14 3 -11 -11 -11
-15 3 -25 9 -6 13 -15 8 -19 -4 -4 0 -16 10 -26 9 -10 13 -21 10 -25 -4 -3 -7
-1 -7 6 0 8 -7 10 -19 6 -12 -4 -23 0 -29 10 -8 15 -10 15 -22 1 -10 -13 -16
-14 -27 -4 -11 9 -16 9 -23 -2 -10 -16 -3 -33 11 -25 5 4 20 -5 33 -18 14 -14
28 -22 32 -18 4 3 4 0 0 -6 -4 -7 -15 -13 -24 -14 -9 0 -12 -3 -6 -5 6 -3 21
-1 33 4 22 8 22 9 6 25 -9 9 -12 17 -7 17 5 0 12 -3 15 -7 12 -12 58 -13 51
-1 -4 7 -2 8 5 4 9 -6 9 -11 0 -22 -6 -7 -15 -12 -19 -9 -4 3 -13 -1 -19 -9
-9 -11 -8 -15 5 -20 11 -4 15 -2 11 8 -4 9 0 12 13 9 10 -3 18 -13 17 -23 -1
-10 -6 -16 -12 -12 -18 11 -35 11 -35 -1 0 -8 -4 -7 -9 2 -7 11 -11 8 -17 -10
-4 -13 -7 -28 -5 -34 1 -5 -3 -5 -10 2 -9 9 -9 16 -1 26 10 11 5 16 -25 25
-38 12 -65 6 -42 -9 11 -7 9 -9 -6 -9 -23 0 -45 18 -45 34 0 6 7 3 14 -7 12
-15 15 -15 26 -2 10 12 9 16 -4 21 -9 3 -16 14 -16 23 0 12 5 10 20 -9 11 -14
20 -19 20 -12 0 7 5 10 10 7 6 -3 10 4 10 17 -1 21 -2 21 -11 5 -10 -17 -12
-17 -30 -2 -10 10 -25 15 -32 12 -10 -4 -14 2 -14 19 0 13 4 24 9 24 5 0 7 -4
4 -9 -3 -5 0 -11 8 -14 19 -7 30 22 15 39 -10 12 -8 13 6 7 14 -5 17 -3 12 10
-4 11 -2 14 9 10 10 -4 12 0 8 12 -5 12 -3 16 6 13 7 -2 14 -12 16 -21 1 -9
-2 -15 -7 -11 -5 3 -9 1 -9 -4 0 -6 7 -12 15 -16 8 -3 15 -1 15 4 0 6 7 10 15
10 18 0 20 16 3 26 -7 4 -8 3 -4 -4 4 -7 3 -12 -2 -12 -13 0 -22 49 -10 56 5
3 15 0 23 -6 11 -9 15 -9 15 -1 0 6 6 11 13 11 7 0 19 8 26 18 13 19 37 22 60
8 11 -7 11 -10 0 -17 -11 -6 -11 -11 -1 -21 9 -9 12 -9 12 1 0 7 5 9 10 6 6
-4 1 12 -11 34 -11 23 -25 41 -30 41 -6 0 -6 7 -1 18 5 9 8 22 5 28 -2 5 8 21
22 34 25 23 25 23 39 4 8 -10 18 -16 22 -11 4 4 1 7 -6 7 -9 0 -8 6 5 20 10
11 13 20 7 20 -6 0 -12 -6 -15 -12 -3 -9 -13 -5 -31 12 -25 23 -28 23 -37 7
-16 -27 -46 -21 -52 11 -3 15 -9 36 -13 46 -5 13 -4 17 3 13 6 -4 13 2 16 13
4 16 2 18 -13 10 -13 -7 -21 -6 -26 2 -4 7 -3 8 4 4 8 -5 12 2 12 18 0 14 5
26 10 26 7 0 7 6 0 19 -14 27 -13 30 8 26 9 -2 22 -4 27 -4z m-995 -12 c0 -5
9 -9 20 -9 11 0 20 6 20 13 0 9 3 8 9 -2 5 -8 11 -9 15 -3 9 14 56 -9 56 -28
0 -9 3 -11 8 -5 4 6 14 11 22 13 12 3 13 1 3 -9 -18 -19 -16 -34 3 -19 8 8 14
9 13 4 -3 -18 1 -34 9 -33 18 3 21 -3 12 -26 -9 -24 -2 -30 31 -27 3 1 6 -5 6
-13 0 -10 -5 -11 -19 -4 -12 6 -18 6 -18 -1 0 -5 -5 -10 -11 -10 -6 0 -9 6 -6
14 6 16 -11 36 -31 36 -8 0 -12 -7 -10 -17 2 -10 10 -17 16 -16 7 2 12 -3 12
-11 0 -7 9 -16 20 -19 13 -3 18 -1 14 6 -4 7 -1 7 7 -1 21 -20 -8 -34 -35 -17
-12 7 -29 11 -38 10 -10 -2 -20 1 -23 5 -3 5 4 7 15 5 11 -2 20 -1 20 3 -1 10
-30 47 -30 38 0 -5 -7 -3 -15 4 -8 7 -15 18 -15 24 0 7 3 7 8 1 11 -15 40 -12
58 7 13 12 13 16 3 15 -8 -2 -19 -6 -26 -10 -7 -5 -9 -1 -6 13 4 15 0 20 -16
20 -11 0 -21 5 -21 10 0 7 -6 7 -19 0 -31 -16 -54 -13 -47 8 5 15 5 15 -6 1
-20 -24 -63 -3 -52 25 5 14 44 19 44 5z m1346 -54 c12 -16 25 -20 23 -7 -3 19
2 21 19 5 15 -15 16 -20 4 -29 -9 -7 -12 -18 -7 -33 5 -18 9 -20 22 -10 12 11
14 10 11 -7 -2 -12 2 -18 10 -16 8 1 11 -2 6 -9 -5 -8 -2 -10 9 -6 9 3 18 0
21 -9 3 -9 10 -13 15 -10 5 3 14 -8 20 -24 5 -17 16 -30 23 -30 9 0 9 3 -2 10
-11 7 -11 10 -2 10 7 0 11 4 8 9 -4 5 4 7 16 3 14 -3 19 -2 14 6 -4 7 -1 12 9
12 9 0 13 -4 10 -10 -3 -5 0 -10 8 -10 9 0 14 -9 13 -24 0 -13 -4 -22 -8 -20
-4 2 -13 -5 -22 -17 -9 -13 -19 -18 -27 -14 -8 5 -10 4 -5 -3 4 -7 14 -12 23
-12 14 0 13 -3 -3 -17 -10 -10 -20 -24 -21 -30 -2 -7 -4 -18 -5 -25 -2 -7 4
-13 12 -13 8 -1 14 -6 13 -13 -2 -7 3 -12 10 -12 8 0 7 -4 -3 -10 -10 -6 -11
-10 -2 -10 6 0 12 -4 12 -9 0 -4 -8 -8 -17 -7 -26 2 -59 23 -50 32 5 5 12 2
16 -5 6 -9 11 -10 15 -2 4 6 2 11 -4 11 -6 0 -8 5 -5 10 5 9 -23 15 -47 11 -7
-1 -12 22 -9 42 0 4 -3 7 -9 7 -13 0 -13 -21 0 -55 6 -16 6 -24 0 -20 -5 3
-12 22 -16 41 -4 23 -11 34 -20 30 -8 -3 -11 0 -7 10 4 11 9 12 19 3 11 -9 14
-9 14 0 0 6 -10 16 -22 21 -13 5 -17 9 -10 9 8 1 6 7 -5 19 -10 11 -21 17 -25
15 -5 -2 -8 1 -8 7 0 7 7 10 15 6 8 -3 21 4 29 16 14 19 13 23 -1 33 -9 7 -13
16 -10 22 3 5 0 10 -7 10 -8 0 -12 -6 -9 -13 2 -6 -1 -15 -7 -19 -8 -5 -7 -11
2 -23 7 -10 0 -6 -15 7 -15 14 -27 20 -27 14 0 -6 -9 -9 -21 -6 -21 6 -21 5
-5 -19 14 -21 14 -25 1 -25 -8 0 -12 4 -10 8 3 3 -1 11 -8 17 -14 12 -22 76
-8 68 5 -3 11 3 14 14 3 11 10 20 17 20 6 0 8 -5 4 -12 -4 -7 -3 -8 5 -4 9 6
9 11 0 22 -9 11 -9 14 0 14 7 0 10 4 6 10 -3 5 -13 6 -23 3 -13 -4 -13 -2 3
10 17 13 18 18 6 29 -8 7 -11 8 -7 1 4 -7 0 -10 -11 -9 -9 2 -17 10 -19 19 -3
20 36 14 52 -8z m272 -234 c1 -1 5 -1 8 0 8 1 24 -22 24 -33 0 -5 -8 -8 -17
-9 -13 0 -12 -3 5 -10 13 -5 28 -7 33 -3 9 5 10 2 13 -48 0 -14 4 -30 9 -34
13 -14 7 -34 -10 -34 -15 0 -16 -2 -3 -10 12 -8 11 -10 -7 -10 -27 0 -28 -8
-7 -38 9 -13 14 -25 12 -28 -3 -2 -17 19 -33 48 -15 28 -35 59 -43 69 -17 19
-28 64 -14 55 5 -3 9 1 9 9 0 13 -3 13 -18 -1 -13 -12 -19 -12 -25 -3 -4 8 -3
10 4 5 15 -9 16 6 1 21 -8 8 -4 15 12 27 13 9 18 16 11 16 -6 0 -12 4 -12 8 0
7 31 8 48 3z m-1169 -225 c-1 -15 -3 -17 -6 -5 -2 11 -11 15 -23 12 -11 -3
-16 -11 -13 -19 3 -8 9 -11 14 -8 5 3 6 -3 2 -13 -3 -10 -3 -15 2 -11 4 4 14
0 22 -10 14 -16 14 -16 9 0 -3 10 1 30 9 45 8 16 15 21 15 12 0 -8 9 -25 20
-37 24 -25 25 -29 5 -29 -8 0 -15 4 -15 9 0 5 -5 6 -11 2 -8 -5 -6 -10 5 -16
20 -11 21 -25 1 -25 -8 0 -15 4 -15 9 0 5 -4 7 -9 4 -5 -3 -14 1 -21 9 -31 37
-49 -28 -25 -90 6 -15 3 -14 -16 7 -13 15 -31 28 -39 30 -8 2 -19 9 -25 15 -7
8 -15 9 -25 3 -12 -7 -8 -12 20 -24 19 -9 43 -22 53 -29 18 -15 23 -52 8 -62
-6 -3 -8 3 -6 15 2 11 1 19 -3 19 -20 -3 -32 3 -32 16 0 17 -16 20 -25 4 -5
-7 -15 -5 -31 5 -30 20 -34 20 -35 -1 0 -15 -2 -15 -9 2 -5 11 -9 15 -9 10 -1
-6 -10 -11 -22 -12 -18 -2 -19 0 -7 14 34 43 57 60 69 53 20 -13 41 1 36 22
-4 14 -2 17 7 9 7 -6 17 -6 26 -1 9 5 17 5 21 -1 9 -15 39 1 39 21 0 10 -7 23
-15 30 -25 21 -17 35 20 36 29 1 35 -3 34 -20z"/>
<path d="M9376 3435 c-4 -27 -19 -105 -32 -173 -13 -68 -25 -128 -27 -135 -1
-8 15 -13 47 -15 l49 -3 -7 143 c-4 79 -11 163 -15 188 l-7 45 -8 -50z"/>
<path d="M52 5815 c-6 -12 -17 -16 -31 -12 -19 5 -21 1 -21 -44 0 -58 17 -86
37 -60 10 13 12 9 12 -29 -1 -25 -3 -38 -5 -30 -3 9 -13 21 -24 28 -19 12 -20
9 -19 -65 0 -64 2 -75 12 -60 35 54 38 54 36 2 -4 -90 0 -115 16 -115 8 0 15
-4 15 -9 0 -14 30 -41 46 -41 7 0 17 12 20 26 4 16 12 23 20 20 8 -3 14 -2 14
2 0 4 10 18 21 32 11 14 18 20 15 13 -4 -8 6 -12 31 -12 58 -1 75 -5 109 -23
26 -14 34 -15 49 -4 16 11 21 10 39 -11 21 -23 38 -27 104 -24 46 2 44 33 -4
50 -25 9 -40 23 -50 47 -14 32 -54 82 -54 67 0 -4 -5 -2 -12 5 -17 17 -21 16
-54 -13 -16 -14 -34 -23 -41 -21 -6 3 -14 2 -17 -2 -24 -24 -81 17 -83 60 -2
46 -78 100 -98 68 -3 -5 -13 -6 -22 -3 -11 4 -14 3 -9 -5 5 -8 0 -12 -13 -12
-12 0 -21 5 -21 10 0 6 5 10 12 10 7 0 22 12 35 26 14 16 28 24 38 21 9 -4 15
-1 15 7 0 7 11 18 24 26 31 16 23 44 -10 37 -14 -2 -25 2 -28 9 -3 8 -16 14
-29 14 -13 0 -28 5 -35 12 -7 7 -12 8 -12 3 0 -6 -4 -4 -9 4 -7 11 -11 10 -19
-4z"/>
<path d="M11955 4480 c-15 -17 -15 -19 4 -25 25 -8 49 -45 29 -45 -9 0 -9 -3
2 -10 12 -8 12 -10 -5 -10 -17 -1 -18 -2 -5 -13 13 -10 17 -37 11 -84 0 -7 -8
-13 -16 -13 -9 0 -12 -6 -9 -15 5 -11 2 -13 -10 -9 -9 3 -14 10 -11 14 3 5 -2
15 -10 22 -22 18 -33 30 -51 53 -13 18 -13 17 0 -11 8 -17 22 -34 31 -37 17
-7 21 -37 4 -37 -7 0 -9 -10 -5 -27 4 -16 7 -33 8 -40 1 -7 4 -11 7 -10 3 2
18 9 32 16 19 9 36 10 61 3 27 -7 47 -6 87 8 28 10 51 14 51 9 0 -5 -7 -12
-15 -15 -8 -4 -12 -10 -9 -15 3 -5 -2 -9 -10 -9 -9 0 -16 -5 -16 -10 0 -12 35
4 45 20 4 6 11 8 16 4 6 -4 6 -11 -1 -19 -17 -20 2 -26 76 -27 67 0 89 7 65
21 -7 5 -10 14 -7 20 4 6 1 11 -6 11 -10 0 -10 2 1 9 18 12 41 3 41 -15 0 -9
8 -12 23 -10 12 3 26 5 31 5 4 1 6 7 3 15 -3 8 -1 17 6 20 7 4 -1 4 -18 1 -16
-2 -24 -2 -17 1 15 7 6 24 -11 20 -7 -1 -9 -1 -4 1 12 8 8 33 -8 39 -21 9 -41
-6 -24 -18 11 -8 11 -9 -1 -5 -8 2 -15 8 -15 13 -1 19 -38 64 -48 57 -6 -3 -2
6 9 21 14 20 26 26 47 23 17 -2 33 3 44 15 9 10 22 18 30 18 7 0 13 5 13 10 0
10 -8 12 -48 13 -18 0 -22 4 -19 17 6 23 -10 49 -20 35 -12 -16 -51 -16 -57 1
-8 20 -22 18 -45 -7 -17 -19 -20 -19 -29 -4 -10 19 -46 17 -48 -3 -1 -6 -2
-17 -3 -23 0 -5 -9 -9 -19 -7 -11 2 -27 -3 -36 -11 -9 -8 -16 -10 -15 -5 4 21
-2 28 -12 14 -8 -12 -9 -10 -4 8 7 26 0 28 -22 6 -11 -11 -19 -12 -27 -4 -8 8
-8 13 1 18 9 6 7 11 -6 19 -15 10 -22 8 -36 -7z"/>
<path d="M11794 4482 c3 -6 0 -17 -8 -25 -8 -8 -12 -18 -8 -22 4 -4 -5 0 -19
9 -44 28 -114 1 -86 -33 7 -9 8 -12 1 -8 -13 7 -34 -33 -34 -65 0 -17 -2 -18
-15 -8 -13 11 -14 10 -10 -3 4 -8 1 -18 -4 -22 -6 -3 -9 -11 -6 -16 4 -5 1 -9
-4 -9 -6 0 -11 -11 -11 -24 0 -28 -15 -42 -25 -25 -4 5 -13 8 -21 5 -7 -3 -16
-1 -19 4 -4 6 -11 10 -16 10 -6 0 -8 -4 -5 -9 13 -20 -54 6 -70 27 -9 12 -13
12 -27 -3 -9 -9 -17 -12 -17 -7 0 5 10 17 23 25 l22 16 -22 -4 c-15 -2 -20 1
-17 9 3 8 -2 16 -10 19 -11 4 -13 1 -9 -10 4 -11 2 -14 -5 -9 -7 4 -12 2 -12
-4 0 -17 -19 -2 -34 29 -13 23 -13 28 -1 28 8 0 14 -3 13 -6 -2 -18 3 -20 16
-9 21 20 8 37 -25 33 -15 -2 -33 -6 -39 -10 -6 -3 -7 0 -4 9 4 10 1 16 -9 16
-9 0 -14 -7 -12 -17 1 -10 -3 -24 -9 -32 -9 -12 -8 -13 4 -7 12 6 11 4 -1 -6
-9 -7 -15 -25 -15 -40 1 -14 -2 -24 -6 -22 -4 3 -8 12 -8 20 0 8 -5 14 -11 14
-5 0 -8 -4 -4 -9 3 -5 -2 -16 -10 -24 -11 -12 -12 -17 -2 -20 6 -2 -5 -8 -25
-12 -36 -7 -53 -25 -25 -25 8 0 9 -3 1 -8 -16 -10 -37 -53 -30 -60 4 -3 20 2
35 11 40 23 44 22 65 -18 12 -21 22 -31 26 -24 4 6 16 9 27 7 11 -1 28 4 38
12 10 8 32 16 49 16 17 1 43 4 58 8 15 3 30 2 33 -4 4 -6 11 -7 17 -4 5 4 31
6 57 5 36 0 50 4 63 22 10 12 18 16 18 9 0 -7 5 -10 10 -7 7 4 9 -2 4 -19 -6
-24 -5 -25 27 -16 19 6 35 10 36 10 1 0 -1 8 -4 18 -6 14 -4 15 9 4 10 -8 17
-9 20 -3 1 5 16 12 32 15 16 3 29 6 30 8 1 2 8 11 15 21 12 15 12 17 -4 11
-15 -6 -16 -4 -6 14 7 12 8 22 4 22 -4 0 1 6 12 13 10 8 15 19 11 25 -3 6 -2
13 3 16 5 4 8 17 6 31 -2 24 5 30 35 25 11 -1 10 3 -5 18 -11 10 -22 15 -24
10 -2 -5 -10 0 -18 12 -8 12 -12 24 -9 27 3 4 6 0 6 -8 1 -10 5 -8 15 5 20 26
19 33 -6 47 -13 6 -19 7 -15 1z"/>
<path d="M3991 3377 c-7 -45 -21 -120 -32 -165 -10 -46 -17 -88 -13 -93 3 -5
26 -9 51 -9 l45 0 -6 63 c-3 34 -8 110 -12 170 -3 59 -10 109 -14 112 -3 2
-12 -33 -19 -78z"/>
<path d="M52 2733 c-7 -10 -10 -12 -6 -4 5 11 3 13 -10 8 -10 -4 -21 -7 -25
-7 -5 0 -9 -35 -10 -77 l-2 -77 24 22 c38 36 41 29 22 -69 -4 -23 -3 -39 4
-43 7 -5 11 4 11 23 0 17 4 31 9 31 4 0 6 12 3 26 -4 20 -2 25 8 19 13 -8 7
-89 -9 -109 -4 -6 -13 -25 -18 -41 -9 -27 -7 -32 14 -49 39 -29 39 -29 46 154
3 72 9 116 16 118 6 2 11 -7 11 -20 0 -13 3 -43 8 -68 5 -29 3 -70 -5 -114 -7
-38 -11 -72 -9 -74 8 -8 27 10 23 21 -2 7 0 20 5 29 5 10 11 37 14 60 10 68
23 81 24 22 0 -29 -6 -58 -15 -70 -17 -23 -21 -109 -4 -98 8 4 9 -1 5 -17 -4
-17 -2 -15 8 6 8 17 10 32 5 33 -15 6 -10 19 9 25 18 4 23 18 38 97 3 14 11
30 19 36 8 6 12 14 8 17 -3 4 -2 7 4 7 7 0 10 -31 7 -88 -3 -79 -1 -88 15 -88
16 0 17 4 5 42 -7 23 -10 44 -8 47 3 2 7 30 9 62 4 50 3 56 -10 45 -15 -12
-20 -4 -16 23 0 4 -5 7 -13 7 -17 0 -76 32 -76 42 0 3 -16 12 -35 18 -19 6
-34 15 -32 19 2 6 -48 71 -55 71 -2 0 -9 -8 -16 -17z"/>
<path d="M1074 2634 c-7 -3 -10 -15 -7 -27 4 -20 4 -21 -7 -3 -10 14 -14 16
-21 5 -5 -9 7 -27 38 -57 32 -31 48 -41 53 -32 4 7 10 8 13 3 12 -20 -9 -34
-36 -24 -17 7 -28 7 -32 1 -4 -6 1 -10 10 -10 11 0 15 -6 10 -19 -3 -11 1 -24
11 -32 15 -12 16 -11 10 9 -6 17 -3 22 9 22 14 0 16 -6 10 -27 -6 -27 -6 -27
9 -8 12 16 15 17 16 5 0 -27 -21 -41 -39 -28 -9 7 -13 8 -9 4 4 -5 2 -16 -5
-24 -10 -13 -9 -15 6 -9 10 4 16 3 13 -2 -3 -5 1 -11 9 -15 16 -6 39 27 27 39
-4 3 2 13 12 21 11 8 14 14 8 14 -7 0 -12 12 -12 26 0 21 4 25 20 21 11 -3 20
-1 20 3 0 5 -8 10 -17 13 -14 3 -11 7 12 16 23 9 26 14 15 21 -8 5 -18 6 -23
3 -4 -3 -7 1 -5 8 1 8 -8 31 -20 52 -20 31 -29 37 -55 36 -18 0 -37 -3 -43 -5z"/>
<path d="M2344 2458 c-4 -6 -2 -14 5 -16 8 -3 3 -15 -14 -38 -42 -55 -33 -66
55 -69 41 -1 87 -5 102 -9 24 -7 26 -6 21 13 -4 18 -2 20 13 14 18 -7 18 -6 0
12 -12 13 -15 20 -7 23 18 6 43 -7 36 -18 -3 -6 4 -10 17 -9 13 0 17 3 11 6
-7 2 -13 11 -13 19 0 8 -10 14 -22 15 -39 1 -57 7 -73 23 -9 8 -21 13 -28 10
-7 -2 -22 5 -34 16 -25 22 -58 26 -69 8z"/>
<path d="M789 2435 c-1 -3 -2 -11 -3 -17 0 -7 -10 -13 -21 -13 -11 0 -19 -5
-19 -10 1 -6 -4 -19 -12 -29 -12 -18 -10 -22 24 -42 39 -25 57 -30 48 -15 -8
12 27 8 36 -4 4 -5 2 -13 -5 -17 -7 -5 0 -8 18 -8 29 0 30 2 30 45 0 34 -4 47
-18 51 -9 3 -15 9 -12 14 3 4 -4 10 -15 13 -13 3 -18 10 -14 21 4 12 0 16 -15
16 -12 0 -22 -2 -22 -5z"/>
<path d="M1180 2344 c-17 -17 -20 -23 -8 -18 13 4 20 -1 27 -17 11 -30 4 -49
-15 -42 -10 3 -12 0 -8 -10 9 -23 32 -28 44 -9 9 16 12 15 29 -5 11 -13 31
-23 45 -23 26 0 30 5 52 65 6 19 7 18 14 -5 5 -15 8 -18 9 -8 1 9 7 19 14 22
10 5 10 7 0 12 -7 3 -13 10 -13 15 0 5 -9 18 -20 29 -22 22 -25 19 -10 -11 7
-13 7 -19 0 -19 -5 0 -10 -9 -10 -20 0 -14 -5 -18 -16 -13 -13 5 -13 7 -2 14
10 7 9 9 -4 9 -10 0 -18 7 -18 15 0 12 -3 12 -18 -2 -10 -10 -16 -26 -14 -37
4 -13 0 -17 -14 -14 -10 2 -19 10 -19 18 0 8 -4 21 -8 28 -6 8 -2 12 11 12 24
0 32 8 25 26 -8 22 -45 15 -73 -12z"/>
<path d="M2480 1133 c-172 -3 -236 -7 -242 -16 -4 -6 -8 -7 -8 -2 0 10 -513
15 -523 5 -3 -3 -61 -2 -129 1 -67 3 -154 2 -193 -3 -38 -4 -160 -8 -270 -7
-110 1 -208 -2 -217 -6 -20 -8 -339 -2 -354 7 -5 4 -16 3 -24 -2 -7 -4 -24 -4
-38 1 -13 5 -29 6 -35 2 -17 -11 -87 -12 -87 -2 0 13 -74 11 -87 -2 -8 -8 -13
-8 -17 0 -4 6 -26 11 -49 10 -35 -1 -38 -2 -17 -9 19 -6 12 -8 -29 -8 -37 0
-49 3 -40 9 9 6 -9 9 -52 7 l-66 -3 -2 -63 -2 -63 1113 3 c612 2 1227 4 1366
6 l252 3 0 69 c0 39 -3 69 -7 68 -5 -2 -114 -4 -243 -5z"/>
<path d="M2295 651 c-3 -5 3 -12 12 -14 10 -3 6 -4 -9 -4 -16 1 -28 4 -28 7 0
3 -11 6 -25 6 -14 1 -22 -2 -19 -7 5 -9 -25 -12 -148 -12 -38 0 -68 -3 -68 -7
0 -3 -21 -4 -47 -2 -27 2 -82 3 -123 2 -101 -1 -98 -1 -159 0 -29 0 -56 -2
-59 -5 -3 -2 -12 1 -20 8 -13 10 -14 9 -7 -3 8 -13 7 -13 -10 0 -14 11 -19 12
-22 3 -3 -7 -11 -13 -19 -13 -9 0 -12 5 -9 10 3 5 -1 10 -9 10 -8 0 -17 -4
-20 -9 -3 -5 -16 -7 -28 -3 -15 4 -19 2 -13 -7 6 -10 3 -10 -16 0 -13 7 -26
11 -29 10 -3 -2 -13 -7 -22 -12 -9 -5 -19 -5 -22 -1 -3 5 -57 7 -121 6 -86 -2
-114 0 -108 9 4 7 0 6 -10 -2 -11 -9 -17 -10 -17 -2 0 6 -8 11 -17 11 -15 0
-16 -2 -3 -10 11 -7 5 -10 -25 -10 -22 -1 -123 -3 -225 -6 -229 -7 -662 -10
-713 -5 -34 3 -36 4 -20 17 17 12 17 13 -4 11 -12 0 -24 -9 -26 -18 -3 -9 -16
-17 -31 -18 -51 -3 -56 -4 -56 -18 0 -7 11 -13 25 -13 14 0 25 -4 25 -10 0 -5
-6 -10 -12 -10 -9 0 -8 -4 2 -10 12 -8 9 -10 -12 -10 -16 0 -28 -5 -28 -11 0
-5 4 -8 9 -4 5 3 12 1 16 -5 4 -6 11 -7 17 -4 7 4 8 2 4 -4 -4 -6 -13 -9 -20
-6 -8 3 -17 0 -21 -7 -5 -7 -3 -10 6 -7 8 3 22 1 32 -4 25 -13 5 -48 -23 -41
-17 5 -20 0 -20 -31 0 -32 3 -36 26 -36 23 0 26 -3 22 -28 -4 -26 -2 -28 30
-25 19 1 37 5 40 8 3 2 11 0 19 -6 10 -9 13 -8 13 5 0 16 1 16 16 2 17 -18 28
-21 19 -6 -6 9 66 16 118 12 9 -1 17 2 17 7 0 5 -11 8 -25 6 -14 -1 -25 1 -25
6 0 4 -9 6 -20 4 -11 -2 -20 0 -20 5 0 5 29 8 64 7 38 -1 62 -6 59 -12 -2 -5
2 -2 11 9 13 16 33 19 170 22 90 1 158 -1 161 -7 4 -5 18 -9 33 -10 l27 0 -24
-10 c-17 -7 -27 -6 -32 3 -5 8 -12 9 -21 2 -20 -15 -77 -17 -94 -3 -8 6 -17 9
-21 5 -3 -3 -1 -6 5 -6 6 0 9 -7 5 -17 -4 -10 -2 -14 4 -10 10 6 75 7 308 6
39 -1 219 2 400 7 182 4 366 8 410 9 44 1 111 3 148 3 43 1 66 6 62 12 -3 6
-1 10 4 10 6 0 11 -5 11 -11 0 -8 17 -9 53 -5 28 3 54 6 57 6 3 0 -1 4 -9 9
-8 5 -26 5 -44 -1 -16 -6 -32 -7 -36 -2 -10 15 -51 17 -51 2 0 -9 -3 -9 -10 2
-7 11 -28 15 -77 15 -51 0 -70 -4 -75 -15 -5 -12 -7 -12 -7 3 -1 10 -8 17 -18
16 -11 0 -13 -3 -5 -6 23 -9 12 -22 -15 -16 -16 3 -59 5 -98 5 -38 0 -76 4
-82 10 -9 7 -15 6 -19 -6 -6 -15 -7 -15 -18 0 -10 13 -17 14 -33 6 -17 -10
-20 -9 -19 5 0 10 -7 18 -19 20 -11 1 -14 0 -7 -3 6 -3 12 -11 12 -17 0 -8 -3
-8 -12 1 -7 7 -17 8 -30 1 -12 -6 -18 -6 -18 1 0 5 6 10 14 10 8 0 16 7 20 15
3 9 0 15 -10 15 -8 0 -12 -4 -9 -10 3 -5 2 -10 -4 -10 -5 0 -11 5 -13 11 -3 9
-10 8 -28 -1 -18 -9 -25 -10 -28 -1 -2 6 -18 11 -35 11 -20 0 -27 3 -19 8 18
12 73 2 66 -12 -3 -6 0 -4 8 4 7 9 26 15 42 13 16 -1 37 2 46 7 12 6 23 4 36
-6 18 -15 17 -15 -8 -9 -16 3 -28 1 -28 -5 0 -5 4 -10 9 -10 5 0 17 -7 26 -16
13 -13 16 -14 14 -3 -1 8 1 22 6 32 6 15 10 15 23 5 10 -8 13 -8 9 -2 -4 7 1
15 10 19 10 3 19 1 21 -4 2 -6 8 -11 13 -11 6 0 7 5 3 12 -4 7 -3 8 4 4 6 -4
9 -13 5 -21 -6 -17 5 -19 26 -6 9 6 23 5 35 -1 18 -10 19 -9 8 4 -11 13 -9 16
13 20 14 3 25 1 25 -5 0 -6 5 -6 13 1 6 5 27 8 45 6 17 -2 32 0 32 4 0 4 39 6
86 5 77 -2 85 -1 68 12 -18 14 -18 14 2 15 12 0 27 -6 34 -14 12 -15 44 -10
34 5 -3 5 3 9 13 10 97 4 126 8 136 19 10 10 7 12 -10 7 -13 -3 -26 -1 -29 4
-3 5 -12 9 -20 9 -9 0 -12 -5 -8 -11 4 -8 1 -8 -13 -1 -11 6 -109 11 -233 12
-351 2 -360 2 -360 16 0 15 28 26 32 13 4 -12 144 -15 216 -5 25 3 42 2 42 -4
0 -6 5 -10 11 -10 5 0 8 4 5 8 -7 12 81 15 102 3 11 -6 23 -6 28 -2 14 13 131
20 142 9 6 -6 17 -6 30 1 14 7 110 10 299 7 153 -2 304 -1 336 2 l58 5 -3 36
c-3 42 11 39 -198 41 -174 3 -173 3 -164 -12 5 -9 2 -9 -9 1 -9 7 -17 10 -17
7 0 -4 -9 -2 -19 4 -12 6 -22 6 -26 1z"/>
<path d="M800 215 c0 -6 -26 -10 -58 -10 -81 1 -102 -4 -102 -26 0 -12 -7 -19
-17 -18 -11 0 -13 3 -5 6 13 5 17 33 5 33 -5 0 -15 -4 -23 -10 -8 -5 -17 -5
-20 -1 -9 15 -70 24 -70 11 0 -7 -13 -10 -34 -9 -19 2 -38 0 -42 -4 -4 -4 -12
-7 -18 -7 -6 0 -5 4 3 9 9 6 -40 8 -125 6 -85 -3 -131 -1 -119 5 16 7 17 9 3
9 -9 1 -20 -3 -23 -9 -3 -6 -14 -10 -23 -9 -14 0 -13 2 3 9 19 8 19 9 -2 9
-13 1 -23 -5 -23 -11 0 -9 -3 -9 -9 1 -12 19 -39 7 -50 -21 -7 -17 -5 -26 7
-35 14 -11 11 -13 -19 -14 -23 -1 -27 -3 -12 -6 13 -2 23 -11 23 -18 0 -21 19
-28 37 -13 12 9 15 9 9 0 -4 -6 -3 -12 2 -12 6 0 12 6 15 14 3 8 14 13 24 11
10 -2 21 -4 25 -4 4 -1 5 -7 3 -14 -4 -9 8 -12 39 -12 44 0 50 9 11 18 -14 3
-12 5 10 7 26 1 27 3 10 10 -16 7 -17 9 -3 9 9 1 20 -3 23 -9 3 -5 15 -10 26
-10 14 0 18 4 13 13 -5 8 -2 8 9 -2 14 -11 22 -11 47 -1 17 7 48 10 69 7 21
-2 44 -1 51 3 8 5 24 4 37 -1 17 -6 23 -5 23 4 0 10 -18 13 -65 12 -36 -1 -68
2 -71 7 -8 13 6 29 19 21 18 -12 79 -13 99 -2 10 5 18 6 18 1 0 -5 13 -9 30
-8 16 1 30 5 30 11 0 5 5 4 12 -3 16 -16 45 -15 51 1 3 6 6 3 6 -9 1 -20 -3
-21 -59 -17 -49 3 -60 1 -60 -11 0 -9 5 -16 11 -16 5 0 7 5 4 10 -4 6 2 9 14
7 24 -4 40 -17 21 -17 -7 0 -10 -3 -7 -6 4 -4 13 -2 21 5 16 14 126 4 126 -12
0 -5 7 -3 17 4 13 11 17 11 20 2 3 -7 16 -13 29 -13 13 0 24 -6 25 -12 0 -7 4
-4 9 7 7 17 9 17 9 3 1 -10 8 -18 17 -18 13 0 14 3 4 15 -10 12 -7 14 24 13
22 -1 33 -5 29 -12 -4 -6 0 -5 8 1 15 12 60 12 206 -1 24 -2 46 0 49 5 3 5 10
7 15 4 5 -4 9 -2 9 3 0 4 52 8 115 7 104 -2 137 4 103 18 -8 3 -6 6 5 6 9 1
17 -6 17 -14 0 -16 16 -20 24 -6 7 10 56 2 75 -13 11 -8 13 -8 7 2 -5 8 0 12
16 12 18 0 20 -2 8 -10 -9 -6 -10 -10 -3 -10 7 0 16 7 21 16 10 18 54 24 90
12 15 -5 22 -4 22 5 0 9 2 9 8 0 10 -15 122 -16 122 -1 0 5 -5 6 -12 2 -7 -5
-8 -3 -3 6 6 10 11 10 20 -3 7 -10 21 -17 31 -17 16 0 17 2 4 10 -9 6 -10 10
-3 10 6 0 15 -4 18 -10 9 -15 95 -13 95 3 0 9 2 9 8 0 5 -7 23 -10 47 -8 76 9
128 17 143 23 10 3 13 1 8 -6 -8 -13 20 -12 39 0 6 4 103 5 215 3 128 -2 197
0 183 5 -26 11 -30 20 -9 20 8 0 22 -7 31 -16 17 -17 51 -11 40 7 -5 7 1 9 16
7 16 -2 25 3 27 15 2 10 -3 17 -13 17 -9 0 -13 4 -10 10 3 6 1 10 -4 10 -6 0
-11 -6 -11 -12 0 -10 -3 -9 -9 1 -6 9 -10 10 -16 2 -5 -9 -11 -9 -23 1 -12 10
-14 10 -8 1 4 -7 2 -13 -3 -13 -6 0 -11 4 -11 8 0 5 -43 9 -95 9 -52 0 -92 -3
-89 -8 3 -5 -5 -9 -18 -9 -18 0 -20 2 -8 10 12 8 11 10 -7 10 -13 0 -23 -4
-23 -10 0 -5 -18 -10 -40 -10 -22 0 -40 5 -40 11 0 6 -7 4 -15 -5 -16 -15 -49
-11 -39 5 3 5 -2 6 -10 3 -9 -3 -13 -11 -9 -17 4 -6 1 -7 -8 -2 -20 13 -124
17 -306 13 -57 -2 -103 -1 -103 2 0 3 -20 5 -45 6 -25 0 -45 -3 -45 -9 0 -6
-5 -6 -12 1 -19 14 -118 26 -118 14 0 -6 -16 -9 -35 -8 -19 2 -32 -1 -29 -5 3
-5 -4 -9 -16 -9 -12 0 -19 4 -16 9 3 4 -14 8 -37 8 -23 0 -151 3 -284 8 -135
4 -243 3 -243 -1 0 -12 -113 -11 -122 1 -5 7 -8 7 -8 0z"/>
</g>
</svg>
