<?xml version="1.0" standalone="no"?>
<!DOCTYPE svg PUBLIC "-//W3C//DTD SVG 20010904//EN"
 "http://www.w3.org/TR/2001/REC-SVG-20010904/DTD/svg10.dtd">
<svg version="1.0" xmlns="http://www.w3.org/2000/svg"
 width="1349.000000pt" height="660.000000pt" viewBox="0 0 1349.000000 660.000000"
 preserveAspectRatio="xMidYMid meet">
<metadata>
Created by potrace 1.16, written by Peter Selinger 2001-2019
</metadata>
<g transform="translate(0.000000,660.000000) scale(0.100000,-0.100000)"
fill="#000000" stroke="none">
<path d="M0 6590 c0 -7 2255 -10 6745 -10 4490 0 6745 3 6745 10 0 7 -2255 10
-6745 10 -4490 0 -6745 -3 -6745 -10z"/>
<path d="M13453 3648 c-4 -7 -6 -21 -4 -32 2 -11 -2 -17 -11 -14 -7 3 -13 11
-13 19 0 21 -17 30 -33 17 -10 -9 -16 -8 -22 1 -6 11 -8 11 -12 1 -3 -10 -9
-10 -26 -1 -19 10 -22 9 -28 -14 -3 -14 -4 -37 -2 -50 3 -15 -1 -30 -9 -37
-12 -9 -14 -9 -13 3 4 28 0 38 -15 33 -10 -4 -15 0 -15 15 0 29 -55 30 -63 1
-3 -11 -13 -20 -22 -20 -9 0 -26 -10 -37 -22 -18 -21 -19 -21 -14 -3 6 18 4
18 -13 -2 -16 -19 -20 -20 -25 -7 -3 8 -10 13 -15 10 -5 -4 -11 0 -14 6 -3 7
-10 0 -16 -17 -7 -16 -15 -32 -19 -35 -4 -3 -15 -21 -25 -40 -10 -19 -15 -26
-11 -15 10 35 15 65 9 65 -4 0 -20 -13 -38 -29 -32 -31 -50 -32 -40 -3 3 9 3
14 -1 11 -4 -4 -8 -16 -11 -28 -2 -12 -11 -28 -19 -37 -9 -8 -16 -20 -16 -25
0 -6 -4 -7 -10 -4 -5 3 -10 0 -10 -8 0 -8 -6 -17 -13 -20 -7 -3 -18 -21 -24
-40 -10 -34 -9 -35 25 -51 19 -9 32 -19 29 -22 -3 -4 -20 1 -37 10 -27 13 -31
13 -26 1 3 -9 0 -15 -8 -15 -7 0 -19 -11 -26 -25 -19 -35 -29 -31 -25 10 2 19
-1 35 -6 35 -5 0 -8 3 -7 8 4 11 -35 92 -44 92 -4 0 -8 7 -8 15 0 18 -16 20
-26 4 -5 -8 -9 -8 -14 1 -5 8 -11 1 -18 -19 -6 -17 -14 -31 -17 -31 -3 0 -4 4
0 9 3 5 1 12 -4 15 -5 3 -12 -2 -15 -11 -6 -14 -10 -13 -26 11 l-18 29 -13
-42 c-13 -44 -23 -51 -33 -24 -5 12 -9 14 -18 5 -18 -18 -26 -15 -30 10 -3 24
-28 38 -28 16 0 -8 -11 -25 -24 -37 -22 -21 -24 -21 -28 -5 -2 15 -8 10 -25
-18 -25 -42 -53 -43 -53 -1 0 14 -4 22 -10 18 -6 -4 -8 -10 -5 -15 6 -10 -19
-31 -41 -34 -29 -4 -38 -29 -23 -62 11 -22 21 -29 42 -29 16 0 32 -7 38 -17 9
-16 6 -17 -21 -11 -17 3 -30 2 -29 -3 4 -22 -2 -34 -16 -34 -8 0 -15 -4 -15
-10 0 -5 6 -7 13 -4 8 3 20 -2 27 -11 7 -8 18 -15 24 -15 6 0 16 -8 22 -17 10
-16 6 -18 -32 -20 -25 -1 -44 3 -44 9 0 5 -7 7 -16 4 -10 -4 -25 3 -41 20 -23
25 -25 25 -44 9 -10 -10 -19 -23 -19 -28 0 -6 8 -3 18 6 26 24 35 21 30 -8 -4
-21 -2 -24 16 -20 16 4 24 -1 33 -20 12 -27 5 -33 -15 -13 -7 7 -12 9 -12 6 0
-18 36 -38 68 -38 44 0 58 8 64 35 5 25 35 22 59 -6 9 -10 26 -19 39 -19 16 0
20 -4 16 -15 -6 -17 9 -21 19 -5 8 14 42 13 51 -2 12 -20 -24 -36 -69 -30 -23
3 -43 9 -45 13 -5 13 -72 11 -72 -2 0 -8 -4 -8 -14 0 -9 8 -16 8 -20 2 -4 -5
3 -12 14 -16 11 -4 18 -11 14 -16 -3 -5 -11 -6 -17 -3 -9 5 -9 4 -1 -5 14 -15
47 -3 40 15 -3 8 1 14 9 14 8 0 15 -5 15 -10 0 -6 17 -10 38 -9 21 2 45 -1 52
-6 29 -18 56 -15 82 10 30 27 53 32 61 13 4 -10 8 -9 16 2 8 11 11 11 11 2 0
-9 5 -10 19 -2 11 5 33 10 50 10 24 0 29 -4 28 -20 -1 -23 -9 -25 -38 -7 -17
10 -22 9 -30 -6 -8 -14 -14 -15 -32 -6 -12 7 -18 8 -14 3 4 -4 -2 -13 -14 -20
l-22 -11 20 -12 c17 -8 26 -6 49 12 15 12 24 16 20 8 -5 -8 -4 -16 4 -21 19
-12 3 -29 -20 -23 -13 4 -26 -1 -35 -13 -20 -26 -18 -47 5 -77 25 -31 25 -36
3 -32 -10 2 -22 4 -27 4 -4 1 -6 7 -3 15 3 8 -1 17 -9 20 -8 3 -14 1 -14 -5 0
-6 -9 -8 -19 -4 -27 8 -31 -4 -14 -43 12 -31 16 -32 53 -28 22 3 39 2 39 -2
-5 -34 13 -42 37 -17 9 8 21 15 27 15 7 0 4 -7 -6 -14 -15 -12 -15 -15 -2 -26
8 -7 13 -16 10 -20 -3 -5 4 -15 16 -24 19 -13 20 -17 7 -29 -8 -8 -29 -18 -48
-22 -41 -9 -66 -30 -47 -39 12 -6 -29 3 -49 11 -6 2 -26 -8 -43 -23 -18 -14
-34 -24 -37 -22 -8 9 8 38 17 32 5 -3 9 0 9 5 0 6 -7 11 -16 11 -9 0 -13 5 -9
13 4 6 0 4 -8 -5 -15 -19 -32 -25 -22 -8 3 6 1 10 -4 10 -19 0 -12 17 9 23 10
3 24 -1 30 -8 14 -17 48 -26 55 -14 3 4 13 6 23 3 15 -5 15 -4 -1 9 -10 8 -16
19 -15 23 2 5 -1 10 -7 12 -5 1 -10 -3 -10 -10 0 -21 -23 -19 -41 5 -11 12
-27 26 -36 30 -10 3 -18 16 -18 27 0 12 5 18 10 15 6 -3 10 -12 10 -19 0 -8
14 -16 31 -20 45 -9 49 -8 43 9 -4 8 -10 12 -15 9 -8 -4 -58 26 -84 51 -16 16
-14 45 4 46 9 1 5 4 -9 8 -14 4 -31 3 -38 -2 -8 -7 -18 -5 -30 7 -10 9 -22 13
-25 9 -4 -3 -7 -1 -7 5 0 18 -40 14 -47 -5 -4 -9 -1 -19 5 -21 7 -2 10 -7 7
-12 -3 -4 4 -6 15 -3 11 3 20 3 20 -1 0 -12 -34 -45 -42 -40 -14 9 -9 -14 7
-30 8 -8 15 -22 15 -32 0 -23 56 -12 87 18 26 24 32 16 7 -10 -15 -15 -15 -16
2 -23 11 -3 22 -2 25 3 3 5 9 2 13 -8 8 -20 -14 -38 -28 -24 -13 13 -66 13
-66 0 0 -5 11 -10 24 -10 14 0 28 -5 32 -12 5 -8 2 -9 -9 -5 -10 3 -17 2 -17
-3 0 -6 4 -10 9 -10 11 0 9 -26 -3 -37 -4 -4 -6 -1 -4 7 2 8 -3 14 -11 12 -7
-1 -19 3 -27 9 -11 9 -14 8 -14 -5 0 -9 -6 -16 -12 -16 -7 0 -5 -5 6 -11 15
-9 16 -13 5 -20 -17 -11 -30 -11 -27 -1 3 8 -5 12 -28 12 -8 0 -13 -4 -10 -9
10 -15 -22 -21 -36 -7 -7 7 -20 11 -28 8 -8 -3 2 9 24 27 21 17 43 31 48 31 6
0 7 7 4 16 -3 8 -2 12 3 9 5 -3 13 0 16 6 11 17 -2 22 -25 9 -20 -10 -21 -10
-16 8 4 11 1 32 -5 46 -10 21 -10 29 1 39 7 6 10 7 7 2 -3 -6 -2 -17 4 -25 6
-11 9 -8 9 13 0 17 -5 27 -15 27 -7 0 -18 8 -24 17 -6 12 -13 14 -23 7 -22
-17 -38 -11 -56 20 -13 22 -14 30 -5 33 10 4 9 8 -2 20 -8 8 -13 19 -10 24 8
12 -8 12 -20 0 -6 -6 -11 -1 -11 15 -2 25 3 27 41 13 6 -2 12 0 15 5 3 5 -4
10 -14 12 -21 3 -38 23 -32 39 4 11 11 11 37 0 24 -9 34 36 11 54 -11 9 -13
15 -5 18 7 2 10 10 7 18 -3 8 -12 11 -20 8 -8 -3 -14 0 -14 7 0 8 -12 10 -37
7 -52 -8 -121 -24 -105 -26 24 -2 13 -31 -13 -31 -15 0 -29 -8 -36 -22 -10
-18 -9 -20 5 -15 12 5 16 0 16 -17 0 -26 27 -43 44 -26 15 15 30 12 17 -3 -6
-8 -8 -17 -4 -20 3 -4 -8 -7 -25 -7 -18 0 -35 7 -40 16 -8 14 -10 12 -16 -10
-3 -14 -13 -26 -22 -26 -8 0 -13 4 -10 8 3 5 -8 9 -24 10 -35 1 -38 -7 -11
-30 16 -14 23 -14 44 -3 17 8 30 9 42 2 12 -6 16 -6 11 1 -3 6 -2 13 4 17 5 3
11 -1 11 -9 1 -9 3 -20 4 -26 1 -5 3 -15 4 -20 0 -6 4 -9 9 -9 18 3 21 -3 12
-26 -5 -14 -6 -24 -2 -24 4 1 16 1 27 0 17 -1 18 -3 5 -11 -13 -8 -12 -10 4
-10 19 0 19 0 1 -14 -11 -8 -20 -24 -20 -37 -3 -54 -24 -85 -40 -59 -8 13 -25
13 -25 0 0 -5 10 -21 22 -35 20 -24 23 -24 30 -8 7 16 8 16 5 -2 -3 -23 -72
-42 -93 -24 -9 7 -19 7 -31 0 -21 -11 -53 2 -34 13 6 4 16 4 21 1 6 -4 17 -1
25 5 12 10 18 10 30 0 9 -7 19 -9 23 -5 4 4 2 10 -4 12 -6 2 -9 15 -6 30 3 17
1 24 -6 19 -6 -3 -13 0 -15 6 -3 7 -6 2 -6 -11 -1 -29 -19 -17 -26 17 -2 15 0
19 11 15 8 -3 14 -1 14 5 0 5 -10 12 -22 16 -22 5 -22 6 -6 23 16 16 19 16 38
-2 12 -11 20 -13 20 -6 0 6 -7 14 -15 17 -10 4 -13 13 -10 25 4 13 -2 22 -24
34 -17 8 -31 22 -31 30 0 8 -9 15 -20 15 -14 0 -20 7 -20 21 0 11 -4 17 -10
14 -6 -4 -10 -14 -9 -23 3 -39 -2 -72 -12 -72 -14 0 -40 26 -33 33 3 3 -3 14
-13 24 -20 20 -63 28 -63 12 0 -5 -6 -9 -14 -9 -10 0 -14 10 -14 28 1 16 -4
37 -10 48 -11 18 -11 18 -12 -4 l0 -23 -22 21 c-19 18 -24 19 -26 6 -4 -17
-22 -22 -22 -6 0 13 32 45 53 53 9 3 17 11 17 16 0 13 -29 3 -54 -18 -11 -9
-16 -11 -13 -5 9 15 -25 24 -46 12 -9 -4 -14 -14 -11 -22 3 -7 -2 -13 -11 -13
-8 0 -15 5 -15 10 0 5 -7 4 -15 -3 -12 -10 -15 -10 -15 3 0 10 -6 13 -20 10
-20 -5 -26 -18 -12 -26 4 -2 1 -2 -5 -1 -28 7 -11 -13 19 -21 17 -6 34 -16 36
-24 3 -10 0 -12 -11 -8 -9 3 -19 2 -22 -3 -11 -17 -25 -11 -25 11 0 18 -4 20
-26 15 -17 -5 -23 -3 -19 4 4 6 1 18 -7 27 -11 14 -10 15 9 9 30 -9 38 9 12
28 -14 10 -20 22 -17 34 5 16 0 21 -26 24 -44 5 -66 -1 -66 -18 0 -9 -5 -12
-12 -8 -7 4 -3 -3 10 -15 26 -25 28 -41 7 -41 -8 0 -16 -4 -16 -10 -1 -5 -2
-14 -3 -18 0 -5 -9 -16 -18 -26 -10 -10 -18 -22 -18 -27 0 -6 -3 -8 -7 -6 -11
7 -53 -11 -53 -22 0 -5 10 -12 23 -15 l22 -7 -22 -11 c-13 -6 -23 -15 -23 -21
0 -6 -5 -6 -12 0 -7 6 -29 16 -50 22 -20 7 -38 18 -41 24 -6 15 -87 10 -87 -5
0 -5 4 -7 8 -4 5 3 19 -4 31 -15 12 -11 25 -18 30 -15 5 3 14 -1 21 -9 7 -8
19 -15 26 -15 8 0 14 -8 14 -17 0 -13 2 -15 8 -5 9 13 42 6 54 -12 4 -6 15 -3
30 9 14 12 18 14 10 4 -16 -22 7 -46 26 -27 7 7 12 8 12 2 0 -5 14 -18 30 -27
17 -10 30 -25 30 -34 0 -12 -7 -8 -25 11 -18 19 -31 26 -43 21 -9 -4 -23 -10
-31 -13 -10 -4 -12 -1 -6 7 6 10 3 11 -15 1 -12 -7 -25 -21 -28 -32 -4 -17 -8
-15 -34 17 -32 38 -47 41 -29 7 9 -18 6 -24 -22 -43 -17 -13 -34 -27 -35 -31
-2 -5 -9 -5 -14 -2 -7 5 -8 2 -3 -5 4 -8 17 -10 31 -7 18 5 24 2 24 -9 0 -13
7 -15 38 -10 l37 7 -33 -21 c-35 -23 -46 -26 -37 -12 7 13 -15 26 -24 14 -3
-5 -14 -13 -25 -16 -15 -6 -17 -4 -13 13 6 23 -24 43 -31 22 -2 -7 -14 -12
-26 -12 -12 0 -27 -5 -33 -11 -8 -8 -13 -8 -17 0 -4 6 -4 11 1 11 4 0 1 5 -7
10 -11 7 -7 10 17 10 35 0 63 22 63 48 -1 16 -1 16 -13 0 -12 -15 -14 -15 -25
3 -15 23 -15 32 -2 24 6 -3 19 -3 31 0 17 6 18 9 7 22 -9 12 -10 17 -2 20 7 2
10 13 7 23 -3 11 0 20 6 20 6 0 11 9 11 20 0 18 -3 19 -20 10 -18 -10 -24 -7
-21 13 0 4 -4 6 -10 5 -6 -2 -13 9 -14 25 -3 22 0 27 18 27 12 0 18 4 12 8
-20 15 -15 51 10 68 22 15 25 14 46 -5 27 -25 33 -26 54 -5 20 21 15 38 -13
42 -12 2 -22 9 -22 16 0 18 21 35 37 29 11 -4 13 2 9 28 -2 19 -7 43 -11 55
-4 13 -1 27 10 38 15 15 15 16 -9 16 -17 0 -26 5 -26 16 0 14 -2 15 -17 3 -14
-12 -16 -12 -11 2 8 21 -30 55 -44 41 -6 -6 -10 -22 -10 -36 0 -14 -4 -26 -9
-26 -4 0 -11 -16 -15 -35 -6 -34 -34 -51 -34 -21 0 16 -18 31 -27 23 -3 -3 2
-20 11 -38 21 -42 20 -56 -4 -64 -11 -3 -20 -12 -20 -20 0 -7 -3 -22 -6 -32
-6 -15 -4 -16 7 -5 22 21 30 13 13 -13 -8 -13 -13 -29 -9 -35 3 -5 2 -10 -4
-10 -5 0 -13 5 -16 10 -10 17 -25 11 -25 -10 0 -11 5 -20 10 -20 6 0 10 -7 10
-15 0 -8 -6 -15 -12 -15 -7 0 -19 -4 -27 -9 -11 -7 -10 -14 8 -40 19 -26 20
-31 6 -31 -8 0 -20 11 -25 24 -5 13 -28 33 -55 46 -46 22 -62 20 -87 -15 -5
-7 -14 -6 -28 3 -28 17 -36 15 -18 -5 25 -30 31 -44 17 -42 -25 3 -39 -1 -39
-11 0 -5 6 -10 14 -10 9 0 14 -9 13 -20 -1 -11 -5 -20 -11 -20 -5 0 -15 -8
-22 -17 -12 -17 -14 -17 -37 5 -20 19 -26 20 -30 8 -4 -9 -14 -13 -29 -9 -36
9 -48 23 -42 48 5 19 2 21 -24 17 -21 -3 -31 1 -35 13 -4 9 -3 14 2 11 5 -3
12 1 15 10 6 16 -6 40 -29 57 -6 4 -5 10 3 16 10 6 8 10 -8 14 -12 3 -19 10
-16 16 4 5 -3 16 -15 25 -12 8 -18 19 -14 25 4 8 15 5 32 -9 26 -20 53 -27 53
-12 0 8 -70 37 -82 34 -4 -1 -9 7 -13 17 -6 20 -39 19 -52 -2 -3 -5 -1 -7 4
-4 6 4 14 0 17 -9 11 -28 7 -36 -15 -29 -18 6 -20 4 -14 -16 6 -18 4 -21 -9
-16 -10 4 -15 3 -11 -2 3 -5 -1 -11 -7 -14 -9 -3 -5 -12 12 -28 21 -21 22 -24
7 -27 -25 -5 -21 -21 8 -32 14 -5 25 -15 25 -21 0 -8 -4 -8 -12 -1 -7 5 -28
13 -45 17 -32 6 -33 6 -27 -24 4 -21 3 -31 -5 -31 -7 0 -10 4 -6 9 9 16 -29
31 -46 19 -11 -8 -11 -9 4 -4 18 6 21 -1 9 -22 -7 -10 -15 -10 -38 -2 -35 14
-40 12 -36 -12 3 -14 -3 -18 -23 -18 -17 0 -24 -4 -19 -11 5 -9 -1 -10 -20 -5
-20 5 -26 3 -21 -5 5 -8 1 -9 -14 -4 -28 9 -47 -7 -62 -52 -11 -33 -10 -38 12
-55 15 -12 18 -18 9 -17 -17 1 -60 -11 -60 -18 0 -2 7 -14 15 -26 19 -30 9
-43 -47 -54 -43 -10 -47 -9 -59 13 -6 13 -16 21 -21 18 -4 -3 -8 2 -8 10 0 22
-27 20 -34 -1 -3 -10 -3 0 0 22 3 22 11 43 17 47 9 5 8 8 -2 8 -8 0 -12 3 -8
6 13 14 27 -7 17 -27 -12 -20 -6 -22 25 -9 11 5 14 9 7 9 -16 1 -7 38 16 64
23 26 9 30 -22 6 -15 -11 -33 -19 -40 -16 -8 3 -22 -1 -33 -8 -10 -8 -28 -11
-40 -9 -15 4 -23 0 -26 -13 -4 -15 -5 -14 -6 4 0 12 3 24 8 27 4 3 6 17 3 31
-4 22 0 27 24 24 3 0 14 11 25 25 11 14 28 28 39 31 11 4 20 11 20 18 0 8 -3
8 -12 -1 -16 -16 -80 -16 -96 0 -9 9 -12 9 -12 0 0 -7 -7 -12 -15 -12 -18 0
-20 16 -2 23 10 4 10 6 0 6 -20 1 -15 22 11 46 14 13 22 26 18 29 -3 4 4 9 16
13 12 3 22 9 22 13 0 5 -10 6 -21 3 -19 -5 -20 -4 -9 16 6 13 9 25 6 29 -3 3
-6 0 -6 -6 0 -7 -6 -11 -12 -9 -7 1 -13 -7 -12 -18 0 -17 -6 -20 -40 -20 -23
0 -47 -1 -53 -3 -21 -7 -15 -32 10 -42 17 -7 18 -9 5 -9 -12 -1 -18 -9 -18
-26 0 -16 -6 -25 -15 -25 -8 0 -15 -4 -15 -9 0 -4 -11 -6 -25 -3 -14 2 -25 9
-25 15 0 6 -3 7 -7 4 -3 -4 -15 0 -25 10 -23 21 -36 10 -14 -13 11 -11 14 -20
7 -28 -7 -8 -1 -15 20 -25 16 -7 29 -19 29 -27 0 -8 5 -14 12 -14 7 0 5 -7 -5
-18 -12 -13 -13 -22 -5 -35 9 -16 8 -17 -9 -9 -10 6 -37 29 -60 53 -24 23 -46
40 -49 36 -4 -3 1 -13 10 -22 22 -22 20 -28 -5 -20 -16 5 -19 4 -14 -5 4 -7 1
-17 -6 -22 -11 -8 -10 -9 4 -4 20 6 21 2 6 -26 -10 -18 -9 -20 5 -15 9 4 16 2
16 -3 0 -6 7 -10 16 -10 8 0 12 -5 9 -10 -4 -6 -27 -8 -58 -5 -40 5 -48 4 -34
-5 20 -13 23 -32 3 -24 -11 4 -13 0 -9 -17 4 -15 3 -20 -5 -15 -18 11 -17
-325 1 -343 9 -11 9 -13 0 -7 -10 6 -13 -197 -13 -998 l0 -1006 -2500 0 -2500
0 0 1025 c0 564 -3 1025 -8 1025 -4 0 -12 -10 -17 -22 -14 -31 -50 -38 -42 -9
3 14 0 21 -9 21 -8 0 -14 5 -14 12 0 22 -23 -9 -24 -33 0 -12 -7 -24 -13 -27
-16 -5 -17 20 -2 35 8 8 8 13 0 17 -6 4 -11 16 -11 27 0 23 -4 24 -35 3 -27
-18 -34 -54 -11 -54 8 0 18 -4 21 -10 3 -6 -5 -10 -19 -10 -16 0 -27 7 -31 21
-5 16 -10 18 -21 8 -11 -9 -14 -8 -15 7 -1 11 -1 24 0 30 1 7 -4 12 -11 11
-33 -1 -49 4 -43 13 3 6 1 10 -4 10 -6 0 -11 -9 -11 -20 0 -20 -5 -22 -72 -24
-17 -1 -26 -6 -25 -16 1 -12 9 -15 31 -12 24 4 28 2 23 -12 -4 -10 -7 -20 -7
-22 0 -2 -5 -4 -11 -4 -22 0 -41 -30 -35 -55 4 -15 1 -27 -7 -32 -8 -4 -16
-16 -20 -25 -3 -10 -13 -18 -22 -18 -19 0 -19 0 10 40 30 41 31 49 5 47 -11
-1 -20 -7 -20 -14 0 -10 -5 -11 -18 -5 -9 5 -23 7 -31 4 -8 -3 -12 1 -9 9 3 8
13 13 22 13 12 -1 16 7 16 33 0 20 -4 32 -10 28 -5 -3 -10 1 -10 9 0 9 -4 16
-10 16 -5 0 -10 8 -10 18 0 15 -2 15 -10 2 -9 -13 -12 -13 -23 2 -17 21 -49
17 -57 -7 -6 -18 -7 -18 -13 -1 -4 11 -13 16 -22 12 -10 -4 -20 3 -27 19 -9
20 -18 25 -50 25 -27 0 -38 -4 -38 -15 0 -10 10 -15 30 -15 l31 0 -18 -24
c-17 -22 -18 -23 -21 -5 -2 10 -9 19 -16 19 -17 0 -31 18 -41 48 -6 22 -5 23
14 13 18 -10 20 -9 14 6 -3 10 -13 26 -22 36 -15 17 -16 17 -28 1 -7 -10 -13
-14 -13 -9 0 5 7 16 15 25 18 19 10 52 -15 68 -17 10 -20 9 -27 -15 -6 -25
-25 -53 -36 -53 -3 0 -5 19 -5 41 -1 23 -6 47 -11 52 -8 8 -11 6 -11 -6 0 -10
-8 -17 -20 -17 -22 0 -26 -24 -12 -75 5 -17 6 -41 2 -55 l-6 -25 -9 25 -8 25
-8 -23 c-10 -27 -29 -29 -29 -3 0 29 -45 36 -72 11 -27 -25 -30 -25 -47 2 -9
15 -10 23 -3 26 6 2 16 18 22 37 8 24 20 37 42 44 41 14 48 14 48 -4 0 -8 5
-15 11 -15 12 0 1 43 -12 48 -4 2 -6 9 -3 17 3 8 12 11 20 8 9 -3 14 2 14 15
0 11 9 26 20 33 15 10 17 18 10 29 -8 13 -10 12 -10 -2 0 -11 -8 -18 -20 -18
-11 0 -20 7 -20 15 0 16 -29 10 -42 -9 -10 -14 -8 32 2 64 4 14 8 21 9 16 1
-5 8 -3 16 4 10 9 15 9 15 1 0 -19 39 -12 50 9 8 15 8 18 -3 14 -7 -2 -42 8
-78 24 -58 26 -67 27 -94 16 -16 -7 -25 -14 -20 -15 6 -1 15 -3 20 -4 6 -2 16
-3 23 -4 6 0 12 -14 12 -30 0 -16 6 -31 15 -35 8 -3 12 -12 9 -21 -4 -9 -9
-13 -12 -11 -3 3 -11 -2 -18 -12 -12 -15 -13 -15 -14 -1 0 9 -6 19 -14 22 -9
4 -12 17 -10 37 2 19 0 29 -6 25 -6 -4 -17 1 -25 9 -12 12 -22 13 -41 6 -35
-14 -44 -12 -44 4 0 8 -5 18 -12 22 -6 4 -8 3 -5 -2 3 -6 1 -16 -4 -24 -8 -12
-12 -12 -16 -2 -11 29 -25 10 -18 -25 8 -44 23 -66 40 -59 20 7 73 -58 61 -76
-8 -13 -14 -13 -47 1 -23 9 -39 23 -39 32 0 9 -7 19 -15 23 -18 6 -20 -5 -4
-21 13 -13 5 -43 -11 -43 -5 0 -10 6 -10 14 0 7 -7 19 -15 26 -8 6 -13 17 -12
23 1 7 -8 12 -20 11 -16 0 -23 5 -23 19 0 16 2 17 15 7 13 -11 14 -10 7 9 -4
12 -23 29 -42 39 -25 12 -36 26 -41 48 -9 46 -17 55 -45 48 -19 -5 -24 -2 -24
13 0 20 -35 47 -50 38 -6 -4 -10 4 -10 17 0 18 2 20 10 8 8 -13 12 -12 25 8 9
12 21 19 27 16 30 -19 79 -21 99 -5 20 16 19 16 -28 16 -35 0 -47 4 -45 14 2
10 -4 12 -23 7 -17 -4 -25 -2 -25 6 0 17 -56 42 -75 34 -8 -3 -15 -10 -15 -17
0 -6 7 -9 15 -6 8 4 17 2 20 -4 4 -5 12 -6 18 -2 9 5 9 3 0 -8 -10 -12 -10
-18 -1 -27 8 -8 9 -12 1 -12 -6 0 -13 7 -17 15 -10 27 -24 16 -22 -17 1 -23
-4 -33 -15 -36 -22 -4 -31 22 -19 53 7 20 6 25 -5 25 -12 0 -15 11 -13 45 3
39 6 44 22 39 12 -4 16 -2 12 5 -4 6 -16 11 -27 11 -21 0 -28 35 -8 42 7 2 6
8 -4 17 -26 21 -37 -15 -27 -89 8 -67 0 -93 -25 -84 -7 3 -25 -6 -40 -20 -32
-30 -35 -31 -35 -11 0 8 17 23 37 32 38 18 38 19 41 85 3 59 1 67 -17 73 -13
4 -21 17 -23 38 -2 26 -7 32 -24 30 -14 -1 -25 6 -31 20 -9 19 -17 23 -47 19
-20 -2 -36 -8 -36 -13 0 -18 -28 -8 -33 11 -6 24 -35 26 -44 3 -4 -11 3 -24
23 -40 29 -23 51 -25 46 -4 -1 6 5 11 13 11 8 0 12 -6 9 -14 -3 -8 -1 -24 6
-35 9 -17 8 -21 -6 -21 -13 0 -14 -3 -4 -15 7 -8 10 -24 7 -34 -3 -14 3 -25
19 -36 13 -8 24 -22 24 -30 0 -11 -10 -8 -37 11 l-38 25 -9 -22 c-8 -16 -6
-24 6 -33 20 -15 27 -58 10 -64 -9 -3 -11 3 -6 23 6 25 5 26 -15 16 -11 -7
-21 -16 -21 -22 0 -6 4 -7 10 -4 6 3 7 -1 4 -10 -5 -11 0 -18 15 -22 20 -5 21
-7 5 -24 -11 -12 -13 -25 -8 -41 4 -13 7 -27 6 -33 -1 -5 4 -2 12 8 8 11 12
25 9 33 -6 17 9 18 25 2 9 -9 15 -9 24 0 7 7 27 12 45 12 36 0 53 -21 53 -65
0 -33 -22 -29 -31 6 -4 13 -7 17 -8 8 -1 -18 -49 -18 -60 0 -8 13 -25 2 -34
-21 -5 -13 -1 -18 13 -18 27 0 25 -11 -5 -34 -14 -10 -25 -27 -25 -36 0 -13
-6 -17 -21 -13 -16 4 -18 8 -7 14 11 7 10 11 -2 18 -12 8 -12 13 4 29 25 28 7
33 -38 11 -48 -23 -46 -23 -46 -3 0 8 5 12 10 9 15 -9 12 7 -5 29 -21 28 -19
34 10 28 21 -4 25 -1 25 21 0 14 7 30 16 35 23 13 8 34 -18 26 -18 -5 -18 -4
-8 16 6 12 10 22 8 23 -2 1 -13 7 -25 14 -27 15 -78 -7 -86 -37 -4 -17 -1 -19
26 -15 18 3 38 1 45 -3 14 -9 6 -42 -10 -42 -5 0 -6 4 -3 10 8 13 -1 13 -26 0
-18 -10 -18 -13 -3 -42 14 -28 14 -32 0 -47 -14 -13 -18 -14 -25 -2 -5 8 -16
11 -25 8 -10 -4 -16 -1 -16 8 0 26 -16 17 -45 -25 -27 -38 -45 -44 -45 -14 0
8 -9 14 -20 14 -12 0 -20 6 -19 13 1 6 -1 25 -6 40 -6 24 -11 28 -33 22 -14
-3 -32 -14 -39 -23 -11 -15 -12 -16 -13 -1 0 18 -33 31 -56 22 -18 -7 -18 -17
1 -33 19 -16 19 -40 0 -40 -8 0 -15 7 -15 15 0 22 -14 18 -25 -7 -6 -13 -20
-24 -32 -26 -28 -4 -30 -18 -3 -25 21 -5 27 -31 10 -42 -5 -3 -10 1 -10 10 0
8 -11 20 -25 25 -14 5 -25 16 -25 24 0 8 -5 16 -12 18 -6 2 -8 10 -4 17 5 7
14 10 22 7 8 -3 14 -1 14 4 0 13 -21 24 -29 14 -14 -20 -48 -32 -64 -22 -20
11 -22 1 -7 -38 8 -21 14 -24 22 -16 16 16 28 15 28 -3 0 -8 4 -15 9 -15 5 0
12 -12 15 -26 4 -15 14 -33 21 -41 21 -20 19 -35 -4 -28 -11 3 -22 1 -26 -5
-3 -6 -10 -8 -14 -5 -5 2 -8 -7 -8 -21 0 -31 -7 -38 -29 -30 -12 4 -14 13 -10
31 4 14 2 34 -4 45 -7 14 -7 26 0 39 8 16 7 19 -8 16 -10 -1 -16 -9 -14 -19 2
-11 -4 -16 -21 -16 -31 0 -47 18 -47 54 0 28 1 29 19 12 37 -33 57 8 22 43
-10 10 -23 27 -29 37 -10 18 -11 18 -29 1 -11 -9 -25 -17 -31 -17 -7 0 -12 -5
-12 -11 0 -6 -6 -9 -12 -7 -14 5 -21 105 -8 113 14 9 81 -25 74 -37 -4 -6 -3
-8 4 -4 6 3 13 2 17 -4 3 -5 20 -10 38 -10 24 0 28 3 19 12 -7 7 -12 22 -12
35 0 18 5 22 23 20 23 -2 23 -1 12 58 -2 11 -4 23 -4 28 -2 19 -19 4 -25 -23
-6 -33 -31 -40 -39 -11 -3 14 -11 17 -31 14 -14 -3 -26 -9 -26 -14 0 -4 -10
-14 -22 -20 -18 -9 -24 -8 -34 6 -16 22 -34 11 -34 -20 0 -13 -8 -28 -17 -34
-14 -7 -15 -12 -4 -25 7 -8 11 -21 9 -28 -3 -7 5 -20 16 -30 27 -23 3 -24 -38
-3 -31 17 -40 13 -50 -22 -6 -20 -4 -21 31 -20 36 2 38 0 38 -28 0 -25 -4 -30
-28 -33 -18 -2 -29 2 -33 12 -3 9 -14 16 -24 16 -10 0 -23 6 -30 14 -15 19
-40 9 -40 -16 0 -14 5 -18 15 -14 28 11 16 -31 -21 -69 -34 -35 -36 -36 -49
-18 -18 23 -19 43 -1 43 17 0 28 24 16 36 -5 5 -3 26 5 46 13 39 9 41 -29 9
-18 -15 -19 -14 -13 23 5 32 2 42 -16 56 -27 23 -18 34 16 21 16 -6 29 -7 32
-1 3 5 12 7 20 4 21 -8 55 14 55 36 0 11 -4 20 -10 20 -5 0 -10 -7 -10 -15 0
-11 -13 -13 -65 -10 -38 3 -65 1 -65 -5 0 -6 -7 -10 -15 -10 -8 0 -15 4 -15
10 0 5 -9 6 -22 1 -52 -19 -109 27 -78 64 11 13 9 15 -11 15 -30 1 -59 22 -59
43 0 16 -19 35 -21 20 -7 -77 -5 -90 11 -86 9 2 23 -3 30 -12 12 -15 12 -18
-2 -26 -11 -6 -17 -22 -16 -48 0 -22 -3 -44 -6 -50 -11 -18 -44 -13 -56 8 -14
28 -13 31 14 31 19 0 24 5 22 25 -1 28 -6 31 -24 13 -16 -16 -28 -2 -13 16 7
8 10 24 6 35 -6 19 -48 36 -65 26 -6 -4 -10 8 -10 24 0 21 -5 31 -15 31 -8 0
-15 5 -15 12 0 6 -10 3 -21 -8 -16 -14 -23 -15 -26 -6 -3 6 -16 12 -29 12 -15
0 -24 6 -24 15 0 13 7 15 37 9 32 -6 35 -5 30 10 -4 10 -7 19 -7 20 0 1 -13 1
-30 -2 -22 -3 -32 0 -37 14 -4 11 -13 25 -20 32 -9 9 -10 20 -3 38 6 14 10 27
10 30 0 10 -17 3 -36 -14 -10 -10 -27 -21 -37 -25 -26 -10 -16 -32 14 -32 32
0 49 -12 49 -36 0 -24 -9 -24 -26 -1 -12 16 -13 15 -14 -5 0 -35 -11 -53 -31
-53 -10 0 -19 -7 -19 -15 0 -20 -22 -65 -32 -65 -4 0 -8 6 -8 14 0 8 -9 22
-21 30 -12 8 -24 29 -28 48 -6 27 -14 35 -50 49 -24 9 -51 26 -60 38 -13 17
-19 19 -29 9 -16 -16 -16 -70 0 -66 16 2 59 -11 75 -24 17 -14 5 -35 -23 -42
-14 -4 -29 -18 -34 -31 -11 -30 -26 -32 -40 -5 -14 27 -33 26 -24 -2 6 -20 5
-19 -19 5 -32 31 -61 26 -77 -14 -14 -34 -14 -33 -43 -15 -20 14 -25 12 -64
-24 l-42 -40 25 -19 c13 -10 24 -24 24 -29 0 -23 -20 -21 -44 4 l-25 27 0
-676 c-1 -523 2 -677 11 -677 9 0 9 -3 0 -12 -9 -9 -12 -158 -12 -610 l0 -598
6745 0 6745 0 -1 74 c-1 64 -4 74 -18 69 -13 -4 -13 -2 2 7 9 6 17 17 17 25 0
14 -52 45 -79 46 -11 0 -9 4 7 11 15 8 20 17 17 29 -4 12 1 20 15 24 30 9 39
-4 15 -21 -19 -14 -19 -15 3 -36 l22 -22 -1 234 c-1 140 -4 228 -10 219 -6 -9
-9 -10 -9 -2 0 6 4 15 10 18 13 8 13 1472 0 1480 -6 3 -10 11 -10 16 0 6 5 7
10 4 6 -3 10 5 10 18 0 17 -5 24 -17 23 -13 -1 -17 5 -15 19 2 11 9 23 14 26
16 10 20 82 5 91 -9 6 -9 8 1 8 8 0 12 16 12 44 0 26 -5 47 -12 50 -10 5 -10
7 0 12 10 4 12 73 12 308 -1 166 -5 320 -10 341 -6 25 -5 44 3 56 8 13 8 24
-2 45 -10 22 -14 25 -22 13 -7 -12 -9 -11 -9 4 0 9 7 17 16 17 14 0 14 2 -1
16 -11 11 -14 25 -10 44 5 23 2 30 -14 35 -12 3 -25 3 -31 0 -15 -9 -12 -35 4
-35 19 0 29 -31 15 -44 -9 -8 -10 -7 -6 6 3 10 2 20 -3 23 -6 4 -10 2 -10 -3
0 -6 -13 -6 -35 1 -36 11 -50 29 -15 20 26 -7 27 22 3 51 -17 20 -17 20 0 7 9
-8 19 -12 21 -10 4 4 -6 74 -18 124 l-8 30 21 -25 c11 -14 21 -40 21 -57 0
-40 12 -42 39 -5 11 15 21 22 21 15 0 -6 -4 -14 -10 -18 -5 -3 -7 -12 -4 -19
3 -9 -5 -16 -22 -20 l-27 -7 38 -20 c20 -11 40 -17 44 -14 3 4 8 76 9 161 3
133 2 154 -12 154 -8 0 -18 -6 -23 -12z m-748 -634 c13 -9 30 -12 48 -8 23 5
29 2 34 -15 6 -24 25 -27 45 -7 12 12 18 11 39 -5 l24 -19 -23 0 c-13 0 -21
-4 -17 -9 3 -6 -10 -17 -30 -27 -41 -19 -41 -19 -17 -43 11 -13 39 -21 85 -26
66 -7 68 -7 65 -33 -2 -18 -10 -28 -23 -30 -16 -2 -17 -1 -5 7 12 8 9 12 -14
21 -16 6 -33 13 -38 16 -6 4 -8 -2 -6 -12 2 -11 8 -19 15 -19 24 0 23 -13 -2
-19 -14 -4 -25 -14 -25 -24 0 -13 -2 -14 -9 -4 -6 10 -10 7 -15 -13 -12 -45
19 -61 56 -28 10 9 18 11 18 5 0 -6 -6 -13 -12 -15 -8 -4 -7 -6 4 -6 9 -1 18
-7 21 -13 2 -7 2 -3 0 10 -3 22 12 32 19 11 2 -6 21 -11 43 -11 21 0 45 -6 52
-14 10 -10 18 -11 31 -3 12 7 26 7 46 0 26 -11 27 -13 14 -29 -9 -9 -14 -27
-12 -39 2 -13 -1 -23 -6 -23 -6 0 -10 4 -10 9 0 4 -11 20 -25 35 -26 28 -29
26 -19 -11 4 -13 10 -20 15 -17 5 3 9 1 9 -5 0 -19 -15 -19 -38 0 -15 12 -21
25 -18 36 3 10 1 25 -5 33 -8 13 -12 12 -26 -8 -15 -21 -16 -21 -29 -5 -9 12
-16 14 -21 7 -11 -14 -103 -17 -103 -3 0 8 -5 7 -15 -1 -8 -7 -15 -9 -15 -6 0
4 -9 2 -20 -4 -11 -6 -20 -15 -20 -21 0 -6 4 -8 9 -5 5 3 11 0 14 -8 3 -8 -1
-17 -9 -20 -25 -10 -54 -7 -54 5 0 5 -3 8 -7 6 -5 -3 -19 -1 -32 4 -19 8 -21
12 -11 24 14 17 60 21 60 5 0 -5 5 -10 10 -10 6 0 8 11 4 25 -6 25 8 35 21 15
10 -17 22 -11 28 12 7 26 -10 40 -36 32 -16 -5 -18 -2 -12 15 5 17 2 21 -17
22 -22 1 -21 2 5 12 15 6 25 17 23 23 -8 20 25 26 49 10 21 -14 24 -14 29 0 4
10 2 13 -7 8 -9 -6 -9 -4 1 8 10 13 10 18 1 24 -7 4 -15 2 -17 -5 -3 -9 -7 -9
-17 -1 -8 6 -11 18 -8 26 4 10 -2 14 -21 14 -16 0 -26 6 -26 15 0 8 6 12 13
10 6 -3 17 7 24 21 10 22 10 25 -4 20 -13 -5 -14 -4 -3 9 10 12 10 15 -3 15
-8 0 -24 3 -34 6 -15 5 -15 4 -3 -5 22 -16 7 -13 -26 4 -39 20 -66 20 -40 0
19 -15 19 -15 -3 -15 -13 0 -31 10 -42 23 -10 12 -18 16 -19 10 0 -7 5 -13 11
-13 5 0 7 -5 4 -11 -5 -7 -13 -5 -25 6 -16 14 -18 14 -23 0 -4 -8 -11 -15 -17
-15 -18 0 -11 20 17 46 21 19 36 25 60 22 18 -2 33 0 33 4 0 12 13 9 35 -8z
m-9936 -649 c18 -20 21 -28 11 -39 -9 -12 -7 -17 9 -26 27 -14 27 -56 0 -70
-19 -11 -19 -13 -5 -35 9 -13 13 -31 10 -39 -3 -8 3 -19 14 -25 11 -6 22 -20
25 -31 4 -17 2 -19 -21 -14 -47 10 -65 9 -69 -3 -3 -8 4 -13 16 -13 13 0 21
-6 21 -17 0 -15 -2 -16 -10 -3 -9 13 -11 13 -20 0 -8 -13 -13 -13 -31 -2 -11
8 -18 9 -14 3 12 -20 -25 -24 -45 -6 -19 17 -19 19 -3 37 16 18 16 21 -2 54
-18 34 -42 43 -61 24 -5 -5 -19 -7 -32 -4 -18 5 -21 11 -15 33 3 14 7 27 8 28
2 3 65 -17 87 -28 24 -12 25 -12 31 11 3 13 -1 24 -14 30 -10 6 -19 17 -19 25
0 19 16 19 24 0 8 -21 26 -19 26 3 0 13 2 14 9 3 5 -7 24 -14 43 -16 l35 -2
-16 28 c-9 16 -17 24 -19 19 -5 -13 -22 -13 -22 1 0 6 7 17 15 25 15 16 10 45
-9 43 -39 -5 -52 17 -13 24 12 2 24 5 27 5 3 1 16 -10 29 -23z m185 -156 c-18
-20 -18 -21 1 -35 11 -7 25 -18 32 -24 16 -13 46 -13 60 1 14 14 33 3 33 -17
0 -9 8 -14 18 -13 32 3 42 -1 42 -16 0 -10 -11 -15 -35 -15 -33 0 -35 -2 -29
-25 3 -14 2 -25 -2 -25 -18 1 -44 28 -44 44 0 10 -4 15 -9 11 -5 -3 -12 -1
-16 5 -13 21 -33 8 -43 -27 -6 -22 -10 -29 -11 -17 -1 29 -10 35 -32 23 -16
-8 -19 -6 -19 18 0 37 14 57 34 50 14 -5 15 -3 6 13 -13 24 -13 63 0 55 6 -3
10 -1 10 4 0 6 5 11 12 11 6 0 3 -9 -8 -21z"/>
<path d="M4111 2933 c-1 -13 -5 -23 -11 -23 -6 0 -9 -28 -7 -70 4 -74 -6 -89
-26 -42 -7 16 -17 27 -24 25 -13 -5 -36 31 -26 41 3 3 1 6 -5 6 -6 0 -9 6 -6
14 7 17 -32 41 -41 26 -3 -5 -1 -28 5 -50 6 -23 8 -50 5 -60 -4 -12 -2 -20 4
-20 19 0 12 -15 -11 -25 -12 -6 -24 -16 -26 -24 -3 -8 0 -11 7 -7 7 5 9 1 5
-9 -4 -8 0 -23 7 -32 11 -13 11 -17 2 -20 -18 -6 -16 -41 3 -60 12 -13 18 -13
24 -4 5 9 10 10 14 2 10 -16 36 -14 36 3 0 20 69 14 103 -9 33 -21 37 -50 6
-42 -18 5 -20 2 -17 -28 3 -38 -3 -47 -32 -52 -14 -2 -18 2 -14 12 4 10 0 15
-12 15 -25 -1 -52 -22 -47 -37 6 -17 -3 -16 -38 4 -22 13 -27 22 -23 40 4 13
2 23 -4 23 -13 0 -25 45 -26 100 -1 53 -20 70 -24 22 -2 -19 -7 -30 -14 -26
-8 5 -8 -42 1 -95 1 -2 8 -1 16 2 24 10 29 -13 6 -29 -25 -18 -26 -31 -5 -56
15 -16 15 -18 1 -24 -15 -5 -15 -8 0 -30 8 -13 20 -24 27 -24 18 -1 45 -45 37
-59 -6 -10 -9 -10 -14 2 -6 15 -67 21 -67 6 0 -5 4 -9 9 -9 5 0 12 -12 16 -27
6 -24 8 -26 16 -10 14 24 29 21 29 -5 0 -17 3 -19 12 -10 7 7 21 12 33 12 20
-1 20 -1 0 -12 -32 -19 -46 -36 -35 -43 5 -3 14 -4 19 0 5 3 11 0 14 -7 2 -7
2 -3 0 10 -2 12 1 22 6 22 19 0 28 -27 25 -72 -2 -36 1 -48 12 -48 8 0 14 7
14 16 0 19 20 39 39 39 8 0 15 10 16 22 2 30 13 40 20 20 4 -8 -1 -29 -9 -46
-16 -30 -16 -31 9 -37 15 -4 41 -4 60 -1 21 4 36 1 39 -6 2 -7 5 153 5 355 1
284 -2 367 -11 371 -10 4 -10 6 0 6 17 1 15 46 -3 61 -13 11 -14 8 -9 -19 5
-24 3 -31 -9 -31 -10 0 -14 6 -11 14 3 8 0 17 -6 21 -8 5 -8 11 1 21 6 8 9 17
5 21 -3 3 -6 1 -6 -5 0 -7 -7 -12 -15 -12 -10 0 -15 -10 -15 -26 0 -25 -1 -26
-22 -12 -13 9 -26 26 -29 39 -7 24 -7 24 -8 2z"/>
<path d="M3008 2828 c7 -131 17 -193 30 -190 7 1 12 -2 12 -8 0 -5 9 -14 19
-20 19 -9 19 -6 15 58 -2 37 -6 80 -8 96 -6 37 9 76 29 76 8 0 15 6 15 14 0 8
-6 14 -12 13 -47 -1 -66 5 -71 23 -3 11 -12 20 -19 20 -12 0 -14 -16 -10 -82z"/>
<path d="M3741 2869 c-22 -29 -24 -30 -46 -15 -28 19 -80 22 -69 5 4 -8 0 -9
-15 -4 -17 5 -21 2 -21 -14 0 -14 8 -21 27 -23 28 -3 45 -28 19 -28 -9 0 -16
4 -16 8 0 4 -12 8 -27 7 -30 0 -44 -28 -24 -48 16 -16 13 -37 -4 -31 -8 4 -15
1 -15 -5 0 -7 7 -14 15 -17 8 -4 13 -10 10 -15 -3 -4 -13 -5 -21 -2 -14 5 -14
3 -3 -15 7 -11 16 -19 20 -16 9 5 23 -27 20 -48 -3 -21 35 -33 55 -17 8 6 16
10 17 8 1 -2 9 -16 17 -31 7 -16 20 -28 27 -28 20 0 32 40 22 75 -13 42 -12
45 15 45 16 0 31 -11 45 -32 11 -18 21 -27 21 -20 0 6 7 12 15 12 10 0 15 10
15 30 0 17 -5 30 -10 30 -7 0 -7 6 -1 18 5 9 9 20 10 25 1 4 1 8 2 10 0 1 2
10 4 20 3 14 0 16 -10 7 -10 -8 -15 -4 -23 19 -7 19 -7 33 -1 36 13 9 11 47
-5 68 -19 25 -39 21 -65 -14z"/>
<path d="M3470 2555 c-14 -7 -32 -25 -40 -39 -7 -14 -17 -26 -22 -26 -5 0 -8
-12 -6 -27 2 -22 -1 -27 -15 -25 -18 3 -47 -14 -47 -28 0 -3 12 -13 28 -21 15
-8 32 -21 39 -29 6 -8 26 -15 45 -15 30 0 33 -3 30 -29 -3 -26 -2 -27 12 -13
19 18 20 34 5 39 -8 3 -6 10 5 21 10 9 15 20 13 24 -11 18 -16 112 -6 119 14
8 38 -26 31 -45 -4 -10 -1 -13 11 -8 9 3 17 2 17 -3 0 -6 -4 -10 -10 -10 -20
0 -10 -28 12 -33 12 -4 19 -9 16 -13 -4 -3 4 -23 17 -43 14 -19 25 -41 25 -48
0 -20 17 -15 34 8 15 21 15 21 24 -12 9 -38 34 -49 57 -25 20 19 19 23 -5 29
-11 3 -20 12 -20 21 0 9 -4 16 -10 16 -5 0 -10 18 -10 40 0 22 -5 40 -10 40
-6 0 -30 19 -53 43 -23 23 -53 44 -67 46 -29 4 -44 21 -30 35 6 6 10 14 10 18
0 13 -53 8 -80 -7z"/>
</g>
</svg>
