<?xml version="1.0" standalone="no"?>
<!DOCTYPE svg PUBLIC "-//W3C//DTD SVG 20010904//EN"
 "http://www.w3.org/TR/2001/REC-SVG-20010904/DTD/svg10.dtd">
<svg version="1.0" xmlns="http://www.w3.org/2000/svg"
 width="1348.000000pt" height="655.000000pt" viewBox="0 0 1348.000000 655.000000"
 preserveAspectRatio="xMidYMid meet">
<metadata>
Created by potrace 1.16, written by Peter Selinger 2001-2019
</metadata>
<g transform="translate(0.000000,655.000000) scale(0.100000,-0.100000)"
fill="#000000" stroke="none">
<path d="M3368 6543 c1854 -2 4890 -2 6745 0 1854 1 337 2 -3373 2 -3710 0
-5227 -1 -3372 -2z"/>
<path d="M3696 5669 c-29 -23 -35 -63 -13 -93 7 -10 35 -30 62 -44 59 -33 74
-54 56 -76 -22 -26 -69 -20 -102 13 l-29 29 0 -34 c0 -21 4 -33 10 -29 6 3 25
1 44 -6 61 -22 126 14 126 69 0 33 -22 56 -88 92 -37 20 -47 31 -47 50 0 37
55 41 90 6 l25 -25 0 23 c0 18 -8 25 -39 34 -53 16 -64 15 -95 -9z"/>
<path d="M3888 5683 c9 -3 12 -39 12 -128 0 -89 -3 -125 -12 -128 -7 -3 12 -5
42 -5 30 0 49 2 43 5 -10 3 -13 40 -13 134 l0 129 -42 -1 c-24 0 -37 -3 -30
-6z"/>
<path d="M4213 5679 c12 -7 17 -23 17 -55 0 -30 -4 -43 -11 -38 -8 4 -7 0 1
-15 17 -32 9 -112 -13 -125 -43 -26 -68 93 -27 134 l20 20 -20 0 c-12 0 -32
-11 -45 -25 -66 -65 9 -200 77 -138 17 15 18 15 18 -2 0 -11 5 -15 16 -11 9 3
25 6 37 6 16 0 18 3 9 12 -8 8 -12 52 -12 130 l0 118 -42 0 c-34 -1 -39 -3
-25 -11z"/>
<path d="M5596 5669 c-29 -23 -35 -63 -13 -93 7 -10 35 -30 62 -44 59 -33 74
-54 56 -76 -22 -26 -69 -20 -102 13 l-29 29 0 -34 c0 -21 4 -33 10 -29 6 3 25
1 44 -6 61 -22 126 14 126 69 0 33 -22 56 -88 92 -37 20 -47 31 -47 50 0 37
55 41 90 6 l25 -25 0 23 c0 18 -8 25 -39 34 -53 16 -64 15 -95 -9z"/>
<path d="M6448 5683 c9 -3 12 -39 12 -128 0 -89 -3 -125 -12 -128 -7 -3 12 -5
42 -5 30 0 49 2 43 5 -10 3 -13 40 -13 134 l0 129 -42 -1 c-24 0 -37 -3 -30
-6z"/>
<path d="M4358 5570 c-27 -27 -30 -36 -25 -73 10 -70 69 -99 118 -57 l24 20
-31 -6 c-25 -5 -35 -1 -48 17 -27 40 -21 49 34 49 58 0 65 16 25 55 -32 33
-60 31 -97 -5z"/>
<path d="M4728 5588 c16 -16 16 -140 0 -156 -9 -9 -1 -12 38 -12 29 0 44 4 36
9 -9 5 -12 27 -10 72 3 56 5 64 23 64 17 0 20 -8 23 -58 2 -35 -2 -64 -9 -73
-10 -12 -4 -14 37 -13 27 0 43 3 37 6 -9 3 -13 28 -13 73 0 90 -26 119 -81 90
-13 -7 -19 -7 -19 0 0 5 -17 10 -37 10 -29 0 -34 -3 -25 -12z"/>
<path d="M5084 5588 c-12 -5 -27 -21 -33 -34 -31 -69 9 -133 82 -134 31 0 77
54 77 90 0 22 -9 41 -29 61 -30 30 -60 35 -97 17z"/>
<path d="M5248 5593 c8 -3 12 -30 12 -83 0 -53 -4 -80 -12 -83 -7 -3 9 -6 37
-6 38 -1 46 2 37 11 -7 7 -12 35 -12 63 0 51 12 75 37 75 18 0 18 -136 1 -143
-7 -3 8 -6 33 -6 l45 -1 -9 78 c-5 42 -13 83 -19 90 -13 15 -43 16 -69 2 -13
-7 -19 -7 -19 0 0 5 -17 10 -37 9 -21 0 -32 -3 -25 -6z"/>
<path d="M6159 5571 c-20 -20 -29 -39 -29 -61 0 -37 47 -90 79 -90 50 0 91 41
91 90 0 49 -41 90 -91 90 -11 0 -34 -13 -50 -29z"/>
</g>
</svg>
